StickNoBills-sinhala-1.ufo
<glyph name="anusvara" format="1">
  <advance width="469"/>
  <unicode hex="0D82"/>
  <outline>
    <contour>
      <point x="259.334" y="45" type="line"/>
      <point x="259.334" y="175" type="line"/>
      <point x="298.889" y="175"/>
      <point x="303.668" y="208.602"/>
      <point x="303.668" y="248" type="curve" smooth="yes"/>
      <point x="303.668" y="311" type="line" smooth="yes"/>
      <point x="303.668" y="350.398"/>
      <point x="298.889" y="384"/>
      <point x="259.334" y="384" type="curve"/>
      <point x="259.334" y="514" type="line"/>
      <point x="280.405" y="514" type="line" smooth="yes"/>
      <point x="425.668" y="514"/>
      <point x="438.668" y="369.253"/>
      <point x="438.668" y="311" type="curve" smooth="yes"/>
      <point x="438.668" y="248" type="line" smooth="yes"/>
      <point x="438.668" y="189.747"/>
      <point x="425.668" y="45"/>
      <point x="280.405" y="45" type="curve" smooth="yes"/>
    </contour>
    <contour>
      <point x="30" y="248" type="line" smooth="yes"/>
      <point x="30" y="189.747"/>
      <point x="43" y="45"/>
      <point x="188.263" y="45" type="curve" smooth="yes"/>
      <point x="209.334" y="45" type="line"/>
      <point x="209.334" y="175" type="line"/>
      <point x="169.779" y="175"/>
      <point x="165" y="208.602"/>
      <point x="165" y="248" type="curve" smooth="yes"/>
      <point x="165" y="311" type="line" smooth="yes"/>
      <point x="165" y="350.398"/>
      <point x="169.779" y="384"/>
      <point x="209.334" y="384" type="curve"/>
      <point x="209.334" y="514" type="line"/>
      <point x="188.263" y="514" type="line" smooth="yes"/>
      <point x="43" y="514"/>
      <point x="30" y="369.253"/>
      <point x="30" y="311" type="curve" smooth="yes"/>
    </contour>
  </outline>
</glyph>
<glyph name="visarga" format="1">
  <advance width="388"/>
  <unicode hex="0D83"/>
  <outline>
    <contour>
      <point x="219.084" y="-7.4502" type="line"/>
      <point x="219.084" y="99.5498" type="line"/>
      <point x="239.546" y="99.5498"/>
      <point x="249.707" y="115.202"/>
      <point x="249.707" y="130.892" type="curve" smooth="yes"/>
      <point x="249.707" y="146.652"/>
      <point x="239.452" y="162.45"/>
      <point x="219.084" y="162.45" type="curve"/>
      <point x="219.084" y="262.95" type="line"/>
      <point x="232.78" y="262.95" type="line" smooth="yes"/>
      <point x="316.885" y="262.95"/>
      <point x="357.835" y="196.569"/>
      <point x="357.835" y="129.587" type="curve" smooth="yes"/>
      <point x="357.835" y="61.3799"/>
      <point x="315.374" y="-7.4502"/>
      <point x="232.78" y="-7.4502" type="curve" smooth="yes"/>
    </contour>
    <contour>
      <point x="155.388" y="-7.4502" type="line" smooth="yes"/>
      <point x="72.7939" y="-7.4502"/>
      <point x="30.333" y="61.3799"/>
      <point x="30.333" y="129.587" type="curve" smooth="yes"/>
      <point x="30.333" y="196.569"/>
      <point x="71.2832" y="262.95"/>
      <point x="155.388" y="262.95" type="curve" smooth="yes"/>
      <point x="169.084" y="262.95" type="line"/>
      <point x="169.084" y="162.45" type="line"/>
      <point x="148.716" y="162.45"/>
      <point x="138.461" y="146.652"/>
      <point x="138.461" y="130.892" type="curve" smooth="yes"/>
      <point x="138.461" y="115.202"/>
      <point x="148.622" y="99.5498"/>
      <point x="169.084" y="99.5498" type="curve"/>
      <point x="169.084" y="-7.4502" type="line"/>
    </contour>
    <contour>
      <point x="219.084" y="297.55" type="line"/>
      <point x="219.084" y="404.55" type="line"/>
      <point x="239.546" y="404.55"/>
      <point x="249.707" y="420.202"/>
      <point x="249.707" y="435.892" type="curve" smooth="yes"/>
      <point x="249.707" y="451.652"/>
      <point x="239.452" y="467.45"/>
      <point x="219.084" y="467.45" type="curve"/>
      <point x="219.084" y="567.95" type="line"/>
      <point x="232.78" y="567.95" type="line" smooth="yes"/>
      <point x="316.885" y="567.95"/>
      <point x="357.835" y="501.569"/>
      <point x="357.835" y="434.587" type="curve" smooth="yes"/>
      <point x="357.835" y="366.38"/>
      <point x="315.374" y="297.55"/>
      <point x="232.78" y="297.55" type="curve" smooth="yes"/>
    </contour>
    <contour>
      <point x="155.388" y="297.55" type="line" smooth="yes"/>
      <point x="72.7939" y="297.55"/>
      <point x="30.333" y="366.38"/>
      <point x="30.333" y="434.587" type="curve" smooth="yes"/>
      <point x="30.333" y="501.569"/>
      <point x="71.2832" y="567.95"/>
      <point x="155.388" y="567.95" type="curve" smooth="yes"/>
      <point x="169.084" y="567.95" type="line"/>
      <point x="169.084" y="467.45" type="line"/>
      <point x="148.716" y="467.45"/>
      <point x="138.461" y="451.652"/>
      <point x="138.461" y="435.891" type="curve" smooth="yes"/>
      <point x="138.461" y="420.202"/>
      <point x="148.622" y="404.55"/>
      <point x="169.084" y="404.55" type="curve"/>
      <point x="169.084" y="297.55" type="line"/>
    </contour>
  </outline>
</glyph>
<glyph name="si_Aae" format="1">
  <advance width="811"/>
  <unicode hex="0D88"/>
  <outline>
    <contour>
      <point x="563.989" y="216.358" type="line" smooth="yes"/>
      <point x="563.989" y="249.528"/>
      <point x="564" y="262"/>
      <point x="608" y="302" type="curve"/>
      <point x="781" y="302" type="line"/>
      <point x="713" y="250"/>
      <point x="705" y="251.229"/>
      <point x="705" y="216" type="curve" smooth="yes"/>
      <point x="705" y="202" type="line" smooth="yes"/>
      <point x="705" y="153"/>
      <point x="735.804" y="143"/>
      <point x="760" y="143" type="curve" smooth="yes"/>
      <point x="768.854" y="143"/>
      <point x="776.681" y="143"/>
      <point x="781" y="143" type="curve"/>
      <point x="781" y="0" type="line"/>
      <point x="773.533" y="-0.00195312"/>
      <point x="766.229" y="-0.00292969"/>
      <point x="759.19" y="-0.00292969" type="curve" smooth="yes"/>
      <point x="652.365" y="-0.00292969"/>
      <point x="563.854" y="49.6211"/>
      <point x="564" y="178" type="curve" smooth="yes"/>
    </contour>
    <contour>
      <point x="564" y="412" type="line"/>
      <point x="621" y="464" type="line"/>
      <point x="781" y="464" type="line"/>
      <point x="722" y="412" type="line"/>
    </contour>
    <contour>
      <point x="564" y="464" type="line"/>
      <point x="564" y="574" type="line"/>
      <point x="781" y="574" type="line"/>
      <point x="781" y="464" type="line"/>
    </contour>
    <contour>
      <point x="564" y="302" type="line"/>
      <point x="564" y="412" type="line"/>
      <point x="781" y="412" type="line"/>
      <point x="781" y="302" type="line"/>
    </contour>
    <component base="si_A"/>
  </outline>
</glyph>
<glyph name="si_I" format="1">
  <advance width="569"/>
  <unicode hex="0D89"/>
  <outline>
    <contour>
      <point x="196" y="0" type="line"/>
      <point x="196" y="128" type="line"/>
      <point x="205.667" y="128"/>
      <point x="215.333" y="128"/>
      <point x="225" y="128" type="curve" smooth="yes"/>
      <point x="331.2" y="128"/>
      <point x="402" y="171.955"/>
      <point x="402" y="278" type="curve" smooth="yes"/>
      <point x="402" y="345" type="line" smooth="yes"/>
      <point x="402" y="416.888"/>
      <point x="366" y="437.479"/>
      <point x="312" y="437.479" type="curve" smooth="yes"/>
      <point x="312" y="578" type="line" smooth="yes"/>
      <point x="328" y="578" type="line"/>
      <point x="431.754" y="578"/>
      <point x="539" y="505.126"/>
      <point x="539" y="389" type="curve" smooth="yes"/>
      <point x="539" y="249" type="line" smooth="yes"/>
      <point x="539" y="85.834"/>
      <point x="411.519" y="0"/>
      <point x="287" y="0" type="curve" smooth="yes"/>
    </contour>
    <contour>
      <point x="65" y="-81" type="curve"/>
      <point x="198" y="-47" type="line"/>
      <point x="203.173" y="-67.3711"/>
      <point x="227.311" y="-78"/>
      <point x="248" y="-78" type="curve" smooth="yes"/>
      <point x="276.711" y="-78"/>
      <point x="297" y="-61.1494"/>
      <point x="297" y="-45" type="curve"/>
      <point x="434" y="-45" type="line"/>
      <point x="434" y="-136.261"/>
      <point x="367.001" y="-204"/>
      <point x="248" y="-204" type="curve" smooth="yes"/>
      <point x="142.498" y="-204"/>
      <point x="86.8809" y="-148.451"/>
    </contour>
    <contour>
      <point x="30" y="317.5" type="curve" smooth="yes"/>
      <point x="30" y="390" type="line" smooth="yes"/>
      <point x="30" y="505.126"/>
      <point x="137.246" y="578"/>
      <point x="241" y="578" type="curve"/>
      <point x="257" y="578" type="line" smooth="yes"/>
      <point x="257" y="437.479" type="line"/>
      <point x="241" y="437.479" type="line"/>
      <point x="199.286" y="437.479"/>
      <point x="168.156" y="414.334"/>
      <point x="168" y="372.5" type="curve" smooth="yes"/>
      <point x="167.903" y="346.122" type="line" smooth="yes"/>
      <point x="167.903" y="333.348"/>
      <point x="170.178" y="316"/>
      <point x="196" y="316" type="curve" smooth="yes"/>
      <point x="221.678" y="316"/>
      <point x="224" y="332.729"/>
      <point x="224" y="347" type="curve" smooth="yes"/>
      <point x="224" y="365" type="line"/>
      <point x="354" y="365" type="line"/>
      <point x="354" y="355.55"/>
      <point x="354" y="277"/>
      <point x="354" y="277" type="curve" smooth="yes"/>
      <point x="354" y="229.115"/>
      <point x="331.402" y="176"/>
      <point x="196" y="176" type="curve" smooth="yes"/>
      <point x="73.9854" y="176"/>
      <point x="30" y="250.131"/>
    </contour>
  </outline>
</glyph>
<glyph name="si_Ii" format="1">
  <advance width="545"/>
  <unicode hex="0D8A"/>
  <outline>
    <contour>
      <point x="463" y="659" type="curve" smooth="yes"/>
      <point x="463" y="699"/>
      <point x="496" y="732"/>
      <point x="536" y="732" type="curve" smooth="yes"/>
      <point x="576" y="732"/>
      <point x="609" y="699"/>
      <point x="609" y="659" type="curve" smooth="yes"/>
      <point x="609" y="620"/>
      <point x="576" y="587"/>
      <point x="536" y="587" type="curve" smooth="yes"/>
      <point x="496" y="587"/>
      <point x="463" y="620"/>
    </contour>
    <contour>
      <point x="50" y="769.002" type="curve" smooth="yes"/>
      <point x="50" y="809.002"/>
      <point x="83" y="842.002"/>
      <point x="123" y="842.002" type="curve" smooth="yes"/>
      <point x="163" y="842.002"/>
      <point x="196" y="809.002"/>
      <point x="196" y="769.002" type="curve" smooth="yes"/>
      <point x="196" y="730.002"/>
      <point x="163" y="697.002"/>
      <point x="123" y="697.002" type="curve" smooth="yes"/>
      <point x="83" y="697.002"/>
      <point x="50" y="730.002"/>
    </contour>
    <component base="si_Ra"/>
  </outline>
</glyph>
<glyph name="si_U" format="1">
  <advance width="569"/>
  <unicode hex="0D8B"/>
  <outline>
    <contour>
      <point x="324" y="-28" type="line"/>
      <point x="378.158" y="-28"/>
      <point x="420.864" y="-8.03648"/>
      <point x="434" y="41.7705" type="curve"/>
      <point x="569" y="4.125" type="line"/>
      <point x="539.601" y="-135.143"/>
      <point x="423.056" y="-168"/>
      <point x="324" y="-168" type="curve"/>
    </contour>
    <contour>
      <point x="128" y="464" type="line"/>
      <point x="148" y="539"/>
      <point x="233" y="575"/>
      <point x="312" y="575" type="curve" smooth="yes"/>
      <point x="420.46" y="575"/>
      <point x="513" y="520"/>
      <point x="513" y="385" type="curve"/>
      <point x="513" y="257" type="line"/>
      <point x="268" y="257" type="line" smooth="yes"/>
      <point x="189" y="257"/>
      <point x="171" y="209.419"/>
      <point x="171" y="133" type="curve" smooth="yes"/>
      <point x="171" y="85" type="line" smooth="yes"/>
      <point x="171" y="-16.1744"/>
      <point x="244.799" y="-25.5665"/>
      <point x="268" y="-28" type="curve"/>
      <point x="268" y="-169" type="line"/>
      <point x="164.482" y="-169"/>
      <point x="30.333" y="-82.9234"/>
      <point x="30.333" y="85" type="curve" smooth="yes"/>
      <point x="30.333" y="133" type="line" smooth="yes"/>
      <point x="30.333" y="246.788"/>
      <point x="60.7776" y="397.515"/>
      <point x="264.462" y="397.515" type="curve" smooth="yes"/>
      <point x="384" y="397" type="line"/>
      <point x="384" y="445.507"/>
      <point x="329.882" y="454"/>
      <point x="312" y="454" type="curve" smooth="yes"/>
      <point x="296.587" y="454"/>
      <point x="253.856" y="453.742"/>
      <point x="243" y="420" type="curve"/>
    </contour>
  </outline>
</glyph>
<glyph name="si_vocalicR" format="1">
  <advance width="1015"/>
  <unicode hex="0D8D"/>
  <outline>
    <contour>
      <point x="30" y="251" type="line"/>
      <point x="30" y="279" type="line" smooth="yes"/>
      <point x="30" y="391.937"/>
      <point x="121.64" y="402"/>
      <point x="184" y="402" type="curve" smooth="yes"/>
      <point x="466" y="402" type="line" smooth="yes"/>
      <point x="528.36" y="402"/>
      <point x="620" y="391.937"/>
      <point x="620" y="279" type="curve" smooth="yes"/>
      <point x="620" y="251" type="line"/>
      <point x="481" y="251" type="line"/>
      <point x="481" y="266"/>
      <point x="472" y="283"/>
      <point x="444" y="283" type="curve" smooth="yes"/>
      <point x="206" y="283" type="line" smooth="yes"/>
      <point x="178" y="283"/>
      <point x="169" y="266"/>
      <point x="169" y="251" type="curve"/>
    </contour>
    <contour>
      <point x="30" y="160" type="curve" smooth="yes"/>
      <point x="30" y="202" type="line"/>
      <point x="169" y="202" type="line"/>
      <point x="169" y="171" type="line" smooth="yes"/>
      <point x="169" y="144.935"/>
      <point x="192.006" y="131.396"/>
      <point x="215.009" y="131.396" type="curve" smooth="yes"/>
      <point x="238.006" y="131.396"/>
      <point x="261" y="144.928"/>
      <point x="261" y="173" type="curve" smooth="yes"/>
      <point x="261" y="202" type="line"/>
      <point x="389" y="202" type="line"/>
      <point x="389" y="173" type="line" smooth="yes"/>
      <point x="389" y="145.086"/>
      <point x="412.285" y="131.383"/>
      <point x="435.427" y="131.383" type="curve" smooth="yes"/>
      <point x="458.283" y="131.383"/>
      <point x="481" y="144.751"/>
      <point x="481" y="171" type="curve" smooth="yes"/>
      <point x="481" y="202" type="line"/>
      <point x="620" y="202" type="line"/>
      <point x="620" y="160" type="line" smooth="yes"/>
      <point x="620" y="50"/>
      <point x="548.024" y="-8"/>
      <point x="438" y="-8" type="curve" smooth="yes"/>
      <point x="395.055" y="-8"/>
      <point x="351.962" y="3.7334"/>
      <point x="322" y="36" type="curve"/>
      <point x="293.071" y="3.7334"/>
      <point x="254.464" y="-8"/>
      <point x="213" y="-8" type="curve" smooth="yes"/>
      <point x="104.127" y="-8"/>
      <point x="30" y="58"/>
    </contour>
    <contour>
      <point x="41" y="460" type="line"/>
      <point x="65.0459" y="536.591"/>
      <point x="132.808" y="574.548"/>
      <point x="204.252" y="574.548" type="curve" smooth="yes"/>
      <point x="245.893" y="574.548"/>
      <point x="288.783" y="561.654"/>
      <point x="325" y="536" type="curve"/>
      <point x="361.253" y="561.681"/>
      <point x="404.124" y="574.564"/>
      <point x="445.729" y="574.564" type="curve" smooth="yes"/>
      <point x="517.221" y="574.564"/>
      <point x="584.975" y="536.523"/>
      <point x="609" y="460" type="curve"/>
      <point x="491" y="421" type="line"/>
      <point x="486.584" y="436"/>
      <point x="471.783" y="451"/>
      <point x="444" y="451" type="curve" smooth="yes"/>
      <point x="428.669" y="451"/>
      <point x="389" y="443.165"/>
      <point x="389" y="397" type="curve"/>
      <point x="389" y="378" type="line"/>
      <point x="261" y="378" type="line"/>
      <point x="261" y="397" type="line"/>
      <point x="261" y="443.165"/>
      <point x="221.331" y="451"/>
      <point x="206" y="451" type="curve" smooth="yes"/>
      <point x="178.217" y="451"/>
      <point x="163.416" y="436"/>
      <point x="159" y="421" type="curve"/>
    </contour>
    <component base="si_MatraR" xOffset="670"/>
  </outline>
</glyph>
<glyph name="si_vocalicL" format="1">
  <advance width="978"/>
  <unicode hex="0D8F"/>
  <outline>
    <contour>
      <point x="45" y="88" type="curve" smooth="yes"/>
      <point x="45" y="140"/>
      <point x="87" y="182"/>
      <point x="139" y="182" type="curve" smooth="yes"/>
      <point x="191" y="182"/>
      <point x="233" y="140"/>
      <point x="233" y="88" type="curve" smooth="yes"/>
      <point x="233" y="36"/>
      <point x="191" y="-6"/>
      <point x="139" y="-6" type="curve" smooth="yes"/>
      <point x="87" y="-6"/>
      <point x="45" y="36"/>
    </contour>
    <contour>
      <point x="30" y="251" type="line"/>
      <point x="30" y="332" type="line" smooth="yes"/>
      <point x="30" y="497"/>
      <point x="164" y="616"/>
      <point x="321" y="556" type="curve"/>
      <point x="321" y="422" type="line"/>
      <point x="298" y="430" type="line" smooth="yes"/>
      <point x="258" y="443"/>
      <point x="161" y="456"/>
      <point x="161" y="307" type="curve" smooth="yes"/>
      <point x="161" y="251" type="line"/>
    </contour>
    <contour>
      <point x="161" y="202" type="line"/>
      <point x="161" y="155.109"/>
      <point x="167.795" y="121.667"/>
      <point x="178.354" y="86.2139" type="curve"/>
      <point x="52.9932" y="49.9053" type="line"/>
      <point x="34.3633" y="93.7725"/>
      <point x="30" y="138.929"/>
      <point x="30" y="201.842" type="curve"/>
    </contour>
    <contour>
      <point x="933" y="88" type="curve" smooth="yes"/>
      <point x="933" y="36"/>
      <point x="891" y="-6"/>
      <point x="839" y="-6" type="curve" smooth="yes"/>
      <point x="787" y="-6"/>
      <point x="745" y="36"/>
      <point x="745" y="88" type="curve" smooth="yes"/>
      <point x="745" y="140"/>
      <point x="787" y="182"/>
      <point x="839" y="182" type="curve" smooth="yes"/>
      <point x="891" y="182"/>
      <point x="933" y="140"/>
    </contour>
    <contour>
      <point x="948" y="251" type="line"/>
      <point x="817" y="251" type="line"/>
      <point x="817" y="307" type="line" smooth="yes"/>
      <point x="817" y="456"/>
      <point x="720" y="443"/>
      <point x="680" y="430" type="curve" smooth="yes"/>
      <point x="657" y="422" type="line"/>
      <point x="657" y="556" type="line"/>
      <point x="814" y="616"/>
      <point x="948" y="497"/>
      <point x="948" y="332" type="curve" smooth="yes"/>
    </contour>
    <contour>
      <point x="817" y="202" type="curve"/>
      <point x="948" y="201.842" type="line"/>
      <point x="948" y="138.929"/>
      <point x="943.637" y="93.7725"/>
      <point x="925.007" y="49.9053" type="curve"/>
      <point x="799.646" y="86.2139" type="line"/>
      <point x="810.205" y="121.667"/>
      <point x="817" y="155.109"/>
    </contour>
    <component base="si_Pa" xOffset="175"/>
  </outline>
</glyph>
<glyph name="si_Os" format="1">
  <advance width="606"/>
  <unicode hex="0D94"/>
  <outline>
    <contour>
      <point x="201" y="-8" type="curve" smooth="yes"/>
      <point x="100.471" y="-8"/>
      <point x="30" y="58"/>
      <point x="30" y="160" type="curve" smooth="yes"/>
      <point x="29.999" y="341.926" type="line" smooth="yes"/>
      <point x="30" y="428.354"/>
      <point x="98.7227" y="473.401"/>
      <point x="163.735" y="473.401" type="curve" smooth="yes"/>
      <point x="223.909" y="473.401"/>
      <point x="281" y="437.112"/>
      <point x="281" y="364" type="curve" smooth="yes"/>
      <point x="281" y="348" type="line" smooth="yes"/>
      <point x="281" y="336.714"/>
      <point x="288.716" y="331.107"/>
      <point x="296.45" y="331.107" type="curve" smooth="yes"/>
      <point x="304.216" y="331.107"/>
      <point x="312" y="336.763"/>
      <point x="312" y="348" type="curve" smooth="yes"/>
      <point x="312" y="469" type="line"/>
      <point x="404" y="469" type="line"/>
      <point x="404" y="340" type="line" smooth="yes"/>
      <point x="404" y="265.131"/>
      <point x="348.217" y="228.691"/>
      <point x="294.707" y="228.691" type="curve" smooth="yes"/>
      <point x="245.388" y="228.691"/>
      <point x="198" y="259.647"/>
      <point x="198" y="320" type="curve" smooth="yes"/>
      <point x="198" y="328" type="line" smooth="yes"/>
      <point x="198" y="341.306"/>
      <point x="190.157" y="348.08"/>
      <point x="182.361" y="348.08" type="curve" smooth="yes"/>
      <point x="174.658" y="348.08"/>
      <point x="167" y="340.999"/>
      <point x="167" y="328" type="curve" smooth="yes"/>
      <point x="167" y="169" type="line" smooth="yes"/>
      <point x="167" y="142.519"/>
      <point x="189.362" y="128.422"/>
      <point x="211.281" y="128.422" type="curve" smooth="yes"/>
      <point x="232.345" y="128.422"/>
      <point x="253" y="141.442"/>
      <point x="253" y="169" type="curve" smooth="yes"/>
      <point x="253" y="202" type="line"/>
      <point x="353" y="202" type="line"/>
      <point x="353" y="169" type="line" smooth="yes"/>
      <point x="353" y="141.527"/>
      <point x="373.698" y="128.511"/>
      <point x="394.786" y="128.511" type="curve" smooth="yes"/>
      <point x="416.683" y="128.511"/>
      <point x="439" y="142.545"/>
      <point x="439" y="169" type="curve" smooth="yes"/>
      <point x="439" y="210.817" type="line"/>
      <point x="576" y="211.445" type="line"/>
      <point x="576" y="160" type="line" smooth="yes"/>
      <point x="576" y="58"/>
      <point x="505.529" y="-8"/>
      <point x="405" y="-8" type="curve" smooth="yes"/>
      <point x="372.921" y="-8"/>
      <point x="331.443" y="3.4668"/>
      <point x="303" y="35" type="curve"/>
      <point x="273.821" y="3.4668"/>
      <point x="232.759" y="-8"/>
    </contour>
    <contour>
      <point x="439" y="197" type="line" smooth="yes"/>
      <point x="439" y="508" type="line" smooth="yes"/>
      <point x="439" y="615.72"/>
      <point x="390.119" y="616"/>
      <point x="319" y="616" type="curve"/>
      <point x="319" y="755" type="line"/>
      <point x="494.858" y="755"/>
      <point x="576" y="695.247"/>
      <point x="576" y="520" type="curve" smooth="yes"/>
      <point x="576" y="197" type="line" smooth="yes"/>
    </contour>
    <contour>
      <point x="172" y="530" type="curve"/>
      <point x="35" y="566" type="line"/>
      <point x="35" y="677.93"/>
      <point x="148.967" y="755"/>
      <point x="262" y="755" type="curve"/>
      <point x="262" y="616.5" type="line"/>
      <point x="213.963" y="616.5"/>
      <point x="172" y="601.568"/>
    </contour>
  </outline>
</glyph>
<glyph name="si_Ka" format="1">
  <advance width="800"/>
  <unicode hex="0D9A"/>
  <outline>
    <contour>
      <point x="30" y="439" type="line"/>
      <point x="44" y="537"/>
      <point x="136.521" y="567"/>
      <point x="198" y="567" type="curve" smooth="yes"/>
      <point x="270.695" y="567"/>
      <point x="320" y="533"/>
      <point x="337" y="502" type="curve"/>
      <point x="245" y="402" type="line"/>
      <point x="245" y="437"/>
      <point x="214.169" y="446"/>
      <point x="198" y="446" type="curve" smooth="yes"/>
      <point x="164.069" y="446"/>
      <point x="147" y="422.741"/>
      <point x="147" y="402" type="curve"/>
    </contour>
    <contour>
      <point x="30" y="160" type="curve"/>
      <point x="147" y="255" type="line"/>
      <point x="165.91" y="239.066"/>
      <point x="180.861" y="220.713"/>
      <point x="180.88" y="202" type="curve"/>
      <point x="181" y="160" type="line" smooth="yes"/>
      <point x="181.107" y="122.479"/>
      <point x="240" y="122.546"/>
      <point x="240" y="160" type="curve" smooth="yes"/>
      <point x="240" y="202" type="line"/>
      <point x="339.88" y="202" type="line"/>
      <point x="340" y="162" type="line" smooth="yes"/>
      <point x="340.122" y="121.477"/>
      <point x="400" y="121.548"/>
      <point x="400" y="162" type="curve" smooth="yes"/>
      <point x="400.004" y="202.128" type="line" smooth="yes"/>
      <point x="400.004" y="233.327"/>
      <point x="393.873" y="258.737"/>
      <point x="351" y="276" type="curve"/>
      <point x="448.224" y="354.096" type="line"/>
      <point x="511.602" y="326.931"/>
      <point x="529" y="279.827"/>
      <point x="529" y="218" type="curve" smooth="yes"/>
      <point x="529" y="136" type="line" smooth="yes"/>
      <point x="529" y="2.60352"/>
      <point x="363.235" y="-52.7676"/>
      <point x="290" y="36" type="curve"/>
      <point x="229.787" y="-51.9111"/>
      <point x="64.9819" y="8.54395"/>
      <point x="65" y="106" type="curve" smooth="yes"/>
      <point x="65.0029" y="121.756" type="line" smooth="yes"/>
      <point x="65.0029" y="141.945"/>
      <point x="64.3154" y="161.906"/>
      <point x="41.2734" y="161.906" type="curve" smooth="yes"/>
      <point x="37.9902" y="161.906"/>
      <point x="34.2529" y="161.3"/>
    </contour>
    <contour>
      <point x="30" y="160" type="line"/>
      <point x="30" y="259" type="line"/>
      <point x="301" y="480" type="line"/>
      <point x="455.717" y="639.302"/>
      <point x="770" y="601.89"/>
      <point x="770" y="321" type="curve" smooth="yes"/>
      <point x="770" y="205" type="line" smooth="yes"/>
      <point x="769.58" y="88.7373"/>
      <point x="713.296" y="-1"/>
      <point x="574" y="-1" type="curve"/>
      <point x="574" y="142" type="line"/>
      <point x="626.112" y="142"/>
      <point x="630" y="180.959"/>
      <point x="630" y="205" type="curve" smooth="yes"/>
      <point x="630" y="307" type="line" smooth="yes"/>
      <point x="630" y="416.045"/>
      <point x="509" y="475"/>
      <point x="425" y="400" type="curve"/>
      <point x="155" y="181.392" type="line"/>
    </contour>
  </outline>
</glyph>
<glyph name="si_Kha" format="1">
  <advance width="625"/>
  <unicode hex="0D9B"/>
  <outline>
    <contour>
      <point x="46" y="566" type="curve"/>
      <point x="183" y="530" type="line"/>
      <point x="183" y="595.735"/>
      <point x="222.259" y="616.5"/>
      <point x="262.667" y="616.5" type="curve"/>
      <point x="273" y="616.5" type="line"/>
      <point x="273" y="755" type="line"/>
      <point x="262.667" y="755" type="line"/>
      <point x="156.127" y="755"/>
      <point x="46" y="672.126"/>
    </contour>
    <contour>
      <point x="260" y="134" type="curve" smooth="yes"/>
      <point x="260" y="222" type="line"/>
      <point x="395" y="222" type="line"/>
      <point x="395" y="176" type="line" smooth="yes"/>
      <point x="395" y="134.094"/>
      <point x="455" y="135"/>
      <point x="455" y="176" type="curve" smooth="yes"/>
      <point x="455" y="500" type="line" smooth="yes"/>
      <point x="455" y="579"/>
      <point x="438.252" y="616"/>
      <point x="360" y="616" type="curve"/>
      <point x="329" y="616" type="line"/>
      <point x="329" y="755" type="line"/>
      <point x="360" y="755" type="line"/>
      <point x="494.272" y="755"/>
      <point x="595" y="699"/>
      <point x="595" y="500" type="curve" smooth="yes"/>
      <point x="595" y="199" type="line" smooth="yes"/>
      <point x="595" y="-119"/>
      <point x="260" y="-8.84082"/>
    </contour>
    <contour>
      <point x="30" y="189" type="curve" smooth="yes"/>
      <point x="30" y="273" type="line" smooth="yes"/>
      <point x="30" y="511.395"/>
      <point x="395" y="503.046"/>
      <point x="395" y="300" type="curve" smooth="yes"/>
      <point x="395" y="-65" type="line"/>
      <point x="260" y="-65" type="line"/>
      <point x="260" y="8" type="line"/>
      <point x="260" y="261" type="line" smooth="yes"/>
      <point x="260" y="331.478"/>
      <point x="165" y="329.174"/>
      <point x="165" y="261" type="curve" smooth="yes"/>
      <point x="165" y="202" type="line" smooth="yes"/>
      <point x="165" y="166"/>
      <point x="169.264" y="140"/>
      <point x="214" y="140" type="curve"/>
      <point x="214" y="0" type="line"/>
      <point x="62" y="0"/>
      <point x="30" y="92"/>
    </contour>
  </outline>
</glyph>
<glyph name="si_Nga" format="1">
  <advance width="593"/>
  <unicode hex="0D9E"/>
  <outline>
    <contour>
      <point x="212" y="-8" type="curve" smooth="yes"/>
      <point x="105.004" y="-8"/>
      <point x="30" y="58"/>
      <point x="30" y="160" type="curve" smooth="yes"/>
      <point x="29.999" y="196.926" type="line" smooth="yes"/>
      <point x="29.9968" y="278.692"/>
      <point x="32" y="351"/>
      <point x="168" y="351" type="curve"/>
      <point x="214" y="351" type="line"/>
      <point x="214" y="251" type="line"/>
      <point x="200.667" y="251" type="line"/>
      <point x="181.667" y="251"/>
      <point x="168" y="242"/>
      <point x="168" y="217" type="curve" smooth="yes"/>
      <point x="168" y="166" type="line" smooth="yes"/>
      <point x="168" y="154"/>
      <point x="177" y="132"/>
      <point x="207" y="132" type="curve" smooth="yes"/>
      <point x="237" y="132"/>
      <point x="245" y="152.875"/>
      <point x="245" y="166" type="curve" smooth="yes"/>
      <point x="245" y="202" type="line"/>
      <point x="345" y="202" type="line"/>
      <point x="345" y="166" type="line" smooth="yes"/>
      <point x="345" y="152.875"/>
      <point x="353" y="132"/>
      <point x="383" y="132" type="curve" smooth="yes"/>
      <point x="413" y="132"/>
      <point x="422" y="154"/>
      <point x="422" y="166" type="curve" smooth="yes"/>
      <point x="422" y="200" type="line"/>
      <point x="563" y="200" type="line"/>
      <point x="563" y="160" type="line" smooth="yes"/>
      <point x="563" y="58"/>
      <point x="496.381" y="-8"/>
      <point x="404" y="-8" type="curve" smooth="yes"/>
      <point x="370.151" y="-8"/>
      <point x="328.925" y="3.4668"/>
      <point x="300" y="35" type="curve"/>
      <point x="276.108" y="3.4668"/>
      <point x="239.959" y="-8"/>
    </contour>
    <contour>
      <point x="53" y="374" type="line" smooth="yes"/>
      <point x="53" y="435.527"/>
      <point x="93.2119" y="497"/>
      <point x="173" y="497" type="curve"/>
      <point x="238" y="497" type="line"/>
      <point x="317.788" y="497"/>
      <point x="357.737" y="435.443"/>
      <point x="357.737" y="373.916" type="curve" smooth="yes"/>
      <point x="357.737" y="312.443"/>
      <point x="317.861" y="251"/>
      <point x="238" y="251" type="curve"/>
      <point x="214" y="251" type="line"/>
      <point x="214" y="351" type="line"/>
      <point x="229" y="351" type="line" smooth="yes"/>
      <point x="244.49" y="351"/>
      <point x="252.355" y="362.616"/>
      <point x="252.355" y="374.174" type="curve" smooth="yes"/>
      <point x="252.355" y="385.616"/>
      <point x="244.647" y="397"/>
      <point x="229" y="397" type="curve" smooth="yes"/>
      <point x="174" y="397" type="line"/>
      <point x="158.363" y="397"/>
      <point x="151" y="385.399"/>
      <point x="151" y="374" type="curve" smooth="yes"/>
    </contour>
    <contour>
      <point x="422" y="200" type="line"/>
      <point x="422" y="498" type="line" smooth="yes"/>
      <point x="422" y="583.359"/>
      <point x="402.933" y="616"/>
      <point x="319" y="616" type="curve"/>
      <point x="319" y="755" type="line"/>
      <point x="459.563" y="755"/>
      <point x="563" y="705.515"/>
      <point x="563" y="520" type="curve" smooth="yes"/>
      <point x="563" y="200" type="line"/>
    </contour>
    <contour>
      <point x="36" y="566" type="line"/>
      <point x="36" y="677.93"/>
      <point x="149.967" y="755"/>
      <point x="263" y="755" type="curve"/>
      <point x="263" y="616.5" type="line"/>
      <point x="214.963" y="616.5"/>
      <point x="173" y="601.568"/>
      <point x="173" y="530" type="curve"/>
    </contour>
  </outline>
</glyph>
<glyph name="si_Ca" format="1">
  <advance width="604"/>
  <unicode hex="0DA0"/>
  <outline>
    <contour>
      <point x="283" y="-5" type="line"/>
      <point x="155.558" y="-5"/>
      <point x="69" y="87.2324"/>
      <point x="69" y="192" type="curve" smooth="yes"/>
      <point x="69" y="212.029"/>
      <point x="70.5162" y="233.24"/>
      <point x="80.3096" y="252" type="curve"/>
      <point x="30" y="252" type="line"/>
      <point x="30" y="354" type="line"/>
      <point x="247" y="354" type="line"/>
      <point x="247" y="360" type="line"/>
      <point x="247.053" y="389.333"/>
      <point x="225.721" y="400"/>
      <point x="205" y="400" type="curve" smooth="yes"/>
      <point x="195.147" y="400"/>
      <point x="169.971" y="397"/>
      <point x="165" y="376" type="curve"/>
      <point x="66" y="402" type="line"/>
      <point x="92.4043" y="489.737"/>
      <point x="168.592" y="503"/>
      <point x="205" y="503" type="curve" smooth="yes"/>
      <point x="248.907" y="503"/>
      <point x="293.606" y="486.114"/>
      <point x="317" y="459" type="curve" smooth="yes"/>
      <point x="340.371" y="431.912"/>
      <point x="350" y="406"/>
      <point x="350" y="350" type="curve" smooth="yes"/>
      <point x="350" y="252" type="line"/>
      <point x="266" y="252" type="line" smooth="yes"/>
      <point x="228.72" y="252"/>
      <point x="207.981" y="224.45"/>
      <point x="207.981" y="196.088" type="curve" smooth="yes"/>
      <point x="207.981" y="166.001"/>
      <point x="231.318" y="135"/>
      <point x="283" y="135" type="curve"/>
    </contour>
    <contour>
      <point x="339" y="-5" type="curve"/>
      <point x="339" y="135" type="line"/>
      <point x="381.411" y="135"/>
      <point x="434" y="149.137"/>
      <point x="434" y="250" type="curve" smooth="yes"/>
      <point x="434" y="498" type="line" smooth="yes"/>
      <point x="434" y="577"/>
      <point x="417.252" y="616"/>
      <point x="339" y="616" type="curve"/>
      <point x="339" y="755" type="line"/>
      <point x="473.273" y="755"/>
      <point x="574" y="699.969"/>
      <point x="574" y="520" type="curve" smooth="yes"/>
      <point x="574" y="250" type="line" smooth="yes"/>
      <point x="574" y="78.4932"/>
      <point x="493.968" y="-4.83398"/>
    </contour>
    <contour>
      <point x="203.333" y="530" type="curve"/>
      <point x="66.333" y="566" type="line"/>
      <point x="66.333" y="672.126"/>
      <point x="176.46" y="755"/>
      <point x="283" y="755" type="curve"/>
      <point x="283" y="616.5" type="line"/>
      <point x="242.591" y="616.5"/>
      <point x="203.333" y="595.735"/>
    </contour>
  </outline>
</glyph>
<glyph name="si_Cha" format="1">
  <advance width="655"/>
  <unicode hex="0DA1"/>
  <outline>
    <contour>
      <point x="289" y="-12" type="line" smooth="yes"/>
      <point x="112" y="-12"/>
      <point x="34" y="59.2461"/>
      <point x="34" y="202" type="curve"/>
      <point x="174" y="202" type="line"/>
      <point x="174" y="148.801"/>
      <point x="215" y="123"/>
      <point x="278" y="123" type="curve" smooth="yes"/>
      <point x="350" y="123" type="line" smooth="yes"/>
      <point x="415" y="123"/>
      <point x="454" y="151"/>
      <point x="454" y="202" type="curve"/>
      <point x="454" y="236" type="line"/>
      <point x="417" y="235" type="line" smooth="yes"/>
      <point x="315" y="235"/>
      <point x="250" y="310"/>
      <point x="250" y="402" type="curve" smooth="yes"/>
      <point x="250" y="494"/>
      <point x="325" y="569"/>
      <point x="418" y="569" type="curve" smooth="yes"/>
      <point x="510" y="569"/>
      <point x="585" y="494"/>
      <point x="585" y="402" type="curve" smooth="yes"/>
      <point x="461" y="402" type="line" smooth="yes"/>
      <point x="461" y="425.143"/>
      <point x="442.143" y="444"/>
      <point x="419" y="444" type="curve" smooth="yes"/>
      <point x="395.857" y="444"/>
      <point x="377" y="425.143"/>
      <point x="377" y="402" type="curve" smooth="yes"/>
      <point x="377" y="378.857"/>
      <point x="395.857" y="360"/>
      <point x="419" y="360" type="curve" smooth="yes"/>
      <point x="434.094" y="360"/>
      <point x="447.706" y="360"/>
      <point x="496" y="360" type="curve"/>
      <point x="574.321" y="360"/>
      <point x="594" y="316.097"/>
      <point x="594" y="262" type="curve"/>
      <point x="594" y="202" type="line"/>
      <point x="594" y="64"/>
      <point x="511" y="-12"/>
      <point x="342" y="-12" type="curve" smooth="yes"/>
    </contour>
    <contour>
      <point x="35" y="251" type="line"/>
      <point x="35" y="373"/>
      <point x="101" y="402"/>
      <point x="198" y="402" type="curve" smooth="yes"/>
      <point x="250" y="402" type="line"/>
      <point x="250" y="441.891"/>
      <point x="210.331" y="451"/>
      <point x="195" y="451" type="curve" smooth="yes"/>
      <point x="167.217" y="451"/>
      <point x="152.416" y="436"/>
      <point x="148" y="421" type="curve"/>
      <point x="30" y="460" type="line"/>
      <point x="54.046" y="536.591"/>
      <point x="121.808" y="574.548"/>
      <point x="193.252" y="574.548" type="curve" smooth="yes"/>
      <point x="250.006" y="574.548"/>
      <point x="298.193" y="557.298"/>
      <point x="332.192" y="512.23" type="curve" smooth="yes"/>
      <point x="366.19" y="467.161"/>
      <point x="386" y="394.274"/>
      <point x="386" y="283" type="curve"/>
      <point x="209" y="283" type="line" smooth="yes"/>
      <point x="176.097" y="283"/>
      <point x="174.001" y="262.104"/>
      <point x="174" y="251" type="curve"/>
    </contour>
    <contour>
      <point x="438" y="470" type="line"/>
      <point x="304" y="522" type="line"/>
      <point x="509.721" y="793" type="line"/>
      <point x="655" y="755" type="line"/>
    </contour>
  </outline>
</glyph>
<glyph name="si_Ja" format="1">
  <advance width="626"/>
  <unicode hex="0DA2"/>
  <outline>
    <contour>
      <point x="30" y="460" type="line"/>
      <point x="54.0459" y="536.591"/>
      <point x="121.808" y="574.548"/>
      <point x="193.252" y="574.548" type="curve" smooth="yes"/>
      <point x="234.893" y="574.548"/>
      <point x="277.783" y="561.654"/>
      <point x="314" y="536" type="curve"/>
      <point x="350.253" y="561.681"/>
      <point x="393.124" y="574.564"/>
      <point x="434.729" y="574.564" type="curve" smooth="yes"/>
      <point x="506.221" y="574.564"/>
      <point x="573.975" y="536.524"/>
      <point x="598" y="460" type="curve"/>
      <point x="480" y="421" type="line"/>
      <point x="475.584" y="436"/>
      <point x="460.783" y="451"/>
      <point x="433" y="451" type="curve" smooth="yes"/>
      <point x="417.669" y="451"/>
      <point x="378" y="443.165"/>
      <point x="378" y="397" type="curve"/>
      <point x="378" y="378" type="line"/>
      <point x="250" y="378" type="line"/>
      <point x="250" y="397" type="line"/>
      <point x="250" y="443.165"/>
      <point x="210.331" y="451"/>
      <point x="195" y="451" type="curve" smooth="yes"/>
      <point x="167.217" y="451"/>
      <point x="152.416" y="436"/>
      <point x="148" y="421" type="curve"/>
    </contour>
    <contour>
      <point x="289" y="-12" type="line" smooth="yes"/>
      <point x="112" y="-12"/>
      <point x="34" y="59.2461"/>
      <point x="34" y="202" type="curve"/>
      <point x="174" y="202" type="line"/>
      <point x="174" y="148.801"/>
      <point x="215" y="123"/>
      <point x="278" y="123" type="curve" smooth="yes"/>
      <point x="350" y="123" type="line" smooth="yes"/>
      <point x="415" y="123"/>
      <point x="454" y="151"/>
      <point x="454" y="202" type="curve"/>
      <point x="594" y="202" type="line"/>
      <point x="594" y="64"/>
      <point x="511" y="-12"/>
      <point x="342" y="-12" type="curve" smooth="yes"/>
    </contour>
    <contour>
      <point x="35" y="251" type="line"/>
      <point x="35" y="373"/>
      <point x="101" y="402"/>
      <point x="198" y="402" type="curve" smooth="yes"/>
      <point x="423" y="402" type="line" smooth="yes"/>
      <point x="531" y="402"/>
      <point x="594" y="377"/>
      <point x="594" y="251" type="curve"/>
      <point x="455" y="251" type="line"/>
      <point x="455" y="263"/>
      <point x="455" y="283"/>
      <point x="426" y="283" type="curve" smooth="yes"/>
      <point x="209" y="283" type="line" smooth="yes"/>
      <point x="175.738" y="283"/>
      <point x="174.001" y="262.104"/>
      <point x="174" y="251" type="curve"/>
    </contour>
    <contour>
      <point x="302" y="522" type="line"/>
      <point x="507.721" y="793" type="line"/>
      <point x="653" y="755" type="line"/>
      <point x="436" y="470" type="line"/>
    </contour>
  </outline>
</glyph>
<glyph name="si_Nya" format="1">
  <advance width="1138"/>
  <unicode hex="0DA4"/>
  <outline>
    <contour>
      <point x="30" y="197" type="curve" smooth="yes"/>
      <point x="30" y="287" type="line" smooth="yes"/>
      <point x="30" y="502"/>
      <point x="184" y="585"/>
      <point x="304" y="544" type="curve" smooth="yes"/>
      <point x="326" y="533" type="line"/>
      <point x="326" y="402" type="line"/>
      <point x="290" y="413" type="line" smooth="yes"/>
      <point x="250" y="426"/>
      <point x="166" y="436"/>
      <point x="166" y="287" type="curve" smooth="yes"/>
      <point x="166" y="197" type="line" smooth="yes"/>
      <point x="166" y="116.436"/>
      <point x="176.558" y="75.5967"/>
      <point x="241" y="-1" type="curve"/>
      <point x="111.039" y="-41" type="line"/>
      <point x="51.3975" y="36.1836"/>
      <point x="30" y="106.444"/>
    </contour>
    <contour>
      <point x="209" y="439" type="line"/>
      <point x="223" y="537"/>
      <point x="315.521" y="567"/>
      <point x="377" y="567" type="curve" smooth="yes"/>
      <point x="449.694" y="567"/>
      <point x="499" y="533"/>
      <point x="516" y="502" type="curve"/>
      <point x="424" y="402" type="line"/>
      <point x="424" y="437"/>
      <point x="393.169" y="446"/>
      <point x="377" y="446" type="curve" smooth="yes"/>
      <point x="343.069" y="446"/>
      <point x="326" y="422.741"/>
      <point x="326" y="402" type="curve"/>
    </contour>
    <contour>
      <point x="209" y="160" type="curve"/>
      <point x="326" y="255" type="line"/>
      <point x="344.91" y="239.066"/>
      <point x="359.861" y="220.713"/>
      <point x="359.88" y="202" type="curve"/>
      <point x="360" y="160" type="line" smooth="yes"/>
      <point x="360.107" y="122.479"/>
      <point x="419" y="122.546"/>
      <point x="419" y="160" type="curve" smooth="yes"/>
      <point x="419" y="202" type="line"/>
      <point x="518.88" y="202" type="line"/>
      <point x="519" y="162" type="line" smooth="yes"/>
      <point x="519.122" y="121.477"/>
      <point x="579" y="121.548"/>
      <point x="579" y="162" type="curve" smooth="yes"/>
      <point x="579.004" y="202.128" type="line" smooth="yes"/>
      <point x="579.004" y="233.327"/>
      <point x="572.873" y="258.736"/>
      <point x="530" y="276" type="curve"/>
      <point x="627.224" y="354.096" type="line"/>
      <point x="690.602" y="326.931"/>
      <point x="708" y="279.827"/>
      <point x="708" y="218" type="curve" smooth="yes"/>
      <point x="708" y="136" type="line" smooth="yes"/>
      <point x="708" y="2.60352"/>
      <point x="542.235" y="-52.7676"/>
      <point x="469" y="36" type="curve"/>
      <point x="408.787" y="-51.9111"/>
      <point x="243.981" y="8.54395"/>
      <point x="244" y="106" type="curve" smooth="yes"/>
      <point x="244.003" y="121.756" type="line" smooth="yes"/>
      <point x="244.003" y="141.945"/>
      <point x="243.315" y="161.906"/>
      <point x="220.273" y="161.906" type="curve" smooth="yes"/>
      <point x="216.99" y="161.906"/>
      <point x="213.253" y="161.3"/>
    </contour>
    <contour>
      <point x="209" y="160" type="line"/>
      <point x="209" y="259" type="line"/>
      <point x="510" y="504" type="line"/>
      <point x="577.472" y="559.472"/>
      <point x="634.032" y="593.11"/>
      <point x="741" y="593.118" type="curve"/>
      <point x="741" y="462.197" type="line"/>
      <point x="679.073" y="462.351"/>
      <point x="640.832" y="429.886"/>
      <point x="604" y="400" type="curve"/>
      <point x="334" y="181.392" type="line"/>
    </contour>
    <contour>
      <point x="648" y="197" type="curve" smooth="yes"/>
      <point x="648" y="333.29"/>
      <point x="741" y="397"/>
      <point x="874" y="397" type="curve" smooth="yes"/>
      <point x="918" y="397" type="line"/>
      <point x="918" y="459"/>
      <point x="846" y="462"/>
      <point x="796" y="462.396" type="curve"/>
      <point x="796" y="592.392" type="line"/>
      <point x="932" y="592"/>
      <point x="1061" y="553"/>
      <point x="1061" y="397" type="curve"/>
      <point x="1061" y="262" type="line"/>
      <point x="874" y="262" type="line" smooth="yes"/>
      <point x="835" y="262"/>
      <point x="791" y="256.19"/>
      <point x="791" y="197" type="curve"/>
      <point x="791" y="145"/>
      <point x="838" y="135"/>
      <point x="875" y="135" type="curve" smooth="yes"/>
      <point x="875" y="-1" type="line" smooth="yes"/>
      <point x="755" y="-1"/>
      <point x="648" y="58.3916"/>
    </contour>
    <contour>
      <point x="912" y="-1" type="curve"/>
      <point x="912" y="135" type="line"/>
      <point x="944.728" y="135"/>
      <point x="974" y="139"/>
      <point x="987" y="171" type="curve"/>
      <point x="1115" y="137" type="line"/>
      <point x="1090" y="51"/>
      <point x="1004.83" y="-0.868164"/>
    </contour>
    <contour>
      <point x="875" y="-1" type="line"/>
      <point x="875" y="135" type="line"/>
      <point x="912" y="135" type="line"/>
      <point x="912" y="-1" type="line"/>
    </contour>
    <contour>
      <point x="799" y="-46" type="line"/>
      <point x="799" y="-137.261"/>
      <point x="865.999" y="-205"/>
      <point x="985" y="-205" type="curve" smooth="yes"/>
      <point x="1090.5" y="-205"/>
      <point x="1146.12" y="-149.451"/>
      <point x="1168" y="-82" type="curve"/>
      <point x="1035" y="-48" type="line"/>
      <point x="1029.83" y="-68.3711"/>
      <point x="1005.69" y="-79"/>
      <point x="985" y="-79" type="curve" smooth="yes"/>
      <point x="956.289" y="-79"/>
      <point x="936" y="-62.1494"/>
      <point x="936" y="-46" type="curve"/>
    </contour>
  </outline>
</glyph>
<glyph name="si_Ndja" format="1">
  <advance width="801"/>
  <unicode hex="0DA6"/>
  <outline>
    <contour>
      <point x="106.039" y="-41" type="line"/>
      <point x="46.3975" y="36.1836"/>
      <point x="30" y="101.444"/>
      <point x="30" y="192" type="curve" smooth="yes"/>
      <point x="30" y="332" type="line" smooth="yes"/>
      <point x="30" y="467.37"/>
      <point x="124.233" y="571.777"/>
      <point x="244.776" y="571.777" type="curve" smooth="yes"/>
      <point x="271.161" y="571.777"/>
      <point x="353.996" y="569.498"/>
      <point x="321" y="553" type="curve"/>
      <point x="321" y="422" type="line"/>
      <point x="286.747" y="433.914"/>
      <point x="270.764" y="437.365"/>
      <point x="253.785" y="437.365" type="curve" smooth="yes"/>
      <point x="210.828" y="437.365"/>
      <point x="161" y="413.791"/>
      <point x="161" y="307" type="curve" smooth="yes"/>
      <point x="161" y="197" type="line" smooth="yes"/>
      <point x="161" y="116.436"/>
      <point x="171.558" y="75.5967"/>
      <point x="236" y="-1" type="curve"/>
    </contour>
    <component base="si_Ja" xOffset="175"/>
  </outline>
</glyph>
<glyph name="si_Tta" format="1">
  <advance width="558"/>
  <unicode hex="0DA7"/>
  <outline>
    <contour>
      <point x="29.999" y="261.926" type="line" smooth="yes"/>
      <point x="29.999" y="343.693"/>
      <point x="44.667" y="474"/>
      <point x="240.667" y="474" type="curve"/>
      <point x="240.667" y="336" type="line"/>
      <point x="200.667" y="336"/>
      <point x="168" y="322"/>
      <point x="168" y="262" type="curve" smooth="yes"/>
      <point x="168" y="222" type="line" smooth="yes"/>
      <point x="168" y="182.58"/>
      <point x="189" y="135"/>
      <point x="240.667" y="135" type="curve"/>
      <point x="240.667" y="-5" type="line"/>
      <point x="96.667" y="-5"/>
      <point x="30" y="116.58"/>
      <point x="30" y="208" type="curve" smooth="yes"/>
    </contour>
    <contour>
      <point x="297" y="-5" type="curve"/>
      <point x="297" y="135" type="line"/>
      <point x="346.555" y="135"/>
      <point x="388" y="148.602"/>
      <point x="388" y="248" type="curve" smooth="yes"/>
      <point x="388" y="508" type="line" smooth="yes"/>
      <point x="388" y="603"/>
      <point x="346.555" y="616"/>
      <point x="297" y="616" type="curve"/>
      <point x="297" y="755" type="line"/>
      <point x="456.408" y="755"/>
      <point x="528" y="678"/>
      <point x="528" y="520" type="curve" smooth="yes"/>
      <point x="528" y="237" type="line" smooth="yes"/>
      <point x="528" y="138"/>
      <point x="493" y="-5"/>
    </contour>
    <contour>
      <point x="30" y="566" type="line"/>
      <point x="30" y="672.126"/>
      <point x="137.077" y="755"/>
      <point x="240.667" y="755" type="curve"/>
      <point x="240.667" y="616.5" type="line"/>
      <point x="203.302" y="616.5"/>
      <point x="167" y="595.735"/>
      <point x="167" y="530" type="curve"/>
    </contour>
  </outline>
</glyph>
<glyph name="si_Nna" format="1">
  <advance width="1017"/>
  <unicode hex="0DAB"/>
  <outline>
    <contour>
      <point x="0" y="26" type="line"/>
      <point x="18.2471" y="76.4678"/>
      <point x="73" y="159"/>
      <point x="166" y="159" type="curve" smooth="yes"/>
      <point x="220.287" y="159"/>
      <point x="273.202" y="139.727"/>
      <point x="313.302" y="139.727" type="curve" smooth="yes"/>
      <point x="355.871" y="139.727"/>
      <point x="384" y="153.446"/>
      <point x="384" y="243" type="curve" smooth="yes"/>
      <point x="384" y="343" type="line" smooth="yes"/>
      <point x="384" y="401.834"/>
      <point x="378.322" y="474"/>
      <point x="283" y="474" type="curve" smooth="yes"/>
      <point x="225.17" y="474"/>
      <point x="197.708" y="435.68"/>
      <point x="197.708" y="399.426" type="curve" smooth="yes"/>
      <point x="197.708" y="366.881"/>
      <point x="219.839" y="336"/>
      <point x="262" y="336" type="curve" smooth="yes"/>
      <point x="282.513" y="336"/>
      <point x="302" y="336"/>
      <point x="318" y="336" type="curve"/>
      <point x="318" y="202" type="line"/>
      <point x="308" y="202"/>
      <point x="267.156" y="201.959"/>
      <point x="241.25" y="201.959" type="curve" smooth="yes"/>
      <point x="144.378" y="201.959"/>
      <point x="61" y="275.274"/>
      <point x="61" y="398" type="curve" smooth="yes"/>
      <point x="61" y="535"/>
      <point x="173" y="606"/>
      <point x="283" y="606" type="curve" smooth="yes"/>
      <point x="493.698" y="606"/>
      <point x="515.075" y="470.731"/>
      <point x="515.075" y="343" type="curve" smooth="yes"/>
      <point x="515.075" y="328.861"/>
      <point x="515" y="261.315"/>
      <point x="515" y="243" type="curve" smooth="yes"/>
      <point x="515" y="95"/>
      <point x="460" y="0"/>
      <point x="342" y="0" type="curve" smooth="yes"/>
      <point x="299" y="0"/>
      <point x="236" y="27"/>
      <point x="191" y="27" type="curve" smooth="yes"/>
      <point x="146" y="27"/>
      <point x="134" y="-8"/>
      <point x="134" y="-8" type="curve"/>
    </contour>
    <contour>
      <point x="640" y="251" type="line"/>
      <point x="641" y="350" type="line"/>
      <point x="641" y="404"/>
      <point x="622.025" y="421"/>
      <point x="602" y="421" type="curve" smooth="yes"/>
      <point x="576" y="421"/>
      <point x="573" y="412"/>
      <point x="569" y="407" type="curve"/>
      <point x="529" y="532" type="line"/>
      <point x="533" y="538"/>
      <point x="562" y="563"/>
      <point x="619" y="563" type="curve" smooth="yes"/>
      <point x="664" y="563"/>
      <point x="694" y="543"/>
      <point x="713" y="522" type="curve"/>
      <point x="734" y="543"/>
      <point x="769" y="563"/>
      <point x="822" y="563" type="curve" smooth="yes"/>
      <point x="920.132" y="563"/>
      <point x="986.301" y="512.605"/>
      <point x="987" y="405" type="curve" smooth="yes"/>
      <point x="987" y="251" type="line"/>
      <point x="848" y="251" type="line"/>
      <point x="848" y="372" type="line" smooth="yes"/>
      <point x="848" y="397"/>
      <point x="845" y="420"/>
      <point x="812" y="420" type="curve" smooth="yes"/>
      <point x="781.983" y="420"/>
      <point x="775" y="396.998"/>
      <point x="775" y="372" type="curve" smooth="yes"/>
      <point x="775" y="251" type="line"/>
    </contour>
    <contour>
      <point x="550" y="164" type="curve" smooth="yes"/>
      <point x="550" y="202" type="line"/>
      <point x="690" y="202" type="line"/>
      <point x="690" y="187" type="line" smooth="yes"/>
      <point x="690" y="141"/>
      <point x="734" y="126"/>
      <point x="767" y="126" type="curve" smooth="yes"/>
      <point x="802" y="126"/>
      <point x="848" y="136"/>
      <point x="848" y="185" type="curve" smooth="yes"/>
      <point x="848" y="202" type="line"/>
      <point x="987" y="202" type="line"/>
      <point x="987" y="181" type="line" smooth="yes"/>
      <point x="987" y="56"/>
      <point x="885" y="-6"/>
      <point x="768" y="-6" type="curve" smooth="yes"/>
      <point x="623" y="-6"/>
      <point x="550" y="69"/>
    </contour>
    <contour>
      <point x="290" y="522" type="line"/>
      <point x="495.721" y="793" type="line"/>
      <point x="641" y="755" type="line"/>
      <point x="396" y="433" type="line"/>
    </contour>
  </outline>
</glyph>
<glyph name="si_Nndda" format="1">
  <advance width="789"/>
  <unicode hex="0DAC"/>
  <outline>
    <contour>
      <point x="408" y="-8" type="curve" smooth="yes"/>
      <point x="302.768" y="-8"/>
      <point x="229" y="58"/>
      <point x="229" y="160" type="curve" smooth="yes"/>
      <point x="229" y="199" type="line"/>
      <point x="229" y="206"/>
      <point x="229" y="226"/>
      <point x="237" y="231" type="curve"/>
      <point x="207" y="231" type="line"/>
      <point x="207" y="333" type="line"/>
      <point x="423" y="333" type="line"/>
      <point x="423" y="368.055"/>
      <point x="395.028" y="385"/>
      <point x="372" y="385" type="curve" smooth="yes"/>
      <point x="356.974" y="385"/>
      <point x="330.582" y="384"/>
      <point x="316" y="361" type="curve"/>
      <point x="217" y="401" type="line"/>
      <point x="245.494" y="488.737"/>
      <point x="332.711" y="502"/>
      <point x="372" y="502" type="curve" smooth="yes"/>
      <point x="496.97" y="502"/>
      <point x="541" y="412.605"/>
      <point x="541" y="329" type="curve" smooth="yes"/>
      <point x="541" y="231" type="line"/>
      <point x="399" y="231" type="line"/>
      <point x="368.475" y="231"/>
      <point x="364" y="211"/>
      <point x="364" y="199" type="curve"/>
      <point x="364" y="166" type="line" smooth="yes"/>
      <point x="364" y="154"/>
      <point x="373" y="132"/>
      <point x="403" y="132" type="curve" smooth="yes"/>
      <point x="433" y="132"/>
      <point x="441" y="152.875"/>
      <point x="441" y="166" type="curve" smooth="yes"/>
      <point x="441" y="202" type="line"/>
      <point x="541" y="202" type="line"/>
      <point x="541" y="166" type="line" smooth="yes"/>
      <point x="541" y="152.875"/>
      <point x="549" y="132"/>
      <point x="579" y="132" type="curve" smooth="yes"/>
      <point x="609" y="132"/>
      <point x="618" y="154"/>
      <point x="618" y="166" type="curve" smooth="yes"/>
      <point x="618" y="202" type="line"/>
      <point x="759" y="202" type="line"/>
      <point x="759" y="160" type="line" smooth="yes"/>
      <point x="759" y="58"/>
      <point x="692.381" y="-8"/>
      <point x="600" y="-8" type="curve" smooth="yes"/>
      <point x="566.151" y="-8"/>
      <point x="524.925" y="3.4668"/>
      <point x="496" y="35" type="curve"/>
      <point x="472.108" y="3.4668"/>
      <point x="435.959" y="-8"/>
    </contour>
    <contour>
      <point x="103.039" y="-28" type="line"/>
      <point x="43.3975" y="49.1836"/>
      <point x="30" y="119.444"/>
      <point x="30" y="210" type="curve" smooth="yes"/>
      <point x="30" y="277" type="line" smooth="yes"/>
      <point x="30" y="415.323"/>
      <point x="128.995" y="505.4"/>
      <point x="241.245" y="505.4" type="curve" smooth="yes"/>
      <point x="265.828" y="505.4"/>
      <point x="291.046" y="501.08"/>
      <point x="316" y="492" type="curve"/>
      <point x="316" y="361" type="line"/>
      <point x="281.696" y="375.034"/>
      <point x="265.14" y="379.114"/>
      <point x="247.91" y="379.114" type="curve" smooth="yes"/>
      <point x="205.21" y="379.114"/>
      <point x="158" y="353.16"/>
      <point x="158" y="247" type="curve" smooth="yes"/>
      <point x="158" y="210" type="line" smooth="yes"/>
      <point x="158" y="129.436"/>
      <point x="168.558" y="88.5967"/>
      <point x="233" y="12" type="curve"/>
    </contour>
    <contour>
      <point x="618" y="202" type="line"/>
      <point x="618" y="498" type="line" smooth="yes"/>
      <point x="618" y="583.359"/>
      <point x="598.933" y="616"/>
      <point x="515" y="616" type="curve"/>
      <point x="515" y="755" type="line"/>
      <point x="655.563" y="755"/>
      <point x="759" y="705.515"/>
      <point x="759" y="520" type="curve" smooth="yes"/>
      <point x="759" y="202" type="line"/>
    </contour>
    <contour>
      <point x="232" y="566" type="line"/>
      <point x="232" y="677.93"/>
      <point x="345.967" y="755"/>
      <point x="459" y="755" type="curve"/>
      <point x="459" y="616.5" type="line"/>
      <point x="410.963" y="616.5"/>
      <point x="369" y="601.568"/>
      <point x="369" y="530" type="curve"/>
    </contour>
  </outline>
</glyph>
<glyph name="si_Ta" format="1">
  <advance width="771"/>
  <unicode hex="0DAD"/>
  <outline>
    <contour>
      <point x="37.2344" y="438.779" type="line"/>
      <point x="51.2344" y="536.779"/>
      <point x="143.756" y="566.779"/>
      <point x="205.234" y="566.779" type="curve" smooth="yes"/>
      <point x="273.745" y="566.779"/>
      <point x="337.234" y="523.779"/>
      <point x="344.234" y="506.779" type="curve"/>
      <point x="252.234" y="401.779" type="line"/>
      <point x="252.234" y="436.779"/>
      <point x="221.403" y="445.779"/>
      <point x="205.234" y="445.779" type="curve" smooth="yes"/>
      <point x="171.304" y="445.779"/>
      <point x="154.234" y="422.521"/>
      <point x="154.234" y="401.779" type="curve"/>
    </contour>
    <contour>
      <point x="30.2344" y="153.779" type="line"/>
      <point x="30.2344" y="258.779" type="line"/>
      <point x="301.234" y="479.779" type="line" smooth="yes"/>
      <point x="363" y="530"/>
      <point x="411.553" y="568.273"/>
      <point x="501.888" y="568.273" type="curve" smooth="yes"/>
      <point x="624.126" y="568.273"/>
      <point x="740.234" y="484.681"/>
      <point x="740.234" y="320.779" type="curve" smooth="yes"/>
      <point x="740.234" y="204.779" type="line" smooth="yes"/>
      <point x="739.814" y="88.5166"/>
      <point x="683.53" y="-1.2207"/>
      <point x="544.234" y="-1.2207" type="curve"/>
      <point x="544.234" y="141.779" type="line"/>
      <point x="596.347" y="141.779"/>
      <point x="600.234" y="180.738"/>
      <point x="600.234" y="204.779" type="curve" smooth="yes"/>
      <point x="600.234" y="306.779" type="line" smooth="yes"/>
      <point x="600.234" y="382.624"/>
      <point x="550.265" y="424.561"/>
      <point x="495.709" y="424.561" type="curve" smooth="yes"/>
      <point x="471.827" y="424.561"/>
      <point x="447.067" y="417.525"/>
      <point x="425.234" y="400.779" type="curve" smooth="yes"/>
      <point x="155.234" y="188.171" type="line"/>
    </contour>
    <contour>
      <point x="30.2344" y="153.779" type="curve"/>
      <point x="74.2344" y="248.779" type="line"/>
      <point x="87.8691" y="252.739"/>
      <point x="99.9103" y="254.511"/>
      <point x="110.663" y="254.511" type="curve" smooth="yes"/>
      <point x="201.821" y="254.511"/>
      <point x="200.38" y="127.22"/>
      <point x="292.271" y="127.22" type="curve" smooth="yes"/>
      <point x="335.114" y="127.22"/>
      <point x="372.774" y="154.372"/>
      <point x="372.774" y="194.3" type="curve" smooth="yes"/>
      <point x="372.774" y="219.891"/>
      <point x="362.271" y="244.211"/>
      <point x="324" y="260" type="curve"/>
      <point x="421.224" y="338.096" type="line"/>
      <point x="493" y="306.299"/>
      <point x="504.46" y="235.933"/>
      <point x="504.46" y="185.055" type="curve" smooth="yes"/>
      <point x="504.46" y="82.5752"/>
      <point x="427.353" y="-8"/>
      <point x="296" y="-8" type="curve" smooth="yes"/>
      <point x="234.065" y="-8"/>
      <point x="163.426" y="24.999"/>
      <point x="111.234" y="100.732" type="curve" smooth="yes"/>
      <point x="93.132" y="127"/>
      <point x="79.4881" y="156.151"/>
      <point x="47.243" y="156.151" type="curve" smooth="yes"/>
      <point x="42.0816" y="156.151"/>
      <point x="36.4436" y="155.404"/>
    </contour>
  </outline>
</glyph>
<glyph name="si_Dha" format="1">
  <advance width="593"/>
  <unicode hex="0DB0"/>
  <outline>
    <contour>
      <point x="212" y="-8" type="curve" smooth="yes"/>
      <point x="105.004" y="-8"/>
      <point x="30" y="58"/>
      <point x="30" y="160" type="curve" smooth="yes"/>
      <point x="29.999" y="261.926" type="line" smooth="yes"/>
      <point x="29.999" y="343.692"/>
      <point x="44.667" y="474"/>
      <point x="240.667" y="474" type="curve"/>
      <point x="263" y="474" type="line"/>
      <point x="263" y="336" type="line"/>
      <point x="240.667" y="336" type="line"/>
      <point x="200.667" y="336"/>
      <point x="168" y="322"/>
      <point x="168" y="262" type="curve" smooth="yes"/>
      <point x="168" y="166" type="line" smooth="yes"/>
      <point x="168" y="154"/>
      <point x="177" y="132"/>
      <point x="207" y="132" type="curve" smooth="yes"/>
      <point x="237" y="132"/>
      <point x="245" y="152.875"/>
      <point x="245" y="166" type="curve" smooth="yes"/>
      <point x="245" y="202" type="line"/>
      <point x="345" y="202" type="line"/>
      <point x="345" y="166" type="line" smooth="yes"/>
      <point x="345" y="152.875"/>
      <point x="353" y="132"/>
      <point x="383" y="132" type="curve" smooth="yes"/>
      <point x="413" y="132"/>
      <point x="422" y="154"/>
      <point x="422" y="166" type="curve" smooth="yes"/>
      <point x="422" y="202" type="line"/>
      <point x="563" y="202" type="line"/>
      <point x="563" y="160" type="line" smooth="yes"/>
      <point x="563" y="58"/>
      <point x="496.381" y="-8"/>
      <point x="404" y="-8" type="curve" smooth="yes"/>
      <point x="370.151" y="-8"/>
      <point x="328.925" y="3.4668"/>
      <point x="300" y="35" type="curve"/>
      <point x="276.108" y="3.4668"/>
      <point x="239.959" y="-8"/>
    </contour>
    <contour>
      <point x="422" y="202" type="line"/>
      <point x="422" y="498" type="line" smooth="yes"/>
      <point x="422" y="583.359"/>
      <point x="402.933" y="616"/>
      <point x="319" y="616" type="curve"/>
      <point x="319" y="755" type="line"/>
      <point x="459.563" y="755"/>
      <point x="563" y="705.515"/>
      <point x="563" y="520" type="curve" smooth="yes"/>
      <point x="563" y="202" type="line"/>
    </contour>
    <contour>
      <point x="36" y="566" type="line"/>
      <point x="36" y="677.93"/>
      <point x="149.967" y="755"/>
      <point x="263" y="755" type="curve"/>
      <point x="263" y="616.5" type="line"/>
      <point x="214.963" y="616.5"/>
      <point x="173" y="601.568"/>
      <point x="173" y="530" type="curve"/>
    </contour>
  </outline>
</glyph>
<glyph name="si_Nda" format="1">
  <advance width="712"/>
  <unicode hex="0DB3"/>
  <outline>
    <contour>
      <point x="30" y="209" type="curve" smooth="yes"/>
      <point x="30" y="294" type="line" smooth="yes"/>
      <point x="30" y="518.848"/>
      <point x="206.184" y="608.746"/>
      <point x="364" y="549.001" type="curve"/>
      <point x="364" y="420" type="line"/>
      <point x="293.551" y="448.179"/>
      <point x="166" y="446.052"/>
      <point x="166" y="294" type="curve" smooth="yes"/>
      <point x="166" y="209" type="line" smooth="yes"/>
      <point x="166" y="128.436"/>
      <point x="168.558" y="87.5967"/>
      <point x="233" y="11" type="curve"/>
      <point x="103.039" y="-29" type="line"/>
      <point x="43.3975" y="48.1836"/>
      <point x="30" y="118.444"/>
    </contour>
    <contour>
      <point x="486" y="0" type="curve"/>
      <point x="486" y="136" type="line"/>
      <point x="518.728" y="136"/>
      <point x="548" y="140"/>
      <point x="561" y="172" type="curve"/>
      <point x="689" y="138" type="line"/>
      <point x="664" y="52"/>
      <point x="578.826" y="0.131836"/>
    </contour>
    <contour>
      <point x="449" y="0" type="line"/>
      <point x="449" y="136" type="line"/>
      <point x="486" y="136" type="line"/>
      <point x="486" y="0" type="line"/>
    </contour>
    <contour>
      <point x="222" y="198" type="curve" smooth="yes"/>
      <point x="222" y="334.29"/>
      <point x="315.044" y="398"/>
      <point x="448" y="398" type="curve" smooth="yes"/>
      <point x="505" y="398" type="line"/>
      <point x="505" y="445.656"/>
      <point x="450.882" y="454"/>
      <point x="433" y="454" type="curve" smooth="yes"/>
      <point x="417.587" y="454"/>
      <point x="374.856" y="453.742"/>
      <point x="364" y="420" type="curve"/>
      <point x="241" y="468" type="line"/>
      <point x="276.903" y="550.873"/>
      <point x="354.709" y="575"/>
      <point x="433" y="575" type="curve" smooth="yes"/>
      <point x="542" y="575"/>
      <point x="635" y="520"/>
      <point x="635" y="385" type="curve"/>
      <point x="634" y="263" type="line"/>
      <point x="448" y="263" type="line" smooth="yes"/>
      <point x="409" y="263"/>
      <point x="365" y="257.19"/>
      <point x="365" y="198" type="curve"/>
      <point x="365" y="146"/>
      <point x="412" y="136"/>
      <point x="449" y="136" type="curve" smooth="yes"/>
      <point x="449" y="0" type="line" smooth="yes"/>
      <point x="329" y="0"/>
      <point x="222" y="59.3916"/>
    </contour>
    <contour>
      <point x="373" y="-45" type="line"/>
      <point x="373" y="-136.261"/>
      <point x="439.999" y="-204"/>
      <point x="559" y="-204" type="curve" smooth="yes"/>
      <point x="664.502" y="-204"/>
      <point x="720.119" y="-148.451"/>
      <point x="742" y="-81" type="curve"/>
      <point x="609" y="-47" type="line"/>
      <point x="603.827" y="-67.3711"/>
      <point x="579.689" y="-78"/>
      <point x="559" y="-78" type="curve" smooth="yes"/>
      <point x="530.289" y="-78"/>
      <point x="510" y="-61.1494"/>
      <point x="510" y="-45" type="curve"/>
    </contour>
  </outline>
</glyph>
<glyph name="si_Pha" format="1">
  <advance width="568"/>
  <unicode hex="0DB5"/>
  <outline>
    <contour>
      <point x="30" y="401" type="line"/>
      <point x="55" y="479.755"/>
      <point x="115.743" y="501.648"/>
      <point x="170" y="501.648" type="curve" smooth="yes"/>
      <point x="251.635" y="501.648"/>
      <point x="314" y="449.686"/>
      <point x="314" y="369" type="curve" smooth="yes"/>
      <point x="314" y="252" type="line"/>
      <point x="230" y="252" type="line" smooth="yes"/>
      <point x="200" y="252"/>
      <point x="171" y="242"/>
      <point x="171" y="195" type="curve" smooth="yes"/>
      <point x="171" y="168.216"/>
      <point x="193.503" y="140"/>
      <point x="247" y="140" type="curve"/>
      <point x="247" y="-5" type="line"/>
      <point x="119.558" y="-5"/>
      <point x="33" y="87.2324"/>
      <point x="33" y="192" type="curve" smooth="yes"/>
      <point x="33" y="241"/>
      <point x="34.1777" y="291.093"/>
      <point x="91" y="333" type="curve" smooth="yes"/>
      <point x="123.542" y="357"/>
      <point x="159.136" y="369"/>
      <point x="211" y="369" type="curve"/>
      <point x="211" y="387.974"/>
      <point x="193.963" y="399.185"/>
      <point x="170" y="399.185" type="curve" smooth="yes"/>
      <point x="152.77" y="399.185"/>
      <point x="133.131" y="393.124"/>
      <point x="129" y="375" type="curve"/>
    </contour>
    <contour>
      <point x="303" y="-5" type="line"/>
      <point x="457.968" y="-4.83398"/>
      <point x="538" y="78.4932"/>
      <point x="538" y="250" type="curve" smooth="yes"/>
      <point x="398" y="250" type="line" smooth="yes"/>
      <point x="398" y="153.522"/>
      <point x="345.411" y="140"/>
      <point x="303" y="140" type="curve"/>
    </contour>
    <contour>
      <point x="223" y="617" type="line" smooth="yes"/>
      <point x="223" y="544.038"/>
      <point x="258.619" y="473.607"/>
      <point x="362" y="454" type="curve"/>
      <point x="362" y="540" type="line"/>
      <point x="328.652" y="547.238"/>
      <point x="303" y="563.071"/>
      <point x="303" y="616" type="curve"/>
      <point x="381.252" y="616"/>
      <point x="398" y="577"/>
      <point x="398" y="498" type="curve" smooth="yes"/>
      <point x="398" y="249" type="line"/>
      <point x="538" y="249" type="line"/>
      <point x="538" y="517" type="line" smooth="yes"/>
      <point x="538" y="700"/>
      <point x="437.272" y="755"/>
      <point x="303" y="755" type="curve"/>
      <point x="223" y="755" type="line"/>
    </contour>
  </outline>
</glyph>
<glyph name="si_Ba" format="1">
  <advance width="609"/>
  <unicode hex="0DB6"/>
  <outline>
    <contour>
      <point x="30" y="187" type="curve" smooth="yes"/>
      <point x="30" y="283" type="line" smooth="yes"/>
      <point x="30" y="390.84"/>
      <point x="122.007" y="451.906"/>
      <point x="211.942" y="451.906" type="curve" smooth="yes"/>
      <point x="297.918" y="451.906"/>
      <point x="382" y="396.099"/>
      <point x="382" y="272" type="curve" smooth="yes"/>
      <point x="382" y="174" type="line" smooth="yes"/>
      <point x="382" y="149.773"/>
      <point x="396.243" y="137.668"/>
      <point x="410.49" y="137.668" type="curve" smooth="yes"/>
      <point x="424.743" y="137.668"/>
      <point x="439" y="149.784"/>
      <point x="439" y="174" type="curve"/>
      <point x="439" y="214" type="line"/>
      <point x="579" y="214" type="line"/>
      <point x="579" y="174" type="line"/>
      <point x="579" y="51.6343"/>
      <point x="487.997" y="-8.05795"/>
      <point x="401.28" y="-8.05795" type="curve" smooth="yes"/>
      <point x="322.365" y="-8.05795"/>
      <point x="247" y="41.377"/>
      <point x="247" y="138" type="curve" smooth="yes"/>
      <point x="247" y="267" type="line" smooth="yes"/>
      <point x="247" y="297.832"/>
      <point x="225.734" y="313.285"/>
      <point x="204.476" y="313.285" type="curve" smooth="yes"/>
      <point x="183.251" y="313.285"/>
      <point x="162.035" y="297.881"/>
      <point x="162" y="267" type="curve" smooth="yes"/>
      <point x="161.917" y="193" type="line" smooth="yes"/>
      <point x="162" y="151"/>
      <point x="180.457" y="140"/>
      <point x="211" y="140" type="curve"/>
      <point x="211" y="0" type="line"/>
      <point x="91.1055" y="0"/>
      <point x="30" y="55"/>
    </contour>
    <contour>
      <point x="439" y="200" type="line"/>
      <point x="439" y="478" type="line" smooth="yes"/>
      <point x="439" y="556.997"/>
      <point x="422.428" y="616"/>
      <point x="345" y="616" type="curve"/>
      <point x="324" y="616" type="line"/>
      <point x="324" y="755" type="line"/>
      <point x="345" y="755" type="line"/>
      <point x="478.701" y="755"/>
      <point x="579" y="679.969"/>
      <point x="579" y="500" type="curve" smooth="yes"/>
      <point x="579" y="200" type="line"/>
    </contour>
    <contour>
      <point x="41" y="566" type="line"/>
      <point x="41" y="672.126"/>
      <point x="151.127" y="755"/>
      <point x="257.667" y="755" type="curve"/>
      <point x="268" y="755" type="line"/>
      <point x="268" y="616.5" type="line"/>
      <point x="257.667" y="616.5" type="line"/>
      <point x="217.259" y="616.5"/>
      <point x="178" y="595.735"/>
      <point x="178" y="530" type="curve"/>
    </contour>
  </outline>
</glyph>
<glyph name="si_Mba" format="1">
  <advance width="607"/>
  <unicode hex="0DB9"/>
  <outline>
    <contour>
      <point x="190" y="-11" type="curve" smooth="yes"/>
      <point x="94.8102" y="-11"/>
      <point x="30" y="55"/>
      <point x="30" y="157" type="curve" smooth="yes"/>
      <point x="30" y="339" type="line" smooth="yes"/>
      <point x="30" y="428.355"/>
      <point x="98.7229" y="473.401"/>
      <point x="163.735" y="473.401" type="curve" smooth="yes"/>
      <point x="223.396" y="473.401"/>
      <point x="280" y="437.112"/>
      <point x="280" y="364" type="curve" smooth="yes"/>
      <point x="280" y="348" type="line" smooth="yes"/>
      <point x="280" y="336.714"/>
      <point x="287.716" y="331.107"/>
      <point x="295.45" y="331.107" type="curve" smooth="yes"/>
      <point x="303.216" y="331.107"/>
      <point x="311" y="336.763"/>
      <point x="311" y="348" type="curve" smooth="yes"/>
      <point x="311" y="469" type="line"/>
      <point x="403" y="469" type="line"/>
      <point x="403" y="340" type="line" smooth="yes"/>
      <point x="403" y="263.042"/>
      <point x="350.455" y="228.664"/>
      <point x="298.44" y="228.664" type="curve" smooth="yes"/>
      <point x="247.465" y="228.664"/>
      <point x="197" y="261.682"/>
      <point x="197" y="320" type="curve" smooth="yes"/>
      <point x="197" y="328" type="line" smooth="yes"/>
      <point x="197" y="341.305"/>
      <point x="189.157" y="348.08"/>
      <point x="181.361" y="348.08" type="curve" smooth="yes"/>
      <point x="173.658" y="348.08"/>
      <point x="166" y="341.465"/>
      <point x="166" y="328" type="curve" smooth="yes"/>
      <point x="166" y="166" type="line" smooth="yes"/>
      <point x="166" y="145.36"/>
      <point x="180.444" y="134.824"/>
      <point x="194.791" y="134.824" type="curve" smooth="yes"/>
      <point x="208.943" y="134.824"/>
      <point x="223" y="145.077"/>
      <point x="223" y="166" type="curve" smooth="yes"/>
      <point x="223" y="180.669"/>
      <point x="230.158" y="204"/>
      <point x="257" y="204" type="curve" smooth="yes"/>
      <point x="346" y="204" type="line" smooth="yes"/>
      <point x="372.842" y="204"/>
      <point x="380" y="180.669"/>
      <point x="380" y="166" type="curve" smooth="yes"/>
      <point x="380" y="145.077"/>
      <point x="394.057" y="134.824"/>
      <point x="408.209" y="134.824" type="curve" smooth="yes"/>
      <point x="422.556" y="134.824"/>
      <point x="437" y="145"/>
      <point x="437" y="167" type="curve" smooth="yes"/>
      <point x="437" y="508" type="line" smooth="yes"/>
      <point x="437" y="616"/>
      <point x="388.119" y="616"/>
      <point x="317" y="616" type="curve"/>
      <point x="317" y="755" type="line"/>
      <point x="492.857" y="755"/>
      <point x="577" y="695"/>
      <point x="577" y="520" type="curve" smooth="yes"/>
      <point x="577" y="157" type="line" smooth="yes"/>
      <point x="577" y="55"/>
      <point x="510.975" y="-11"/>
      <point x="414" y="-11" type="curve" smooth="yes"/>
      <point x="383.387" y="-11"/>
      <point x="361.637" y="-2.896"/>
      <point x="347.54" y="10.906" type="curve" smooth="yes"/>
      <point x="333.443" y="24.708"/>
      <point x="327" y="44.208"/>
      <point x="327" y="67" type="curve" smooth="yes"/>
      <point x="327" y="88.8076"/>
      <point x="314.492" y="99.7222"/>
      <point x="301.988" y="99.7222" type="curve" smooth="yes"/>
      <point x="289.492" y="99.7222"/>
      <point x="277" y="88.8221"/>
      <point x="277" y="67" type="curve" smooth="yes"/>
      <point x="277" y="44.208"/>
      <point x="270.557" y="24.708"/>
      <point x="256.46" y="10.906" type="curve" smooth="yes"/>
      <point x="242.363" y="-2.896"/>
      <point x="220.613" y="-11"/>
    </contour>
    <contour>
      <point x="170" y="530" type="curve"/>
      <point x="33" y="566" type="line"/>
      <point x="33" y="677.931"/>
      <point x="146.968" y="755"/>
      <point x="260" y="755" type="curve"/>
      <point x="260" y="616.5" type="line"/>
      <point x="211.963" y="616.5"/>
      <point x="170" y="601.567"/>
    </contour>
  </outline>
</glyph>
<glyph name="si_Ra" format="1">
  <advance width="545"/>
  <unicode hex="0DBB"/>
  <outline>
    <contour>
      <point x="30" y="241" type="curve" smooth="yes"/>
      <point x="30" y="427" type="line" smooth="yes"/>
      <point x="30" y="478"/>
      <point x="30.5347" y="518.703"/>
      <point x="91" y="576" type="curve" smooth="yes"/>
      <point x="320" y="793" type="line"/>
      <point x="463" y="757" type="line"/>
      <point x="220" y="516" type="line" smooth="yes"/>
      <point x="170.11" y="466.52"/>
      <point x="169.753" y="457.496"/>
      <point x="169.753" y="417.981" type="curve" smooth="yes"/>
      <point x="169.753" y="409.551"/>
      <point x="170" y="431.78"/>
      <point x="170" y="235" type="curve" smooth="yes"/>
      <point x="170" y="167"/>
      <point x="184.222" y="139"/>
      <point x="244" y="139" type="curve"/>
      <point x="244" y="-6" type="line"/>
      <point x="141.578" y="-6"/>
      <point x="30" y="57.1748"/>
    </contour>
    <contour>
      <point x="214.926" y="436" type="line"/>
      <point x="342" y="564" type="line"/>
      <point x="365" y="563.981" type="line"/>
      <point x="467.509" y="563.953"/>
      <point x="515" y="491.189"/>
      <point x="515" y="368" type="curve" smooth="yes"/>
      <point x="515" y="234" type="line" smooth="yes"/>
      <point x="515" y="41.8447"/>
      <point x="412.532" y="-5"/>
      <point x="300" y="-5" type="curve"/>
      <point x="300" y="139" type="line"/>
      <point x="360.586" y="139"/>
      <point x="375" y="166.591"/>
      <point x="375" y="235" type="curve" smooth="yes"/>
      <point x="375" y="327" type="line" smooth="yes"/>
      <point x="375" y="400.112"/>
      <point x="375" y="431"/>
      <point x="300" y="431" type="curve" smooth="yes"/>
      <point x="215" y="431" type="line"/>
    </contour>
  </outline>
</glyph>
<glyph name="si_La" format="1">
  <advance width="626"/>
  <unicode hex="0DBD"/>
  <outline>
    <contour>
      <point x="248" y="214.5" type="curve" smooth="yes"/>
      <point x="248" y="214.5"/>
      <point x="248" y="310.903"/>
      <point x="248" y="322.5" type="curve"/>
      <point x="376" y="322.5" type="line"/>
      <point x="376" y="234.5" type="line" smooth="yes"/>
      <point x="376" y="215.627"/>
      <point x="382.848" y="193.5"/>
      <point x="417.333" y="193.5" type="curve" smooth="yes"/>
      <point x="453.69" y="193.5"/>
      <point x="458" y="222.881"/>
      <point x="458" y="239.5" type="curve" smooth="yes"/>
      <point x="458.195" y="330.5" type="line" smooth="yes"/>
      <point x="458" y="405.948"/>
      <point x="409.333" y="435"/>
      <point x="344" y="435" type="curve"/>
      <point x="344" y="575" type="line"/>
      <point x="458.348" y="575"/>
      <point x="596" y="531.216"/>
      <point x="596" y="330.5" type="curve" smooth="yes"/>
      <point x="596" y="239.5" type="line" smooth="yes"/>
      <point x="596" y="122.36"/>
      <point x="529.553" y="53.5"/>
      <point x="417.333" y="53.5" type="curve" smooth="yes"/>
      <point x="276.721" y="53.5"/>
      <point x="248" y="138.169"/>
    </contour>
    <contour>
      <point x="283" y="-170.5" type="line"/>
      <point x="172.948" y="-170.5"/>
      <point x="30.333" y="-122.855"/>
      <point x="30.333" y="73.5" type="curve" smooth="yes"/>
      <point x="30" y="330.5" type="line" smooth="yes"/>
      <point x="30" y="531.216"/>
      <point x="168.199" y="575"/>
      <point x="283" y="575" type="curve"/>
      <point x="283" y="435" type="line"/>
      <point x="217.667" y="435"/>
      <point x="169" y="405.948"/>
      <point x="168.805" y="330.5" type="curve" smooth="yes"/>
      <point x="168.805" y="73.5" type="line" smooth="yes"/>
      <point x="169" y="-1.94813"/>
      <point x="217.667" y="-30.5"/>
      <point x="283" y="-30.5" type="curve"/>
    </contour>
    <contour>
      <point x="206" y="250.5" type="line"/>
      <point x="206" y="364.5" type="line"/>
      <point x="418" y="364.5" type="line"/>
      <point x="418" y="250.5" type="line"/>
    </contour>
    <contour>
      <point x="344" y="-33" type="curve"/>
      <point x="344" y="-173" type="line"/>
      <point x="443.056" y="-173"/>
      <point x="559.601" y="-140.143"/>
      <point x="589" y="-0.875" type="curve"/>
      <point x="454" y="36.7705" type="line"/>
      <point x="440.864" y="-13.0365"/>
      <point x="398.158" y="-33"/>
    </contour>
  </outline>
</glyph>
<glyph name="si_Va" format="1">
  <advance width="568"/>
  <unicode hex="0DC0"/>
  <outline>
    <contour>
      <point x="303" y="-6" type="move" name="si_rakar"/>
    </contour>
    <contour>
      <point x="30.333" y="566" type="curve"/>
      <point x="167.333" y="530" type="line"/>
      <point x="167.333" y="595.735"/>
      <point x="206.591" y="616.5"/>
      <point x="247" y="616.5" type="curve"/>
      <point x="247" y="755" type="line"/>
      <point x="140.46" y="755"/>
      <point x="30.333" y="672.126"/>
    </contour>
    <contour>
      <point x="30" y="401" type="line"/>
      <point x="55" y="479.754"/>
      <point x="115.743" y="501.648"/>
      <point x="170" y="501.648" type="curve" smooth="yes"/>
      <point x="251.635" y="501.648"/>
      <point x="314" y="449.685"/>
      <point x="314" y="369" type="curve" smooth="yes"/>
      <point x="314" y="252" type="line"/>
      <point x="230" y="252" type="line" smooth="yes"/>
      <point x="200" y="252"/>
      <point x="171" y="242"/>
      <point x="171" y="195" type="curve" smooth="yes"/>
      <point x="171" y="165.781"/>
      <point x="193.503" y="135"/>
      <point x="247" y="135" type="curve"/>
      <point x="247" y="-5" type="line"/>
      <point x="119.558" y="-5"/>
      <point x="33" y="87.2324"/>
      <point x="33" y="192" type="curve" smooth="yes"/>
      <point x="33" y="241"/>
      <point x="34.1773" y="291.093"/>
      <point x="91" y="333" type="curve" smooth="yes"/>
      <point x="123.542" y="357"/>
      <point x="159.136" y="369"/>
      <point x="211" y="369" type="curve"/>
      <point x="211" y="387.974"/>
      <point x="193.963" y="399.185"/>
      <point x="170" y="399.185" type="curve" smooth="yes"/>
      <point x="152.769" y="399.185"/>
      <point x="133.131" y="393.124"/>
      <point x="129" y="375" type="curve"/>
    </contour>
    <contour>
      <point x="303" y="-5" type="line"/>
      <point x="457.968" y="-4.83398"/>
      <point x="538" y="78.4932"/>
      <point x="538" y="250" type="curve" smooth="yes"/>
      <point x="538" y="520" type="line" smooth="yes"/>
      <point x="538" y="699.969"/>
      <point x="437.273" y="755"/>
      <point x="303" y="755" type="curve"/>
      <point x="303" y="616" type="line"/>
      <point x="381.252" y="616"/>
      <point x="398" y="577"/>
      <point x="398" y="498" type="curve" smooth="yes"/>
      <point x="398" y="250" type="line" smooth="yes"/>
      <point x="398" y="149.137"/>
      <point x="345.411" y="135"/>
      <point x="303" y="135" type="curve"/>
    </contour>
  </outline>
</glyph>
<glyph name="si_Sha" format="1">
  <advance width="717"/>
  <unicode hex="0DC1"/>
  <outline>
    <contour>
      <point x="227" y="-8" type="line"/>
      <point x="87.704" y="-8"/>
      <point x="30.4201" y="81.7376"/>
      <point x="30.0791" y="198" type="curve" smooth="yes"/>
      <point x="30.0791" y="358" type="line" smooth="yes"/>
      <point x="30.4201" y="474.262"/>
      <point x="87.704" y="564"/>
      <point x="227" y="564" type="curve"/>
      <point x="227" y="421" type="line"/>
      <point x="174.887" y="421"/>
      <point x="171" y="375.857"/>
      <point x="171" y="348" type="curve" smooth="yes"/>
      <point x="171" y="198" type="line" smooth="yes"/>
      <point x="171" y="173.959"/>
      <point x="174.887" y="135"/>
      <point x="227" y="135" type="curve"/>
    </contour>
    <contour>
      <point x="490" y="-8" type="curve"/>
      <point x="490" y="135" type="line"/>
      <point x="542.113" y="135"/>
      <point x="546" y="173.959"/>
      <point x="546" y="198" type="curve" smooth="yes"/>
      <point x="546" y="348" type="line" smooth="yes"/>
      <point x="546" y="375.857"/>
      <point x="542.113" y="421"/>
      <point x="490" y="421" type="curve"/>
      <point x="490" y="564" type="line"/>
      <point x="629.296" y="564"/>
      <point x="686.58" y="474.262"/>
      <point x="686.921" y="358" type="curve" smooth="yes"/>
      <point x="686.921" y="198" type="line" smooth="yes"/>
      <point x="686.58" y="81.7376"/>
      <point x="629.296" y="-8"/>
    </contour>
    <contour>
      <point x="271" y="240.5" type="curve"/>
      <point x="271" y="339" type="line"/>
      <point x="390.384" y="339"/>
      <point x="411.511" y="329.969"/>
      <point x="428.421" y="307.57" type="curve" smooth="yes"/>
      <point x="445.332" y="285.172"/>
      <point x="458.025" y="249.407"/>
      <point x="460.543" y="195.94" type="curve" smooth="yes"/>
      <point x="460.844" y="189.549"/>
      <point x="461" y="182.905"/>
      <point x="461" y="176" type="curve" smooth="yes"/>
      <point x="461" y="48.4025"/>
      <point x="399.69" y="-8"/>
      <point x="283" y="-8" type="curve"/>
      <point x="283" y="135" type="line" smooth="yes"/>
      <point x="335.527" y="135"/>
      <point x="337" y="170.963"/>
      <point x="337" y="188" type="curve" smooth="yes"/>
      <point x="337" y="190.032"/>
      <point x="336.952" y="191.985"/>
      <point x="336.857" y="193.863" type="curve" smooth="yes"/>
      <point x="334.502" y="240.615"/>
      <point x="303.373" y="240.5"/>
    </contour>
    <contour>
      <point x="373" y="168" type="curve"/>
      <point x="373" y="313.535"/>
      <point x="442.387" y="338"/>
      <point x="546" y="338" type="curve"/>
      <point x="546" y="235" type="line"/>
      <point x="495.681" y="235"/>
      <point x="461" y="219.289"/>
      <point x="461" y="169" type="curve"/>
      <point x="461" y="169"/>
      <point x="373" y="168"/>
    </contour>
    <contour>
      <point x="254" y="240.5" type="line" smooth="yes"/>
      <point x="254" y="350" type="line" smooth="yes"/>
      <point x="254" y="468.007"/>
      <point x="290.062" y="564"/>
      <point x="434" y="564" type="curve"/>
      <point x="434" y="421" type="line"/>
      <point x="388.193" y="421"/>
      <point x="393.466" y="376.492"/>
      <point x="392.835" y="350" type="curve" smooth="yes"/>
      <point x="393" y="239.5" type="line"/>
    </contour>
  </outline>
</glyph>
<glyph name="si_Ssa" format="1">
  <advance width="660"/>
  <unicode hex="0DC2"/>
  <outline>
    <contour>
      <point x="48" y="460" type="line"/>
      <point x="72.046" y="536.591"/>
      <point x="139.808" y="574.548"/>
      <point x="211.252" y="574.548" type="curve" smooth="yes"/>
      <point x="252.892" y="574.548"/>
      <point x="295.784" y="561.654"/>
      <point x="332" y="536" type="curve"/>
      <point x="368.253" y="561.68"/>
      <point x="411.124" y="574.564"/>
      <point x="452.729" y="574.564" type="curve" smooth="yes"/>
      <point x="524.22" y="574.564"/>
      <point x="591.975" y="536.524"/>
      <point x="616" y="460" type="curve"/>
      <point x="498" y="421" type="line"/>
      <point x="493.584" y="436"/>
      <point x="478.783" y="451"/>
      <point x="451" y="451" type="curve" smooth="yes"/>
      <point x="435.669" y="451"/>
      <point x="396" y="443.165"/>
      <point x="396" y="397" type="curve"/>
      <point x="396" y="378" type="line"/>
      <point x="268" y="378" type="line"/>
      <point x="268" y="397" type="line"/>
      <point x="268" y="443.165"/>
      <point x="228.331" y="451"/>
      <point x="213" y="451" type="curve" smooth="yes"/>
      <point x="185.217" y="451"/>
      <point x="170.416" y="436"/>
      <point x="166" y="421" type="curve"/>
    </contour>
    <contour>
      <point x="244" y="168" type="line"/>
      <point x="244" y="276.976"/>
      <point x="330" y="345"/>
      <point x="392" y="367" type="curve"/>
      <point x="558" y="367" type="line"/>
      <point x="483" y="342"/>
      <point x="378" y="259.976"/>
      <point x="378" y="170" type="curve"/>
    </contour>
    <contour>
      <point x="30" y="202" type="curve"/>
      <point x="170" y="202" type="line"/>
      <point x="170" y="148.801"/>
      <point x="211" y="123"/>
      <point x="274" y="123" type="curve" smooth="yes"/>
      <point x="386" y="123" type="line" smooth="yes"/>
      <point x="451" y="123"/>
      <point x="490" y="151"/>
      <point x="490" y="202" type="curve"/>
      <point x="630" y="202" type="line"/>
      <point x="630" y="64"/>
      <point x="547" y="-12"/>
      <point x="378" y="-12" type="curve" smooth="yes"/>
      <point x="285" y="-12" type="line" smooth="yes"/>
      <point x="108" y="-12"/>
      <point x="30" y="59.2461"/>
    </contour>
    <contour>
      <point x="31" y="251" type="line"/>
      <point x="31" y="377.04"/>
      <point x="97" y="407"/>
      <point x="194" y="407" type="curve" smooth="yes"/>
      <point x="459" y="407" type="line" smooth="yes"/>
      <point x="567" y="407"/>
      <point x="630" y="381.172"/>
      <point x="630" y="251" type="curve"/>
      <point x="491" y="251" type="line"/>
      <point x="491" y="264.875"/>
      <point x="491" y="288"/>
      <point x="462" y="288" type="curve" smooth="yes"/>
      <point x="205" y="288" type="line" smooth="yes"/>
      <point x="171.738" y="288"/>
      <point x="170.001" y="263.84"/>
      <point x="170" y="251" type="curve"/>
    </contour>
  </outline>
</glyph>
<glyph name="si_Sa" format="1">
  <advance width="687"/>
  <unicode hex="0DC3"/>
  <outline>
    <contour>
      <point x="67" y="160" type="curve" smooth="yes"/>
      <point x="67" y="202" type="line"/>
      <point x="206" y="202" type="line"/>
      <point x="206" y="171" type="line" smooth="yes"/>
      <point x="206" y="144.935"/>
      <point x="229.006" y="131.397"/>
      <point x="252.009" y="131.397" type="curve" smooth="yes"/>
      <point x="275.006" y="131.397"/>
      <point x="298" y="144.928"/>
      <point x="298" y="173" type="curve" smooth="yes"/>
      <point x="298" y="202" type="line"/>
      <point x="426" y="202" type="line"/>
      <point x="426" y="173" type="line" smooth="yes"/>
      <point x="426" y="145.086"/>
      <point x="449.285" y="131.383"/>
      <point x="472.427" y="131.383" type="curve" smooth="yes"/>
      <point x="495.284" y="131.383"/>
      <point x="518" y="144.751"/>
      <point x="518" y="171" type="curve" smooth="yes"/>
      <point x="518" y="202" type="line"/>
      <point x="657" y="202" type="line"/>
      <point x="657" y="160" type="line" smooth="yes"/>
      <point x="657" y="50"/>
      <point x="585.025" y="-8"/>
      <point x="475" y="-8" type="curve" smooth="yes"/>
      <point x="432.055" y="-8"/>
      <point x="388.962" y="3.73333"/>
      <point x="359" y="36" type="curve"/>
      <point x="330.071" y="3.73333"/>
      <point x="291.464" y="-8"/>
      <point x="250" y="-8" type="curve" smooth="yes"/>
      <point x="141.127" y="-8"/>
      <point x="67" y="58"/>
    </contour>
    <contour>
      <point x="78" y="460" type="line"/>
      <point x="102.046" y="536.591"/>
      <point x="169.808" y="574.548"/>
      <point x="241.252" y="574.548" type="curve" smooth="yes"/>
      <point x="282.892" y="574.548"/>
      <point x="325.784" y="561.654"/>
      <point x="362" y="536" type="curve"/>
      <point x="398.253" y="561.68"/>
      <point x="441.124" y="574.564"/>
      <point x="482.73" y="574.564" type="curve" smooth="yes"/>
      <point x="554.221" y="574.564"/>
      <point x="621.975" y="536.524"/>
      <point x="646" y="460" type="curve"/>
      <point x="528" y="421" type="line"/>
      <point x="523.584" y="436"/>
      <point x="508.783" y="451"/>
      <point x="481" y="451" type="curve" smooth="yes"/>
      <point x="465.669" y="451"/>
      <point x="426" y="443.165"/>
      <point x="426" y="397" type="curve"/>
      <point x="426" y="378" type="line"/>
      <point x="298" y="378" type="line"/>
      <point x="298" y="397" type="line"/>
      <point x="298" y="443.165"/>
      <point x="258.331" y="451"/>
      <point x="243" y="451" type="curve" smooth="yes"/>
      <point x="215.217" y="451"/>
      <point x="200.416" y="436"/>
      <point x="196" y="421" type="curve"/>
    </contour>
    <contour>
      <point x="30" y="283" type="line"/>
      <point x="30" y="402" type="line"/>
      <point x="503" y="402" type="line" smooth="yes"/>
      <point x="565.36" y="402"/>
      <point x="657" y="391.937"/>
      <point x="657" y="279" type="curve" smooth="yes"/>
      <point x="657" y="251" type="line"/>
      <point x="518" y="251" type="line"/>
      <point x="518" y="258.67"/>
      <point x="515.647" y="266.862"/>
      <point x="509.604" y="273.038" type="curve" smooth="yes"/>
      <point x="503.829" y="278.94"/>
      <point x="494.683" y="283"/>
      <point x="481" y="283" type="curve" smooth="yes"/>
      <point x="246" y="283" type="line" smooth="yes"/>
      <point x="229.5" y="283"/>
      <point x="219.5" y="278"/>
      <point x="213.625" y="271.5" type="curve" smooth="yes"/>
      <point x="207.75" y="265"/>
      <point x="206" y="257"/>
      <point x="206" y="251" type="curve"/>
      <point x="67" y="251" type="line"/>
      <point x="67.1406" y="253.585"/>
      <point x="67.3906" y="261.085"/>
      <point x="67.9805" y="268.189" type="curve" smooth="yes"/>
      <point x="68.5703" y="275.293"/>
      <point x="69.5" y="282"/>
      <point x="71" y="283" type="curve"/>
    </contour>
  </outline>
</glyph>
<glyph name="si_Ha" format="1">
  <advance width="716"/>
  <unicode hex="0DC4"/>
  <outline>
    <contour>
      <point x="30.0791" y="198" type="line" smooth="yes"/>
      <point x="30.4199" y="81.7373"/>
      <point x="87.7041" y="-8"/>
      <point x="227" y="-8" type="curve"/>
      <point x="227" y="135" type="line"/>
      <point x="174.888" y="135"/>
      <point x="171" y="173.959"/>
      <point x="171" y="198" type="curve" smooth="yes"/>
      <point x="171" y="228" type="line" smooth="yes"/>
      <point x="171" y="248.226"/>
      <point x="174.888" y="281"/>
      <point x="227" y="281" type="curve"/>
      <point x="267" y="281" type="line"/>
      <point x="267" y="424" type="line"/>
      <point x="227" y="424" type="line"/>
      <point x="87.7041" y="424"/>
      <point x="30.4199" y="342.975"/>
      <point x="30.0791" y="238" type="curve" smooth="yes"/>
    </contour>
    <contour>
      <point x="270" y="241" type="line"/>
      <point x="282" y="241" type="line" smooth="yes"/>
      <point x="334.527" y="241"/>
      <point x="336" y="205.037"/>
      <point x="336" y="188" type="curve" smooth="yes"/>
      <point x="336" y="170.963"/>
      <point x="334.527" y="135"/>
      <point x="282" y="135" type="curve" smooth="yes"/>
      <point x="282" y="-8" type="line"/>
      <point x="398.689" y="-8"/>
      <point x="460" y="45.3369"/>
      <point x="460" y="166" type="curve" smooth="yes"/>
      <point x="459.85" y="216" type="line" smooth="yes"/>
      <point x="460" y="325.407"/>
      <point x="406.086" y="347"/>
      <point x="370" y="347" type="curve"/>
      <point x="270" y="347" type="line"/>
    </contour>
    <contour>
      <point x="489" y="-8" type="line"/>
      <point x="628.296" y="-8"/>
      <point x="685.58" y="81.7373"/>
      <point x="685.921" y="198" type="curve" smooth="yes"/>
      <point x="685.921" y="358" type="line" smooth="yes"/>
      <point x="685.58" y="474.263"/>
      <point x="628.296" y="564"/>
      <point x="489" y="564" type="curve"/>
      <point x="489" y="421" type="line"/>
      <point x="541.112" y="421"/>
      <point x="545" y="375.857"/>
      <point x="545" y="348" type="curve" smooth="yes"/>
      <point x="545" y="198" type="line" smooth="yes"/>
      <point x="545" y="173.959"/>
      <point x="541.112" y="135"/>
      <point x="489" y="135" type="curve"/>
    </contour>
    <contour>
      <point x="253" y="241" type="line" smooth="yes"/>
      <point x="392" y="240.5" type="line"/>
      <point x="391.835" y="350" type="line" smooth="yes"/>
      <point x="392.466" y="376.492"/>
      <point x="387.192" y="421"/>
      <point x="433" y="421" type="curve"/>
      <point x="433" y="564" type="line"/>
      <point x="289.062" y="564"/>
      <point x="253" y="468.007"/>
      <point x="253" y="350" type="curve" smooth="yes"/>
    </contour>
    <contour>
      <point x="32" y="463.352" type="curve"/>
      <point x="131" y="437.352" type="line"/>
      <point x="134.712" y="454.054"/>
      <point x="152.244" y="461.951"/>
      <point x="170.15" y="461.951" type="curve" smooth="yes"/>
      <point x="191.314" y="461.951"/>
      <point x="213" y="450.918"/>
      <point x="213" y="430.352" type="curve" smooth="yes"/>
      <point x="213" y="400.352" type="line"/>
      <point x="315.999" y="401" type="line"/>
      <point x="316" y="433.352" type="line" smooth="yes"/>
      <point x="316" y="433.356" type="line" smooth="yes"/>
      <point x="316" y="516.172"/>
      <point x="244.971" y="563.617"/>
      <point x="172.772" y="563.617" type="curve" smooth="yes"/>
      <point x="114.161" y="563.617"/>
      <point x="54.7783" y="532.349"/>
    </contour>
  </outline>
</glyph>
<glyph name="si_Lla" format="1">
  <advance width="609"/>
  <unicode hex="0DC5"/>
  <outline>
    <contour>
      <point x="115.025" y="421.275" type="line"/>
      <point x="115.025" y="445.525" type="line"/>
      <point x="115.025" y="524.575"/>
      <point x="169.425" y="574.725"/>
      <point x="253.575" y="574.725" type="curve" smooth="yes"/>
      <point x="284.871" y="574.725"/>
      <point x="311.298" y="565.375"/>
      <point x="330.075" y="548.375" type="curve"/>
      <point x="349.943" y="569.625"/>
      <point x="378.784" y="574.725"/>
      <point x="400.575" y="574.725" type="curve" smooth="yes"/>
      <point x="489.825" y="574.725"/>
      <point x="539.975" y="517.445"/>
      <point x="539.975" y="436.525" type="curve"/>
      <point x="424.375" y="436.525" type="line"/>
      <point x="424.375" y="453.878"/>
      <point x="412.949" y="464"/>
      <point x="397" y="464" type="curve" smooth="yes"/>
      <point x="378.515" y="464"/>
      <point x="370.925" y="450.263"/>
      <point x="370.925" y="436.525" type="curve"/>
      <point x="286.075" y="436.525" type="line"/>
      <point x="285.398" y="450.763"/>
      <point x="280.572" y="465"/>
      <point x="259" y="465" type="curve" smooth="yes"/>
      <point x="236.84" y="465"/>
      <point x="230.625" y="448.961"/>
      <point x="230.625" y="434.525" type="curve"/>
    </contour>
    <contour>
      <point x="30" y="77" type="curve" smooth="yes"/>
      <point x="30" y="194" type="line" smooth="yes"/>
      <point x="30" y="322.197"/>
      <point x="132.979" y="386.745"/>
      <point x="216" y="387" type="curve" smooth="yes"/>
      <point x="541" y="388" type="line"/>
      <point x="541" y="256" type="line"/>
      <point x="248" y="256" type="line" smooth="yes"/>
      <point x="203.378" y="256"/>
      <point x="169.002" y="227.882"/>
      <point x="168.996" y="146" type="curve" smooth="yes"/>
      <point x="169" y="75" type="line" smooth="yes"/>
      <point x="169" y="3.43101"/>
      <point x="210.412" y="-30"/>
      <point x="283" y="-30" type="curve" smooth="yes"/>
      <point x="283" y="-170" type="line" smooth="yes"/>
      <point x="131.835" y="-170"/>
      <point x="30.1154" y="-89.9693"/>
    </contour>
    <contour>
      <point x="144" y="216" type="curve"/>
      <point x="235" y="301" type="line"/>
      <point x="235" y="195.928"/>
      <point x="309.198" y="185"/>
      <point x="334" y="185" type="curve" smooth="yes"/>
      <point x="354" y="185" type="line" smooth="yes"/>
      <point x="390.105" y="185"/>
      <point x="419.389" y="200.704"/>
      <point x="429" y="222" type="curve"/>
      <point x="542" y="193" type="line"/>
      <point x="499" y="82"/>
      <point x="406.733" y="66.9766"/>
      <point x="358" y="66.8896" type="curve" smooth="yes"/>
      <point x="325" y="67" type="line" smooth="yes"/>
      <point x="217.263" y="67"/>
      <point x="144" y="142"/>
    </contour>
    <contour>
      <point x="344" y="-30" type="curve"/>
      <point x="344" y="-170" type="line"/>
      <point x="443.057" y="-170"/>
      <point x="559.601" y="-137.144"/>
      <point x="589" y="2.125" type="curve"/>
      <point x="454" y="39.7705" type="line"/>
      <point x="440.864" y="-10.0361"/>
      <point x="398.158" y="-30"/>
    </contour>
  </outline>
</glyph>
<glyph name="si_Fa" format="1">
  <advance width="650"/>
  <unicode hex="0DC6"/>
  <outline>
    <contour>
      <point x="30" y="251" type="line"/>
      <point x="30" y="396" type="line" smooth="yes"/>
      <point x="30" y="506"/>
      <point x="101.976" y="564"/>
      <point x="212" y="564" type="curve" smooth="yes"/>
      <point x="254.945" y="564"/>
      <point x="298.038" y="552.267"/>
      <point x="328" y="520" type="curve"/>
      <point x="356.929" y="552.267"/>
      <point x="395.536" y="564"/>
      <point x="437" y="564" type="curve" smooth="yes"/>
      <point x="545.873" y="564"/>
      <point x="620" y="498"/>
      <point x="620" y="396" type="curve" smooth="yes"/>
      <point x="620" y="396"/>
      <point x="620" y="251"/>
      <point x="620" y="251" type="curve"/>
      <point x="481" y="251" type="line"/>
      <point x="481" y="385" type="line" smooth="yes"/>
      <point x="481" y="411.065"/>
      <point x="457.994" y="424.604"/>
      <point x="434.991" y="424.604" type="curve" smooth="yes"/>
      <point x="411.994" y="424.604"/>
      <point x="389" y="411.072"/>
      <point x="389" y="383" type="curve" smooth="yes"/>
      <point x="389" y="383"/>
      <point x="389" y="251"/>
      <point x="389" y="251" type="curve"/>
      <point x="261" y="251" type="line"/>
      <point x="261" y="383" type="line" smooth="yes"/>
      <point x="261" y="410.914"/>
      <point x="237.715" y="424.617"/>
      <point x="214.573" y="424.617" type="curve" smooth="yes"/>
      <point x="191.717" y="424.617"/>
      <point x="169" y="411.249"/>
      <point x="169" y="385" type="curve" smooth="yes"/>
      <point x="169" y="385"/>
      <point x="169" y="251"/>
      <point x="169" y="251" type="curve"/>
    </contour>
    <contour>
      <point x="30.0791" y="202" type="curve" smooth="yes"/>
      <point x="169" y="202" type="line" smooth="yes"/>
      <point x="169" y="177.959"/>
      <point x="172.888" y="143"/>
      <point x="225" y="143" type="curve"/>
      <point x="225" y="0" type="line"/>
      <point x="85.7041" y="0"/>
      <point x="30.4199" y="85.7373"/>
    </contour>
    <contour>
      <point x="425" y="0" type="curve"/>
      <point x="425" y="143" type="line"/>
      <point x="477.112" y="143"/>
      <point x="481" y="177.959"/>
      <point x="481" y="202" type="curve" smooth="yes"/>
      <point x="619.921" y="202" type="line" smooth="yes"/>
      <point x="619.58" y="85.7373"/>
      <point x="564.296" y="0"/>
    </contour>
  </outline>
</glyph>
<glyph name="si_MatraAe" format="1">
  <advance width="277"/>
  <unicode hex="0DD0"/>
  <outline>
    <contour>
      <point x="30" y="208" type="curve" smooth="yes"/>
      <point x="30" y="260" type="line" smooth="yes"/>
      <point x="30" y="328.58"/>
      <point x="37.4571" y="343.178"/>
      <point x="90" y="436" type="curve"/>
      <point x="30" y="436" type="line"/>
      <point x="30" y="574" type="line"/>
      <point x="247" y="574" type="line"/>
      <point x="247" y="442" type="line"/>
      <point x="179.741" y="318.241"/>
      <point x="171.059" y="314.551"/>
      <point x="171.177" y="248" type="curve" smooth="yes"/>
      <point x="171" y="202" type="line" smooth="yes"/>
      <point x="171" y="153.207"/>
      <point x="201.803" y="143"/>
      <point x="226" y="143" type="curve" smooth="yes"/>
      <point x="234.854" y="143"/>
      <point x="242.681" y="143"/>
      <point x="247" y="143" type="curve"/>
      <point x="247" y="0" type="line"/>
      <point x="239.533" y="-0.00195312"/>
      <point x="232.23" y="-0.00292969"/>
      <point x="225.19" y="-0.00292969" type="curve" smooth="yes"/>
      <point x="118.365" y="-0.00292969"/>
      <point x="29.8538" y="57.9849"/>
    </contour>
  </outline>
</glyph>
<glyph name="si_MatraI" format="1">
  <advance width="583"/>
  <unicode hex="0DD2"/>
  <outline>
    <contour>
      <point x="30" y="602" type="line"/>
      <point x="30" y="630" type="line"/>
      <point x="29.623" y="723.409"/>
      <point x="106.741" y="789"/>
      <point x="206" y="789" type="curve"/>
      <point x="377" y="789" type="line"/>
      <point x="476.259" y="789"/>
      <point x="553.377" y="723.409"/>
      <point x="553" y="630" type="curve"/>
      <point x="553" y="602" type="line"/>
      <point x="423" y="602" type="line"/>
      <point x="423" y="654.112"/>
      <point x="387.857" y="658"/>
      <point x="361" y="659" type="curve"/>
      <point x="222" y="659" type="line"/>
      <point x="195.143" y="658"/>
      <point x="160" y="654.112"/>
      <point x="160" y="602" type="curve"/>
    </contour>
  </outline>
</glyph>
<glyph name="si_MatraIi" format="1">
  <advance width="0"/>
  <unicode hex="0DD3"/>
  <outline>
    <contour>
      <point x="-215" y="666" type="line"/>
      <point x="-260" y="666" type="line"/>
      <point x="-417" y="666" type="line" smooth="yes"/>
      <point x="-443.857" y="666"/>
      <point x="-479" y="654.112"/>
      <point x="-479" y="602" type="curve"/>
      <point x="-609" y="602" type="line"/>
      <point x="-609" y="637" type="line" smooth="yes"/>
      <point x="-609" y="730.409"/>
      <point x="-532.253" y="796"/>
      <point x="-433" y="796" type="curve" smooth="yes"/>
      <point x="-188" y="796" type="line" smooth="yes"/>
      <point x="-105.643" y="796"/>
      <point x="-49" y="735.531"/>
      <point x="-49" y="666" type="curve" smooth="yes"/>
      <point x="-49" y="601"/>
      <point x="-88" y="553"/>
      <point x="-150" y="553" type="curve" smooth="yes"/>
      <point x="-210.082" y="553"/>
      <point x="-248" y="591.629"/>
      <point x="-248" y="638" type="curve" smooth="yes"/>
      <point x="-248" y="665.41"/>
      <point x="-229.289" y="690.133"/>
      <point x="-215" y="698" type="curve"/>
    </contour>
  </outline>
</glyph>
<glyph name="si_MatraU" format="1">
  <advance width="508"/>
  <unicode hex="0DD4"/>
  <outline>
    <contour>
      <point x="338" y="123" type="line"/>
      <point x="478" y="123" type="line"/>
      <point x="478" y="-205" type="line"/>
      <point x="338" y="-205" type="line"/>
    </contour>
    <contour>
      <point x="268" y="-65" type="line"/>
      <point x="348" y="-65" type="line"/>
      <point x="348" y="-205" type="line"/>
      <point x="268" y="-205" type="line"/>
    </contour>
    <contour>
      <point x="30" y="-65" type="line"/>
      <point x="212" y="-65" type="line"/>
      <point x="212" y="-205" type="line"/>
      <point x="30" y="-205" type="line"/>
    </contour>
  </outline>
</glyph>
<glyph name="si_MatraUu" format="1">
  <advance width="0"/>
  <unicode hex="0DD6"/>
  <outline>
    <contour>
      <point x="-486" y="-39" type="line"/>
      <point x="-459.666" y="-58.333"/>
      <point x="-436.556" y="-64.7773"/>
      <point x="-415.259" y="-64.7773" type="curve" smooth="yes"/>
      <point x="-372.666" y="-64.7773"/>
      <point x="-337.333" y="-42"/>
      <point x="-298" y="-42" type="curve"/>
      <point x="-298" y="-182" type="line"/>
      <point x="-337.333" y="-182"/>
      <point x="-372.666" y="-204.777"/>
      <point x="-415.259" y="-204.777" type="curve" smooth="yes"/>
      <point x="-436.556" y="-204.777"/>
      <point x="-459.666" y="-198.333"/>
      <point x="-486" y="-179" type="curve"/>
    </contour>
    <contour>
      <point x="-172" y="-205" type="line"/>
      <point x="-172" y="123" type="line"/>
      <point x="-32" y="123" type="line"/>
      <point x="-32" y="-205" type="line"/>
    </contour>
    <contour>
      <point x="-242" y="-42" type="line"/>
      <point x="-225" y="-42"/>
      <point x="-194.852" y="-46.167"/>
      <point x="-172" y="-61" type="curve"/>
      <point x="-172" y="-205" type="line"/>
      <point x="-197.894" y="-186.639"/>
      <point x="-221" y="-182"/>
      <point x="-242" y="-182" type="curve"/>
    </contour>
  </outline>
</glyph>
<glyph name="si_MatraR" format="1">
  <advance width="375"/>
  <unicode hex="0DD8"/>
  <outline>
    <contour>
      <point x="188" y="-0.179688" type="curve" smooth="yes"/>
      <point x="107.722" y="-0.179688"/>
      <point x="30" y="54.417"/>
      <point x="30" y="157" type="curve" smooth="yes"/>
      <point x="30" y="236.469"/>
      <point x="74.1611" y="310.377"/>
      <point x="188" y="310.377" type="curve" smooth="yes"/>
      <point x="188" y="310.377"/>
      <point x="188" y="310.377"/>
      <point x="188" y="310.377" type="curve"/>
      <point x="188" y="196.377" type="line"/>
      <point x="188" y="196.377"/>
      <point x="188" y="196.377"/>
      <point x="188" y="196.377" type="curve" smooth="yes"/>
      <point x="163.608" y="196.377"/>
      <point x="147" y="182.938"/>
      <point x="147" y="157" type="curve" smooth="yes"/>
      <point x="147" y="137"/>
      <point x="163.642" y="118.377"/>
      <point x="188" y="118.377" type="curve" smooth="yes"/>
      <point x="207.706" y="118.377"/>
      <point x="225" y="133"/>
      <point x="225" y="157" type="curve" smooth="yes"/>
      <point x="225" y="382.377" type="line"/>
      <point x="224" y="409.234"/>
      <point x="220.112" y="444.377"/>
      <point x="168" y="444.377" type="curve"/>
      <point x="78" y="444.377" type="line"/>
      <point x="78" y="574.377" type="line"/>
      <point x="186" y="574.377" type="line"/>
      <point x="276" y="574"/>
      <point x="345" y="497.636"/>
      <point x="345" y="398.377" type="curve"/>
      <point x="345" y="157" type="line" smooth="yes"/>
      <point x="345" y="50.2568"/>
      <point x="265.16" y="-0.179688"/>
    </contour>
  </outline>
</glyph>
<glyph name="si_MatraE" format="1">
  <advance width="457"/>
  <unicode hex="0DD9"/>
  <outline>
    <contour>
      <point x="249.334" y="434" type="curve"/>
      <point x="249.334" y="564" type="line"/>
      <point x="270.405" y="564" type="line" smooth="yes"/>
      <point x="367.099" y="564"/>
      <point x="416.702" y="487.265"/>
      <point x="423.658" y="430.848" type="curve"/>
      <point x="301.959" y="399.762" type="line"/>
      <point x="298.408" y="421.596"/>
      <point x="278.01" y="434"/>
    </contour>
    <contour>
      <point x="233" y="224" type="line"/>
      <point x="233" y="354.2" type="line"/>
      <point x="320.071" y="354.2" type="line" smooth="yes"/>
      <point x="379" y="354.2"/>
      <point x="427" y="335"/>
      <point x="427" y="255" type="curve" smooth="yes"/>
      <point x="427" y="157" type="line" smooth="yes"/>
      <point x="427" y="69.7471"/>
      <point x="373.668" y="-5"/>
      <point x="288.405" y="-5" type="curve" smooth="yes"/>
      <point x="257.334" y="-5" type="line"/>
      <point x="257.334" y="125" type="line"/>
      <point x="281.232" y="125"/>
      <point x="292" y="140"/>
      <point x="292" y="164" type="curve" smooth="yes"/>
      <point x="292.013" y="197.271" type="line" smooth="yes"/>
      <point x="292.013" y="223.258"/>
      <point x="275.32" y="224"/>
      <point x="248" y="224" type="curve" smooth="yes"/>
    </contour>
    <contour>
      <point x="30" y="198" type="curve" smooth="yes"/>
      <point x="30" y="371" type="line" smooth="yes"/>
      <point x="30" y="449.253"/>
      <point x="63" y="564"/>
      <point x="208.263" y="564" type="curve" smooth="yes"/>
      <point x="249.334" y="564" type="line"/>
      <point x="249.334" y="434" type="line"/>
      <point x="219.334" y="434" type="line"/>
      <point x="189.779" y="434"/>
      <point x="165" y="410.398"/>
      <point x="165" y="371" type="curve" smooth="yes"/>
      <point x="165" y="198" type="line" smooth="yes"/>
      <point x="165" y="158.602"/>
      <point x="169.779" y="125"/>
      <point x="209.334" y="125" type="curve"/>
      <point x="209.334" y="-5" type="line"/>
      <point x="188.263" y="-5" type="line" smooth="yes"/>
      <point x="43" y="-5"/>
      <point x="30" y="139.747"/>
    </contour>
  </outline>
</glyph>
<glyph name="si_MatraLs" format="1">
  <advance width="424"/>
  <unicode hex="0DDF"/>
  <outline>
    <contour>
      <point x="208.387" y="-7.95996" type="curve" smooth="yes"/>
      <point x="118.607" y="-7.95996"/>
      <point x="30" y="48.5518"/>
      <point x="30" y="166" type="curve" smooth="yes"/>
      <point x="30" y="202" type="line"/>
      <point x="157" y="202" type="line"/>
      <point x="157" y="166" type="line" smooth="yes"/>
      <point x="157" y="130.447"/>
      <point x="185.963" y="111.111"/>
      <point x="214.165" y="111.111" type="curve" smooth="yes"/>
      <point x="240.925" y="111.111"/>
      <point x="267" y="128.519"/>
      <point x="267" y="166" type="curve" smooth="yes"/>
      <point x="267" y="423" type="line" smooth="yes"/>
      <point x="267" y="436"/>
      <point x="259.342" y="443.08"/>
      <point x="251.639" y="443.08" type="curve" smooth="yes"/>
      <point x="243.843" y="443.08"/>
      <point x="236" y="436.306"/>
      <point x="236" y="423" type="curve" smooth="yes"/>
      <point x="236" y="375" type="line" smooth="yes"/>
      <point x="236" y="318.872"/>
      <point x="189.254" y="288.449"/>
      <point x="140.298" y="288.449" type="curve" smooth="yes"/>
      <point x="86.4844" y="288.449"/>
      <point x="30" y="325.21"/>
      <point x="30" y="405" type="curve" smooth="yes"/>
      <point x="30" y="564" type="line"/>
      <point x="122" y="564" type="line"/>
      <point x="122" y="443" type="line" smooth="yes"/>
      <point x="122" y="431.763"/>
      <point x="129.784" y="426.107"/>
      <point x="137.55" y="426.107" type="curve" smooth="yes"/>
      <point x="145.284" y="426.107"/>
      <point x="153" y="431.714"/>
      <point x="153" y="443" type="curve" smooth="yes"/>
      <point x="153" y="462" type="line" smooth="yes"/>
      <point x="153" y="535.112"/>
      <point x="209.604" y="571.401"/>
      <point x="269.265" y="571.401" type="curve" smooth="yes"/>
      <point x="329.902" y="571.401"/>
      <point x="391.783" y="525.674"/>
      <point x="394" y="437" type="curve" smooth="yes"/>
      <point x="394" y="166" type="line" smooth="yes"/>
      <point x="394" y="51.624"/>
      <point x="300.575" y="-7.95996"/>
    </contour>
  </outline>
</glyph>
<glyph name="si_kundaliya" format="1">
  <advance width="1000"/>
  <unicode hex="0DF4"/>
  <outline>
    <contour>
      <point x="647" y="64" type="line"/>
      <point x="614" y="0" type="line"/>
      <point x="714" y="0" type="line"/>
      <point x="728" y="27" type="line"/>
    </contour>
    <contour>
      <point x="597" y="162" type="line"/>
      <point x="514" y="0" type="line"/>
      <point x="614" y="0" type="line"/>
      <point x="679" y="126" type="line"/>
    </contour>
    <contour>
      <point x="546" y="258" type="line"/>
      <point x="456" y="83" type="line"/>
      <point x="514" y="0" type="line"/>
      <point x="626" y="219" type="line"/>
    </contour>
    <contour>
      <point x="505" y="372" type="line"/>
      <point x="362" y="94" type="line"/>
      <point x="430" y="32" type="line"/>
      <point x="584" y="332" type="line"/>
    </contour>
    <contour>
      <point x="384" y="331" type="line"/>
      <point x="250" y="70" type="line"/>
      <point x="319" y="10" type="line"/>
      <point x="453" y="271" type="line"/>
    </contour>
    <contour>
      <point x="260" y="285" type="line"/>
      <point x="145" y="60" type="line"/>
      <point x="214" y="0" type="line"/>
      <point x="326" y="218" type="line"/>
    </contour>
    <contour>
      <point x="129" y="224" type="line"/>
      <point x="16" y="0" type="line"/>
      <point x="114" y="0" type="line"/>
      <point x="194" y="156" type="line"/>
    </contour>
  </outline>
</glyph>
<glyph name="zwj" format="1">
  <advance width="0"/>
  <unicode hex="200D"/>
  <outline>
    <contour>
      <point x="-30" y="9" type="line"/>
      <point x="-30" y="629" type="line"/>
      <point x="30" y="629" type="line"/>
      <point x="30" y="9" type="line"/>
    </contour>
    <contour>
      <point x="-144.522" y="488.881" type="line"/>
      <point x="-178.587" y="538.273" type="line"/>
      <point x="144.936" y="761.393" type="line"/>
      <point x="179" y="712" type="line"/>
    </contour>
    <contour>
      <point x="179.458" y="538.273" type="line"/>
      <point x="145.394" y="488.881" type="line"/>
      <point x="-178.129" y="712" type="line"/>
      <point x="-144.064" y="761.393" type="line"/>
    </contour>
  </outline>
</glyph>
<glyph name="si_Ya.post.MatraI" format="1">
  <advance width="498"/>
  <outline>
    <contour>
      <point x="38" y="632" type="line"/>
      <point x="38" y="660" type="line" smooth="yes"/>
      <point x="38" y="753.409"/>
      <point x="114.741" y="819"/>
      <point x="214" y="819" type="curve"/>
      <point x="302" y="819" type="line"/>
      <point x="401.259" y="819"/>
      <point x="478" y="753.409"/>
      <point x="478" y="660" type="curve" smooth="yes"/>
      <point x="478" y="632" type="line"/>
      <point x="348" y="632" type="line"/>
      <point x="348" y="684.112"/>
      <point x="312.857" y="688"/>
      <point x="286" y="689" type="curve"/>
      <point x="230" y="689" type="line"/>
      <point x="203.143" y="688"/>
      <point x="168" y="684.112"/>
      <point x="168" y="632" type="curve"/>
    </contour>
    <component base="si_Ya.post"/>
  </outline>
</glyph>
<glyph name="si_B.halant" format="1">
  <advance width="609"/>
  <outline>
    <contour>
      <point x="38" y="512" type="line"/>
      <point x="38" y="652" type="line"/>
      <point x="79" y="652" type="line"/>
      <point x="62.708" y="652"/>
      <point x="52.543" y="678.371"/>
      <point x="52.543" y="710.154" type="curve" smooth="yes"/>
      <point x="52.543" y="758.353"/>
      <point x="89.7178" y="819"/>
      <point x="220" y="819" type="curve" smooth="yes"/>
      <point x="284.667" y="819" type="line"/>
      <point x="284.667" y="703" type="line"/>
      <point x="228.667" y="703" type="line" smooth="yes"/>
      <point x="199.729" y="703"/>
      <point x="193.409" y="688.847"/>
      <point x="193.409" y="676.362" type="curve" smooth="yes"/>
      <point x="193.409" y="661.503"/>
      <point x="206.732" y="652"/>
      <point x="228.667" y="652" type="curve" smooth="yes"/>
      <point x="347.667" y="652" type="line"/>
      <point x="347.667" y="512" type="line"/>
    </contour>
    <contour>
      <point x="430.667" y="673" type="line"/>
      <point x="430.667" y="700"/>
      <point x="406" y="703"/>
      <point x="360.667" y="703" type="curve" smooth="yes"/>
      <point x="340.167" y="703" type="line"/>
      <point x="340.167" y="819" type="line"/>
      <point x="392.667" y="819" type="line" smooth="yes"/>
      <point x="541.026" y="819"/>
      <point x="566" y="756"/>
      <point x="566" y="673" type="curve"/>
    </contour>
    <contour>
      <point x="30" y="187" type="curve" smooth="yes"/>
      <point x="30" y="283" type="line" smooth="yes"/>
      <point x="30" y="390.84"/>
      <point x="122.007" y="451.906"/>
      <point x="211.942" y="451.906" type="curve" smooth="yes"/>
      <point x="297.918" y="451.906"/>
      <point x="382" y="396.099"/>
      <point x="382" y="272" type="curve" smooth="yes"/>
      <point x="382" y="174" type="line" smooth="yes"/>
      <point x="382" y="149.773"/>
      <point x="396.243" y="137.668"/>
      <point x="410.49" y="137.668" type="curve" smooth="yes"/>
      <point x="424.743" y="137.668"/>
      <point x="439" y="149.784"/>
      <point x="439" y="174" type="curve"/>
      <point x="439" y="214" type="line"/>
      <point x="579" y="214" type="line"/>
      <point x="579" y="174" type="line"/>
      <point x="579" y="51.6348"/>
      <point x="487.997" y="-8.05762"/>
      <point x="401.28" y="-8.05762" type="curve" smooth="yes"/>
      <point x="322.365" y="-8.05762"/>
      <point x="247" y="41.377"/>
      <point x="247" y="138" type="curve" smooth="yes"/>
      <point x="247" y="267" type="line" smooth="yes"/>
      <point x="247" y="297.832"/>
      <point x="225.734" y="313.285"/>
      <point x="204.476" y="313.285" type="curve" smooth="yes"/>
      <point x="183.251" y="313.285"/>
      <point x="162.035" y="297.881"/>
      <point x="162" y="267" type="curve" smooth="yes"/>
      <point x="161.917" y="193" type="line" smooth="yes"/>
      <point x="162" y="151"/>
      <point x="180.457" y="140"/>
      <point x="211" y="140" type="curve"/>
      <point x="211" y="0" type="line"/>
      <point x="91.1055" y="0"/>
      <point x="30" y="55"/>
    </contour>
    <contour>
      <point x="439" y="444" type="line" smooth="yes"/>
      <point x="439" y="504"/>
      <point x="397.403" y="512"/>
      <point x="347.667" y="512" type="curve"/>
      <point x="347.667" y="652" type="line"/>
      <point x="507.305" y="652"/>
      <point x="579" y="590"/>
      <point x="579" y="473" type="curve" smooth="yes"/>
      <point x="579" y="214" type="line"/>
      <point x="439" y="214" type="line"/>
    </contour>
  </outline>
</glyph>
<glyph name="si_BI" format="1">
  <advance width="609"/>
  <outline>
    <contour>
      <point x="30" y="187" type="curve" smooth="yes"/>
      <point x="30" y="283" type="line" smooth="yes"/>
      <point x="30" y="390.84"/>
      <point x="122.007" y="451.906"/>
      <point x="211.942" y="451.906" type="curve" smooth="yes"/>
      <point x="297.918" y="451.906"/>
      <point x="382" y="396.099"/>
      <point x="382" y="272" type="curve" smooth="yes"/>
      <point x="382" y="174" type="line" smooth="yes"/>
      <point x="382" y="149.773"/>
      <point x="396.243" y="137.668"/>
      <point x="410.49" y="137.668" type="curve" smooth="yes"/>
      <point x="424.743" y="137.668"/>
      <point x="439" y="149.784"/>
      <point x="439" y="174" type="curve"/>
      <point x="439" y="214" type="line"/>
      <point x="579" y="214" type="line"/>
      <point x="579" y="174" type="line"/>
      <point x="579" y="51.6348"/>
      <point x="487.997" y="-8.05762"/>
      <point x="401.28" y="-8.05762" type="curve" smooth="yes"/>
      <point x="322.365" y="-8.05762"/>
      <point x="247" y="41.377"/>
      <point x="247" y="138" type="curve" smooth="yes"/>
      <point x="247" y="267" type="line" smooth="yes"/>
      <point x="247" y="297.832"/>
      <point x="225.734" y="313.285"/>
      <point x="204.476" y="313.285" type="curve" smooth="yes"/>
      <point x="183.251" y="313.285"/>
      <point x="162.035" y="297.881"/>
      <point x="162" y="267" type="curve" smooth="yes"/>
      <point x="161.917" y="193" type="line" smooth="yes"/>
      <point x="162" y="151"/>
      <point x="180.457" y="140"/>
      <point x="211" y="140" type="curve"/>
      <point x="211" y="0" type="line"/>
      <point x="91.1055" y="0"/>
      <point x="30" y="55"/>
    </contour>
    <contour>
      <point x="207.667" y="512" type="line" smooth="yes"/>
      <point x="89.542" y="512"/>
      <point x="30.292" y="570.065"/>
      <point x="30.292" y="670.735" type="curve" smooth="yes"/>
      <point x="30.292" y="744.907"/>
      <point x="89.292" y="819"/>
      <point x="207.667" y="819" type="curve"/>
      <point x="285.667" y="819" type="line"/>
      <point x="285.667" y="703" type="line"/>
      <point x="186.667" y="703" type="line"/>
      <point x="166.167" y="703"/>
      <point x="155.917" y="690.25"/>
      <point x="155.917" y="677.5" type="curve" smooth="yes"/>
      <point x="155.917" y="664.75"/>
      <point x="166.167" y="652"/>
      <point x="186.667" y="652" type="curve" smooth="yes"/>
      <point x="347.667" y="652" type="line"/>
      <point x="347.667" y="512" type="line"/>
    </contour>
    <contour>
      <point x="439" y="214" type="line"/>
      <point x="439" y="446" type="line" smooth="yes"/>
      <point x="439" y="504"/>
      <point x="397.403" y="512"/>
      <point x="347.667" y="512" type="curve"/>
      <point x="347.667" y="652" type="line"/>
      <point x="507.305" y="652"/>
      <point x="579" y="590"/>
      <point x="579" y="473" type="curve" smooth="yes"/>
      <point x="579" y="214" type="line"/>
    </contour>
    <contour>
      <point x="341.167" y="703" type="line"/>
      <point x="341.167" y="819" type="line"/>
      <point x="392.667" y="819" type="line" smooth="yes"/>
      <point x="521.026" y="819"/>
      <point x="566" y="756"/>
      <point x="566" y="673" type="curve"/>
      <point x="430.667" y="673" type="line"/>
      <point x="430.667" y="700"/>
      <point x="406" y="703"/>
      <point x="360.667" y="703" type="curve" smooth="yes"/>
    </contour>
  </outline>
</glyph>
<glyph name="si_BIi" format="1">
  <advance width="609"/>
  <outline>
    <contour>
      <point x="325" y="829" type="line" smooth="yes"/>
      <point x="438" y="829" type="line" smooth="yes"/>
      <point x="520.357" y="829"/>
      <point x="578" y="780.531"/>
      <point x="578" y="711" type="curve" smooth="yes"/>
      <point x="578" y="648"/>
      <point x="543" y="605"/>
      <point x="489" y="605" type="curve" smooth="yes"/>
      <point x="443.918" y="605"/>
      <point x="393" y="632.629"/>
      <point x="393" y="679" type="curve" smooth="yes"/>
      <point x="393" y="709.41"/>
      <point x="418" y="731"/>
      <point x="432" y="731" type="curve"/>
      <point x="432" y="713" type="line"/>
      <point x="393" y="713" type="line"/>
      <point x="325" y="713" type="line" smooth="yes"/>
    </contour>
    <contour>
      <point x="30" y="187" type="curve" smooth="yes"/>
      <point x="30" y="283" type="line" smooth="yes"/>
      <point x="30" y="390.84"/>
      <point x="122.007" y="451.906"/>
      <point x="211.942" y="451.906" type="curve" smooth="yes"/>
      <point x="297.918" y="451.906"/>
      <point x="382" y="396.099"/>
      <point x="382" y="272" type="curve" smooth="yes"/>
      <point x="382" y="174" type="line" smooth="yes"/>
      <point x="382" y="149.773"/>
      <point x="396.243" y="137.668"/>
      <point x="410.49" y="137.668" type="curve" smooth="yes"/>
      <point x="424.743" y="137.668"/>
      <point x="439" y="149.784"/>
      <point x="439" y="174" type="curve" smooth="yes"/>
      <point x="439" y="456" type="line" smooth="yes"/>
      <point x="439" y="514"/>
      <point x="397.403" y="522"/>
      <point x="347.667" y="522" type="curve" smooth="yes"/>
      <point x="217" y="522" type="line" smooth="yes"/>
      <point x="98.8486" y="522"/>
      <point x="49.625" y="601.374"/>
      <point x="49.625" y="675.686" type="curve" smooth="yes"/>
      <point x="49.625" y="749.874"/>
      <point x="108.651" y="829"/>
      <point x="227" y="829" type="curve" smooth="yes"/>
      <point x="269" y="829" type="line"/>
      <point x="269" y="713" type="line"/>
      <point x="216" y="713" type="line" smooth="yes"/>
      <point x="188.558" y="713"/>
      <point x="179.36" y="693.518"/>
      <point x="179.36" y="679.028" type="curve" smooth="yes"/>
      <point x="179.36" y="664.518"/>
      <point x="188.589" y="644"/>
      <point x="216" y="644" type="curve" smooth="yes"/>
      <point x="350.667" y="643.992" type="line"/>
      <point x="508.203" y="643.219"/>
      <point x="579" y="581.265"/>
      <point x="579" y="465" type="curve" smooth="yes"/>
      <point x="579" y="174" type="line" smooth="yes"/>
      <point x="579" y="51.6348"/>
      <point x="487.997" y="-8.05762"/>
      <point x="401.28" y="-8.05762" type="curve" smooth="yes"/>
      <point x="322.365" y="-8.05762"/>
      <point x="247" y="41.377"/>
      <point x="247" y="138" type="curve" smooth="yes"/>
      <point x="247" y="267" type="line" smooth="yes"/>
      <point x="247" y="297.832"/>
      <point x="225.734" y="313.285"/>
      <point x="204.476" y="313.285" type="curve" smooth="yes"/>
      <point x="183.251" y="313.285"/>
      <point x="162.035" y="297.881"/>
      <point x="162" y="267" type="curve" smooth="yes"/>
      <point x="161.917" y="193" type="line" smooth="yes"/>
      <point x="162" y="151"/>
      <point x="180.457" y="140"/>
      <point x="211" y="140" type="curve"/>
      <point x="211" y="0" type="line"/>
      <point x="91.1055" y="0"/>
      <point x="30" y="55"/>
    </contour>
  </outline>
</glyph>
<glyph name="si_BR.halant" format="1">
  <advance width="609"/>
  <outline>
    <contour>
      <point x="338.115" y="-233.947" type="curve"/>
      <point x="338" y="-103" type="line"/>
      <point x="426.74" y="-103"/>
      <point x="451.39" y="-67.9805"/>
      <point x="451.39" y="-38.7807" type="curve" smooth="yes"/>
      <point x="451.39" y="-17.9028"/>
      <point x="438.788" y="-3.55271e-15"/>
      <point x="428" y="0" type="curve"/>
      <point x="561" y="89" type="line"/>
      <point x="583.092" y="51.311"/>
      <point x="594.131" y="10.9717"/>
      <point x="594.131" y="-27.9808" type="curve" smooth="yes"/>
      <point x="594.131" y="-136.329"/>
      <point x="508.723" y="-233.947"/>
    </contour>
    <contour>
      <point x="283.115" y="-233.947" type="line"/>
      <point x="149" y="-234"/>
      <point x="34.833" y="-167.027"/>
      <point x="34.833" y="-37.0908" type="curve"/>
      <point x="175.833" y="-37.0908" type="line"/>
      <point x="175.833" y="-72.625"/>
      <point x="214.901" y="-103"/>
      <point x="283" y="-103" type="curve"/>
    </contour>
    <component base="si_B.halant"/>
  </outline>
</glyph>
<glyph name="si_BRa" format="1">
  <advance width="609"/>
  <outline>
    <contour>
      <point x="338" y="-103" type="line"/>
      <point x="490.188" y="-103"/>
      <point x="453.877" y="0"/>
      <point x="428" y="0" type="curve"/>
      <point x="561" y="89" type="line"/>
      <point x="644.554" y="-53.5439"/>
      <point x="570" y="-234"/>
      <point x="338.115" y="-233.947" type="curve"/>
    </contour>
    <contour>
      <point x="283.115" y="-233.947" type="line"/>
      <point x="149" y="-234"/>
      <point x="34.833" y="-167.027"/>
      <point x="34.833" y="-37.0908" type="curve"/>
      <point x="175.833" y="-37.0908" type="line"/>
      <point x="175.833" y="-72.625"/>
      <point x="214.901" y="-103"/>
      <point x="283" y="-103" type="curve"/>
    </contour>
    <component base="si_Ba"/>
  </outline>
</glyph>
<glyph name="si_BhRI" format="1">
  <advance width="754"/>
  <outline>
    <contour>
      <point x="426" y="-103" type="line"/>
      <point x="435" y="-103" type="line" smooth="yes"/>
      <point x="583" y="-103"/>
      <point x="584.25" y="0"/>
      <point x="559" y="0" type="curve"/>
      <point x="692" y="89" type="line"/>
      <point x="763.992" y="-37.9238"/>
      <point x="673" y="-234"/>
      <point x="463" y="-234" type="curve" smooth="yes"/>
      <point x="426.115" y="-233.947" type="line"/>
    </contour>
    <contour>
      <point x="371.115" y="-233.947" type="line"/>
      <point x="343" y="-234" type="line" smooth="yes"/>
      <point x="218" y="-234"/>
      <point x="93.833" y="-165.25"/>
      <point x="93.833" y="-37.0908" type="curve"/>
      <point x="234.833" y="-37.0908" type="line"/>
      <point x="234.833" y="-72.5898"/>
      <point x="287" y="-103"/>
      <point x="351" y="-103" type="curve" smooth="yes"/>
      <point x="371" y="-103" type="line"/>
    </contour>
    <component base="si_BhI"/>
  </outline>
</glyph>
<glyph name="si_C.halant" format="1">
  <advance width="565"/>
  <outline>
    <contour>
      <point x="-6" y="252" type="line"/>
      <point x="-6" y="354" type="line"/>
      <point x="211" y="354" type="line"/>
      <point x="211" y="360" type="line"/>
      <point x="211.053" y="389.333"/>
      <point x="189.721" y="400"/>
      <point x="169" y="400" type="curve" smooth="yes"/>
      <point x="159.147" y="400"/>
      <point x="133.971" y="397"/>
      <point x="129" y="376" type="curve"/>
      <point x="30" y="402" type="line"/>
      <point x="56.4043" y="489.737"/>
      <point x="132.592" y="503"/>
      <point x="169" y="503" type="curve" smooth="yes"/>
      <point x="212.907" y="503"/>
      <point x="257.606" y="486.114"/>
      <point x="281" y="459" type="curve" smooth="yes"/>
      <point x="304.371" y="431.912"/>
      <point x="314" y="406"/>
      <point x="314" y="350" type="curve" smooth="yes"/>
      <point x="314" y="252" type="line"/>
      <point x="230" y="252" type="line" smooth="yes"/>
      <point x="192.72" y="252"/>
      <point x="171.981" y="224.45"/>
      <point x="171.981" y="196.088" type="curve" smooth="yes"/>
      <point x="171.981" y="166.001"/>
      <point x="195.318" y="135"/>
      <point x="247" y="135" type="curve"/>
      <point x="247" y="-5" type="line"/>
      <point x="119.558" y="-5"/>
      <point x="33" y="87.2324"/>
      <point x="33" y="192" type="curve" smooth="yes"/>
      <point x="33" y="212.029"/>
      <point x="33.5162" y="232.24"/>
      <point x="44.3096" y="252" type="curve"/>
    </contour>
    <contour>
      <point x="59.0303" y="707.438" type="curve" smooth="yes"/>
      <point x="59.0303" y="780.907"/>
      <point x="135.952" y="819"/>
      <point x="247" y="819" type="curve"/>
      <point x="247" y="703" type="line"/>
      <point x="224" y="703" type="line" smooth="yes"/>
      <point x="195.062" y="703"/>
      <point x="188.742" y="688.847"/>
      <point x="188.742" y="676.362" type="curve" smooth="yes"/>
      <point x="188.742" y="661.503"/>
      <point x="202.065" y="652"/>
      <point x="224" y="652" type="curve"/>
      <point x="245" y="652" type="line"/>
      <point x="245" y="522" type="line"/>
      <point x="237" y="522" type="line"/>
      <point x="101.825" y="522"/>
      <point x="89.8486" y="607.591"/>
      <point x="89.8486" y="651.652" type="curve"/>
      <point x="75.2352" y="652.028"/>
      <point x="59.0303" y="677.386"/>
    </contour>
    <contour>
      <point x="303" y="522" type="curve"/>
      <point x="303" y="652" type="line"/>
      <point x="462.638" y="652"/>
      <point x="534.333" y="589.89"/>
      <point x="534.333" y="474" type="curve" smooth="yes"/>
      <point x="534.333" y="238" type="line" smooth="yes"/>
      <point x="534.333" y="138.591"/>
      <point x="499.333" y="-5"/>
      <point x="303.333" y="-5" type="curve"/>
      <point x="303.333" y="135" type="line"/>
      <point x="384.333" y="135"/>
      <point x="394.333" y="183.181"/>
      <point x="394.333" y="255" type="curve" smooth="yes"/>
      <point x="394.333" y="455" type="line" smooth="yes"/>
      <point x="394.333" y="513.936"/>
      <point x="352.736" y="522"/>
    </contour>
    <contour>
      <point x="302.5" y="703" type="line"/>
      <point x="302.5" y="819" type="line"/>
      <point x="348" y="819" type="line" smooth="yes"/>
      <point x="496.359" y="819"/>
      <point x="521.333" y="756"/>
      <point x="521.333" y="673" type="curve"/>
      <point x="386" y="673" type="line"/>
      <point x="386" y="700"/>
      <point x="361.333" y="703"/>
      <point x="316" y="703" type="curve" smooth="yes"/>
    </contour>
    <contour>
      <point x="53.333" y="522" type="line"/>
      <point x="53.333" y="652" type="line"/>
      <point x="245.333" y="652" type="line"/>
      <point x="245.333" y="522" type="line"/>
    </contour>
    <contour>
      <point x="245" y="522" type="line"/>
      <point x="245" y="652" type="line"/>
      <point x="303" y="652" type="line"/>
      <point x="303" y="522" type="line"/>
    </contour>
  </outline>
</glyph>
<glyph name="si_CI" format="1">
  <advance width="601"/>
  <outline>
    <contour>
      <point x="30" y="252" type="line"/>
      <point x="30" y="354" type="line"/>
      <point x="247" y="354" type="line"/>
      <point x="247" y="360" type="line"/>
      <point x="247.053" y="389.333"/>
      <point x="225.721" y="400"/>
      <point x="205" y="400" type="curve" smooth="yes"/>
      <point x="195.147" y="400"/>
      <point x="169.971" y="397"/>
      <point x="165" y="376" type="curve"/>
      <point x="66" y="402" type="line"/>
      <point x="92.4043" y="489.737"/>
      <point x="168.592" y="503"/>
      <point x="205" y="503" type="curve" smooth="yes"/>
      <point x="248.907" y="503"/>
      <point x="293.606" y="486.114"/>
      <point x="317" y="459" type="curve" smooth="yes"/>
      <point x="340.371" y="431.912"/>
      <point x="350" y="406"/>
      <point x="350" y="350" type="curve" smooth="yes"/>
      <point x="350" y="252" type="line"/>
      <point x="266" y="252" type="line" smooth="yes"/>
      <point x="228.72" y="252"/>
      <point x="207.981" y="224.45"/>
      <point x="207.981" y="196.088" type="curve" smooth="yes"/>
      <point x="207.981" y="166.001"/>
      <point x="231.318" y="135"/>
      <point x="283" y="135" type="curve"/>
      <point x="283" y="-5" type="line"/>
      <point x="155.558" y="-5"/>
      <point x="69" y="87.2324"/>
      <point x="69" y="192" type="curve" smooth="yes"/>
      <point x="69" y="212.029"/>
      <point x="70.5166" y="233.24"/>
      <point x="80.3096" y="252" type="curve"/>
    </contour>
    <contour>
      <point x="246" y="522" type="line"/>
      <point x="127.875" y="522"/>
      <point x="68.625" y="576.407"/>
      <point x="68.625" y="670.735" type="curve" smooth="yes"/>
      <point x="68.625" y="744.907"/>
      <point x="127.625" y="819"/>
      <point x="246" y="819" type="curve"/>
      <point x="283" y="819" type="line"/>
      <point x="283" y="703" type="line"/>
      <point x="225" y="703" type="line"/>
      <point x="204.5" y="703"/>
      <point x="194.25" y="690.25"/>
      <point x="194.25" y="677.5" type="curve" smooth="yes"/>
      <point x="194.25" y="664.75"/>
      <point x="204.5" y="652"/>
      <point x="225" y="652" type="curve"/>
      <point x="225" y="652"/>
      <point x="339" y="652"/>
      <point x="339" y="652" type="curve"/>
      <point x="339" y="522" type="line"/>
    </contour>
    <contour>
      <point x="339.333" y="-5" type="curve"/>
      <point x="339.333" y="135" type="line"/>
      <point x="422.333" y="135"/>
      <point x="430.333" y="185.885"/>
      <point x="430.333" y="258" type="curve" smooth="yes"/>
      <point x="430.333" y="455" type="line" smooth="yes"/>
      <point x="430.333" y="513.935"/>
      <point x="388.736" y="522"/>
      <point x="339" y="522" type="curve"/>
      <point x="339" y="652" type="line"/>
      <point x="498.638" y="652"/>
      <point x="570.333" y="589.889"/>
      <point x="570.333" y="474" type="curve" smooth="yes"/>
      <point x="570.333" y="238" type="line" smooth="yes"/>
      <point x="570.333" y="138.591"/>
      <point x="535.333" y="-5"/>
    </contour>
    <contour>
      <point x="338.5" y="703" type="line"/>
      <point x="338.5" y="819" type="line"/>
      <point x="384" y="819" type="line" smooth="yes"/>
      <point x="512.359" y="819"/>
      <point x="557.333" y="756"/>
      <point x="557.333" y="673" type="curve"/>
      <point x="422" y="673" type="line"/>
      <point x="422" y="700"/>
      <point x="397.333" y="703"/>
      <point x="352" y="703" type="curve" smooth="yes"/>
    </contour>
  </outline>
</glyph>
<glyph name="si_CIi" format="1">
  <advance width="611"/>
  <outline>
    <contour>
      <point x="358" y="711" type="curve" smooth="yes"/>
      <point x="358" y="771"/>
      <point x="406" y="819"/>
      <point x="466" y="819" type="curve" smooth="yes"/>
      <point x="526" y="819"/>
      <point x="574" y="771"/>
      <point x="574" y="711" type="curve" smooth="yes"/>
      <point x="574" y="651"/>
      <point x="526" y="603"/>
      <point x="466" y="603" type="curve" smooth="yes"/>
      <point x="406" y="603"/>
      <point x="358" y="651"/>
    </contour>
    <contour>
      <point x="339" y="703" type="line"/>
      <point x="339" y="819" type="line"/>
      <point x="466" y="819" type="line"/>
      <point x="466" y="703" type="line"/>
    </contour>
    <contour>
      <point x="235" y="645" type="curve" smooth="yes"/>
      <point x="281" y="645" type="line"/>
      <point x="343" y="645" type="line"/>
      <point x="343" y="522" type="line"/>
      <point x="281" y="522" type="line"/>
      <point x="246" y="522" type="line" smooth="yes"/>
      <point x="9.89551" y="522"/>
      <point x="9.10449" y="819"/>
      <point x="246" y="819" type="curve" smooth="yes"/>
      <point x="283" y="819" type="line"/>
      <point x="283" y="703" type="line"/>
      <point x="235" y="703" type="line" smooth="yes"/>
      <point x="186.085" y="703"/>
      <point x="186.209" y="645"/>
    </contour>
    <contour>
      <point x="30" y="252" type="line"/>
      <point x="30" y="354" type="line"/>
      <point x="247" y="354" type="line"/>
      <point x="247" y="360" type="line"/>
      <point x="247.053" y="389.333"/>
      <point x="225.721" y="400"/>
      <point x="205" y="400" type="curve" smooth="yes"/>
      <point x="195.146" y="400"/>
      <point x="169.972" y="397"/>
      <point x="165" y="376" type="curve"/>
      <point x="66" y="402" type="line"/>
      <point x="92.4043" y="489.737"/>
      <point x="168.592" y="503"/>
      <point x="205" y="503" type="curve" smooth="yes"/>
      <point x="248.907" y="503"/>
      <point x="293.606" y="486.113"/>
      <point x="317" y="459" type="curve" smooth="yes"/>
      <point x="340.371" y="431.912"/>
      <point x="350" y="406"/>
      <point x="350" y="350" type="curve" smooth="yes"/>
      <point x="350" y="252" type="line"/>
      <point x="266" y="252" type="line" smooth="yes"/>
      <point x="228.72" y="252"/>
      <point x="207.981" y="224.45"/>
      <point x="207.981" y="196.088" type="curve" smooth="yes"/>
      <point x="207.981" y="166.001"/>
      <point x="231.317" y="135"/>
      <point x="283" y="135" type="curve"/>
      <point x="283" y="-5" type="line"/>
      <point x="155.558" y="-5"/>
      <point x="69" y="87.2324"/>
      <point x="69" y="192" type="curve" smooth="yes"/>
      <point x="69" y="212.028"/>
      <point x="70.5166" y="233.24"/>
      <point x="80.3096" y="252" type="curve"/>
    </contour>
    <contour>
      <point x="339" y="522" type="curve"/>
      <point x="339" y="645" type="line"/>
      <point x="351.176" y="645"/>
      <point x="372.84" y="644.918"/>
      <point x="384" y="644.92" type="curve" smooth="yes"/>
      <point x="516.62" y="644.946"/>
      <point x="570.333" y="596.228"/>
      <point x="570.333" y="474" type="curve" smooth="yes"/>
      <point x="570.333" y="238" type="line" smooth="yes"/>
      <point x="570.333" y="138.591"/>
      <point x="535.782" y="-5"/>
      <point x="339.5" y="-5" type="curve"/>
      <point x="339.5" y="135" type="line"/>
      <point x="416.753" y="135"/>
      <point x="430.333" y="180.362"/>
      <point x="430.333" y="244" type="curve" smooth="yes"/>
      <point x="430.333" y="455" type="line" smooth="yes"/>
      <point x="430.333" y="513.936"/>
      <point x="388.736" y="522"/>
    </contour>
  </outline>
</glyph>
<glyph name="si_Ch.halant" format="1">
  <advance width="655"/>
  <outline>
    <contour>
      <point x="315.001" y="529" type="line"/>
      <point x="322.685" y="529" type="line"/>
      <point x="446.001" y="696" type="line"/>
      <point x="446.001" y="819" type="line"/>
      <point x="315.001" y="819" type="line"/>
    </contour>
    <component base="si_Cha"/>
  </outline>
</glyph>
<glyph name="si_ChIi" format="1">
  <advance width="628"/>
  <outline>
    <contour>
      <point x="520" y="690" type="curve" smooth="yes"/>
      <point x="520" y="626"/>
      <point x="573" y="574"/>
      <point x="638" y="574" type="curve" smooth="yes"/>
      <point x="703" y="574"/>
      <point x="756" y="626"/>
      <point x="756" y="690" type="curve" smooth="yes"/>
      <point x="756" y="754"/>
      <point x="703" y="806"/>
      <point x="638" y="806" type="curve" smooth="yes"/>
      <point x="573" y="806"/>
      <point x="520" y="754"/>
    </contour>
    <contour>
      <point x="30" y="460" type="curve"/>
      <point x="148" y="421" type="line"/>
      <point x="152.416" y="436"/>
      <point x="167.217" y="451"/>
      <point x="195" y="451" type="curve" smooth="yes"/>
      <point x="210.331" y="451"/>
      <point x="250" y="441.891"/>
      <point x="250" y="402" type="curve"/>
      <point x="198" y="402" type="line" smooth="yes"/>
      <point x="101" y="402"/>
      <point x="35" y="373"/>
      <point x="35" y="251" type="curve"/>
      <point x="174" y="251" type="line"/>
      <point x="174.001" y="262.104"/>
      <point x="175.738" y="283"/>
      <point x="209" y="283" type="curve" smooth="yes"/>
      <point x="426" y="283" type="line" smooth="yes"/>
      <point x="455" y="283"/>
      <point x="455" y="263"/>
      <point x="455" y="251" type="curve"/>
      <point x="594" y="251" type="line"/>
      <point x="594" y="286.551"/>
      <point x="568.433" y="314.061"/>
      <point x="519.358" y="335.237" type="curve"/>
      <point x="339" y="335" type="line"/>
      <point x="314" y="536" type="line"/>
      <point x="277.783" y="561.654"/>
      <point x="234.893" y="574.548"/>
      <point x="193.252" y="574.548" type="curve" smooth="yes"/>
      <point x="121.808" y="574.548"/>
      <point x="54.0459" y="536.591"/>
    </contour>
    <contour>
      <point x="34" y="202" type="line"/>
      <point x="34" y="59.2461"/>
      <point x="112" y="-12"/>
      <point x="289" y="-12" type="curve" smooth="yes"/>
      <point x="342" y="-12" type="line" smooth="yes"/>
      <point x="511" y="-12"/>
      <point x="594" y="64"/>
      <point x="594" y="202" type="curve"/>
      <point x="594" y="262" type="line"/>
      <point x="594" y="316.097"/>
      <point x="574.321" y="360"/>
      <point x="496" y="360" type="curve"/>
      <point x="457.17" y="360" type="line"/>
      <point x="447.706" y="360"/>
      <point x="434.094" y="360"/>
      <point x="419" y="360" type="curve" smooth="yes"/>
      <point x="395.857" y="360"/>
      <point x="377" y="378.857"/>
      <point x="377" y="402" type="curve" smooth="yes"/>
      <point x="377" y="425.143"/>
      <point x="395.857" y="444"/>
      <point x="419" y="444" type="curve" smooth="yes"/>
      <point x="442.143" y="444"/>
      <point x="461" y="425.143"/>
      <point x="461" y="402" type="curve" smooth="yes"/>
      <point x="585" y="402" type="line" smooth="yes"/>
      <point x="585" y="494"/>
      <point x="510" y="569"/>
      <point x="418" y="569" type="curve" smooth="yes"/>
      <point x="325" y="569"/>
      <point x="250" y="494"/>
      <point x="250" y="402" type="curve" smooth="yes"/>
      <point x="250" y="310"/>
      <point x="315" y="235"/>
      <point x="417" y="235" type="curve" smooth="yes"/>
      <point x="454" y="236" type="line"/>
      <point x="454" y="202" type="line"/>
      <point x="454" y="151"/>
      <point x="415" y="123"/>
      <point x="350" y="123" type="curve" smooth="yes"/>
      <point x="278" y="123" type="line" smooth="yes"/>
      <point x="215" y="123"/>
      <point x="174" y="148.801"/>
      <point x="174" y="202" type="curve"/>
    </contour>
    <contour>
      <point x="304" y="522" type="line"/>
      <point x="438" y="470" type="line"/>
      <point x="610.46" y="696.425" type="line"/>
      <point x="436" y="696" type="line"/>
    </contour>
    <contour>
      <point x="256.502" y="678.519" type="line"/>
      <point x="257" y="658.543" type="line"/>
      <point x="385" y="658.716" type="line"/>
      <point x="385.002" y="678.754" type="line"/>
      <point x="384.908" y="717.837"/>
      <point x="411.258" y="720.816"/>
      <point x="431.399" y="721.615" type="curve"/>
      <point x="639.648" y="721.995" type="line" smooth="yes"/>
      <point x="657.684" y="722.039"/>
      <point x="668.951" y="707.571"/>
      <point x="668.969" y="692.734" type="curve" smooth="yes"/>
      <point x="668.969" y="674.482"/>
      <point x="654.743" y="663.514"/>
      <point x="639.711" y="663.496" type="curve" smooth="yes"/>
      <point x="622.504" y="663.496"/>
      <point x="610.507" y="676.949"/>
      <point x="610.469" y="692.676" type="curve" smooth="yes"/>
      <point x="610.46" y="696.425" type="line"/>
      <point x="521.96" y="696.213" type="line"/>
      <point x="521.969" y="692.463" type="line"/>
      <point x="522.205" y="594.52"/>
      <point x="600.337" y="574.378"/>
      <point x="638.978" y="574.378" type="curve" smooth="yes"/>
      <point x="698.472" y="574.448"/>
      <point x="757.753" y="617.333"/>
      <point x="757.753" y="691.941" type="curve" smooth="yes"/>
      <point x="757.67" y="761.468"/>
      <point x="714.739" y="819.677"/>
      <point x="640.164" y="819.498" type="curve" smooth="yes"/>
      <point x="389.165" y="819.085" type="line"/>
      <point x="314.721" y="818.906"/>
      <point x="257.001" y="769.574"/>
      <point x="257.452" y="699.519" type="curve"/>
    </contour>
  </outline>
</glyph>
<glyph name="si_DI" format="1">
  <advance width="552"/>
  <outline>
    <contour>
      <point x="30" y="602" type="line"/>
      <point x="30" y="630" type="line"/>
      <point x="30" y="724"/>
      <point x="106.741" y="789"/>
      <point x="206" y="789" type="curve"/>
      <point x="297" y="789" type="line"/>
      <point x="396.259" y="789"/>
      <point x="473" y="724"/>
      <point x="473" y="630" type="curve"/>
      <point x="473" y="602" type="line"/>
      <point x="343" y="602" type="line"/>
      <point x="343" y="654.112"/>
      <point x="307.857" y="658"/>
      <point x="281" y="659" type="curve"/>
      <point x="222" y="659" type="line"/>
      <point x="195.143" y="658"/>
      <point x="160" y="654.112"/>
      <point x="160" y="602" type="curve"/>
    </contour>
    <component base="si_Da"/>
  </outline>
</glyph>
<glyph name="si_DIi" format="1">
  <advance width="552"/>
  <outline>
    <contour>
      <point x="380" y="586" type="curve" smooth="yes"/>
      <point x="319.918" y="586"/>
      <point x="282" y="624.629"/>
      <point x="282" y="671" type="curve" smooth="yes"/>
      <point x="282" y="698.41"/>
      <point x="300.711" y="723.133"/>
      <point x="315" y="731" type="curve"/>
      <point x="315" y="699" type="line"/>
      <point x="278" y="699" type="line"/>
      <point x="232" y="699" type="line" smooth="yes"/>
      <point x="205" y="699"/>
      <point x="170" y="694.112"/>
      <point x="170" y="642" type="curve"/>
      <point x="40" y="642" type="line"/>
      <point x="40" y="670" type="line" smooth="yes"/>
      <point x="40" y="763.409"/>
      <point x="117" y="829"/>
      <point x="216" y="829" type="curve" smooth="yes"/>
      <point x="342" y="829" type="line" smooth="yes"/>
      <point x="424" y="829"/>
      <point x="481" y="768.531"/>
      <point x="481" y="699" type="curve" smooth="yes"/>
      <point x="481" y="634"/>
      <point x="442" y="586"/>
    </contour>
    <component base="si_Da"/>
  </outline>
</glyph>
<glyph name="si_DRIi" format="1">
  <advance width="517"/>
  <outline>
    <contour>
      <point x="375" y="586" type="curve" smooth="yes"/>
      <point x="314.918" y="586"/>
      <point x="277" y="624.629"/>
      <point x="277" y="671" type="curve" smooth="yes"/>
      <point x="277" y="698.41"/>
      <point x="295.711" y="723.133"/>
      <point x="310" y="731" type="curve"/>
      <point x="310" y="699" type="line"/>
      <point x="271" y="699" type="line"/>
      <point x="227" y="699" type="line" smooth="yes"/>
      <point x="200" y="699"/>
      <point x="165" y="694.112"/>
      <point x="165" y="642" type="curve"/>
      <point x="35" y="642" type="line"/>
      <point x="35" y="670" type="line" smooth="yes"/>
      <point x="35" y="763.409"/>
      <point x="112" y="829"/>
      <point x="211" y="829" type="curve" smooth="yes"/>
      <point x="337" y="829" type="line" smooth="yes"/>
      <point x="419" y="829"/>
      <point x="476" y="768.531"/>
      <point x="476" y="699" type="curve" smooth="yes"/>
      <point x="476" y="634"/>
      <point x="437" y="586"/>
    </contour>
    <component base="si_DRa"/>
  </outline>
</glyph>
<glyph name="si_DRa" format="1">
  <advance width="552"/>
  <outline>
    <contour>
      <point x="247" y="0" type="line"/>
      <point x="137" y="0"/>
      <point x="30" y="59.3916"/>
      <point x="30" y="198" type="curve" smooth="yes"/>
      <point x="30" y="334.29"/>
      <point x="123.044" y="402"/>
      <point x="256" y="402" type="curve" smooth="yes"/>
      <point x="313" y="402" type="line"/>
      <point x="313" y="440.006"/>
      <point x="278.758" y="457.103"/>
      <point x="244.296" y="457.103" type="curve" smooth="yes"/>
      <point x="213.977" y="457.103"/>
      <point x="183.488" y="443.869"/>
      <point x="176" y="420" type="curve"/>
      <point x="58" y="459" type="line"/>
      <point x="78.9297" y="538.607"/>
      <point x="158.18" y="578.155"/>
      <point x="239.294" y="578.155" type="curve" smooth="yes"/>
      <point x="339.233" y="578.155"/>
      <point x="442" y="518.119"/>
      <point x="442" y="399" type="curve" smooth="yes"/>
      <point x="442" y="263" type="line"/>
      <point x="256" y="263" type="line" smooth="yes"/>
      <point x="217" y="263"/>
      <point x="173" y="257.19"/>
      <point x="173" y="198" type="curve" smooth="yes"/>
      <point x="173" y="146"/>
      <point x="220" y="136"/>
      <point x="247" y="136" type="curve"/>
    </contour>
    <contour>
      <point x="303.5" y="-102.81" type="line"/>
      <point x="412" y="-102"/>
      <point x="422.663" y="0.115234"/>
      <point x="330.888" y="0.015625" type="curve" smooth="yes"/>
      <point x="303.5" y="0" type="line"/>
      <point x="303.5" y="137" type="line"/>
      <point x="350" y="137" type="line" smooth="yes"/>
      <point x="599.457" y="137"/>
      <point x="585.898" y="-233.947"/>
      <point x="303.5" y="-233.947" type="curve"/>
    </contour>
    <contour>
      <point x="247.333" y="-234.038" type="line"/>
      <point x="144.333" y="-234.091"/>
      <point x="45.333" y="-170.326"/>
      <point x="45.333" y="-75.0908" type="curve" smooth="yes"/>
      <point x="45.333" y="-47.0908" type="line"/>
      <point x="175.333" y="-47.0908" type="line"/>
      <point x="175.333" y="-78.3965"/>
      <point x="206.333" y="-101.091"/>
      <point x="247.333" y="-101" type="curve"/>
    </contour>
  </outline>
</glyph>
<glyph name="si_DU" format="1">
  <advance width="488"/>
  <outline>
    <contour>
      <point x="318" y="-205" type="line"/>
      <point x="318" y="136" type="line"/>
      <point x="458" y="136" type="line"/>
      <point x="458" y="-205" type="line"/>
    </contour>
    <contour>
      <point x="40" y="-205" type="line"/>
      <point x="40" y="-65" type="line"/>
      <point x="262" y="-65" type="line"/>
      <point x="262" y="-205" type="line"/>
    </contour>
    <contour>
      <point x="257" y="0" type="line" smooth="yes"/>
      <point x="137" y="0"/>
      <point x="30" y="59.3916"/>
      <point x="30" y="198" type="curve" smooth="yes"/>
      <point x="30" y="337.017"/>
      <point x="125.045" y="402"/>
      <point x="256" y="402" type="curve" smooth="yes"/>
      <point x="313" y="402" type="line"/>
      <point x="313" y="439.367"/>
      <point x="278.239" y="457.175"/>
      <point x="243.43" y="457.175" type="curve" smooth="yes"/>
      <point x="213.982" y="457.175"/>
      <point x="184.5" y="444.43"/>
      <point x="176" y="420" type="curve"/>
      <point x="58" y="459" type="line"/>
      <point x="79.418" y="539.204"/>
      <point x="157.76" y="577.97"/>
      <point x="238.147" y="577.97" type="curve" smooth="yes"/>
      <point x="338.48" y="577.97"/>
      <point x="442" y="517.58"/>
      <point x="442" y="402" type="curve" smooth="yes"/>
      <point x="442" y="263" type="line"/>
      <point x="256" y="263" type="line" smooth="yes"/>
      <point x="217" y="263"/>
      <point x="173" y="257.19"/>
      <point x="173" y="198" type="curve"/>
      <point x="173" y="146"/>
      <point x="220" y="136"/>
      <point x="257" y="136" type="curve" smooth="yes"/>
      <point x="262" y="136" type="line"/>
      <point x="262" y="0" type="line"/>
    </contour>
  </outline>
</glyph>
<glyph name="si_DUu" format="1">
  <advance width="483"/>
  <outline>
    <contour>
      <point x="257" y="0" type="line"/>
      <point x="137" y="0"/>
      <point x="30" y="59.3916"/>
      <point x="30" y="198" type="curve" smooth="yes"/>
      <point x="30" y="337.017"/>
      <point x="125.045" y="402"/>
      <point x="256" y="402" type="curve" smooth="yes"/>
      <point x="313" y="402" type="line"/>
      <point x="313" y="439.367"/>
      <point x="278.239" y="457.175"/>
      <point x="243.43" y="457.175" type="curve" smooth="yes"/>
      <point x="213.982" y="457.175"/>
      <point x="184.5" y="444.43"/>
      <point x="176" y="420" type="curve"/>
      <point x="58" y="459" type="line"/>
      <point x="79.418" y="539.204"/>
      <point x="157.76" y="577.97"/>
      <point x="238.147" y="577.97" type="curve" smooth="yes"/>
      <point x="338.48" y="577.97"/>
      <point x="442" y="517.58"/>
      <point x="442" y="402" type="curve" smooth="yes"/>
      <point x="442" y="263" type="line"/>
      <point x="256" y="263" type="line" smooth="yes"/>
      <point x="217" y="263"/>
      <point x="173" y="257.19"/>
      <point x="173" y="198" type="curve" smooth="yes"/>
      <point x="173" y="146"/>
      <point x="220" y="136"/>
      <point x="257" y="136" type="curve"/>
      <point x="262" y="136" type="line"/>
      <point x="262" y="0" type="line"/>
    </contour>
    <contour>
      <point x="318" y="-205" type="line"/>
      <point x="318" y="136" type="line"/>
      <point x="458" y="136" type="line"/>
      <point x="458" y="-205" type="line"/>
    </contour>
    <contour>
      <point x="262" y="-205" type="line"/>
      <point x="236.106" y="-186.639"/>
      <point x="222" y="-182"/>
      <point x="201" y="-182" type="curve" smooth="yes"/>
      <point x="161.667" y="-182"/>
      <point x="153.334" y="-204.777"/>
      <point x="110.741" y="-204.777" type="curve" smooth="yes"/>
      <point x="89.4443" y="-204.777"/>
      <point x="66.334" y="-198.333"/>
      <point x="40" y="-179" type="curve"/>
      <point x="40" y="-39" type="line"/>
      <point x="66.334" y="-58.333"/>
      <point x="89.4443" y="-64.7773"/>
      <point x="110.741" y="-64.7773" type="curve" smooth="yes"/>
      <point x="153.334" y="-64.7773"/>
      <point x="161.667" y="-42"/>
      <point x="201" y="-42" type="curve" smooth="yes"/>
      <point x="218" y="-42"/>
      <point x="239.148" y="-46.167"/>
      <point x="262" y="-61" type="curve"/>
    </contour>
  </outline>
</glyph>
<glyph name="si_Dd.halant" format="1">
  <advance width="632"/>
  <outline>
    <contour>
      <point x="128" y="652" type="curve"/>
      <point x="111.708" y="652"/>
      <point x="95.543" y="678.371"/>
      <point x="95.543" y="710.154" type="curve" smooth="yes"/>
      <point x="95.543" y="758.353"/>
      <point x="132.718" y="819"/>
      <point x="263" y="819" type="curve" smooth="yes"/>
      <point x="304.667" y="819" type="line"/>
      <point x="304.667" y="703" type="line"/>
      <point x="271.667" y="703" type="line" smooth="yes"/>
      <point x="242.729" y="703"/>
      <point x="236.409" y="688.847"/>
      <point x="236.409" y="676.362" type="curve" smooth="yes"/>
      <point x="236.409" y="661.503"/>
      <point x="249.732" y="652"/>
      <point x="271.667" y="652" type="curve"/>
      <point x="302.667" y="652" type="line"/>
      <point x="302.667" y="522" type="line"/>
      <point x="284.667" y="522" type="line"/>
      <point x="149.492" y="522"/>
      <point x="128" y="607.938"/>
    </contour>
    <contour>
      <point x="360.167" y="703" type="line"/>
      <point x="360.167" y="819" type="line"/>
      <point x="415.667" y="819" type="line" smooth="yes"/>
      <point x="564.026" y="819"/>
      <point x="589" y="756"/>
      <point x="589" y="673" type="curve"/>
      <point x="453.667" y="673" type="line"/>
      <point x="453.667" y="700"/>
      <point x="429" y="703"/>
      <point x="383.667" y="703" type="curve" smooth="yes"/>
    </contour>
    <contour>
      <point x="272.667" y="522" type="line"/>
      <point x="272.667" y="652" type="line"/>
      <point x="370.667" y="652" type="line"/>
      <point x="370.667" y="522" type="line"/>
    </contour>
    <contour>
      <point x="81" y="522" type="line"/>
      <point x="81" y="652" type="line"/>
      <point x="273" y="652" type="line"/>
      <point x="273" y="522" type="line"/>
    </contour>
    <contour>
      <point x="30" y="251" type="line"/>
      <point x="30" y="353" type="line"/>
      <point x="281" y="353" type="line"/>
      <point x="281" y="359" type="line"/>
      <point x="281.053" y="388.333"/>
      <point x="259.721" y="399"/>
      <point x="239" y="399" type="curve" smooth="yes"/>
      <point x="229.146" y="399"/>
      <point x="203.972" y="396"/>
      <point x="199" y="375" type="curve"/>
      <point x="100" y="401" type="line"/>
      <point x="126.404" y="488.737"/>
      <point x="202.592" y="502"/>
      <point x="239" y="502" type="curve" smooth="yes"/>
      <point x="282.907" y="502"/>
      <point x="327.606" y="485.113"/>
      <point x="351" y="458" type="curve" smooth="yes"/>
      <point x="374.371" y="430.912"/>
      <point x="384" y="404.667"/>
      <point x="384" y="349" type="curve" smooth="yes"/>
      <point x="384" y="251" type="line"/>
      <point x="242" y="251" type="line"/>
      <point x="211.475" y="251"/>
      <point x="207" y="231"/>
      <point x="207" y="219" type="curve"/>
      <point x="207" y="166" type="line" smooth="yes"/>
      <point x="207" y="154"/>
      <point x="216" y="132"/>
      <point x="246" y="132" type="curve" smooth="yes"/>
      <point x="276" y="132"/>
      <point x="284" y="152.875"/>
      <point x="284" y="166" type="curve" smooth="yes"/>
      <point x="284" y="202" type="line"/>
      <point x="384" y="202" type="line"/>
      <point x="384" y="166" type="line" smooth="yes"/>
      <point x="384" y="152.875"/>
      <point x="392" y="132"/>
      <point x="422" y="132" type="curve" smooth="yes"/>
      <point x="452" y="132"/>
      <point x="461" y="154"/>
      <point x="461" y="166" type="curve" smooth="yes"/>
      <point x="461" y="202" type="line"/>
      <point x="602" y="202" type="line"/>
      <point x="602" y="160" type="line" smooth="yes"/>
      <point x="602" y="58"/>
      <point x="535.381" y="-8"/>
      <point x="443" y="-8" type="curve" smooth="yes"/>
      <point x="409.151" y="-8"/>
      <point x="367.925" y="3.4668"/>
      <point x="339" y="35" type="curve"/>
      <point x="315.108" y="3.4668"/>
      <point x="278.959" y="-8"/>
      <point x="251" y="-8" type="curve" smooth="yes"/>
      <point x="145.768" y="-8"/>
      <point x="72" y="58"/>
      <point x="72" y="160" type="curve" smooth="yes"/>
      <point x="72" y="219" type="line"/>
      <point x="72" y="226"/>
      <point x="72" y="246"/>
      <point x="80" y="251" type="curve"/>
    </contour>
    <contour>
      <point x="370.667" y="522" type="curve"/>
      <point x="370.667" y="652" type="line"/>
      <point x="530.305" y="652"/>
      <point x="602" y="590"/>
      <point x="602" y="474" type="curve" smooth="yes"/>
      <point x="602" y="200" type="line"/>
      <point x="461" y="200" type="line"/>
      <point x="461" y="455" type="line" smooth="yes"/>
      <point x="461" y="513.936"/>
      <point x="420.403" y="522"/>
    </contour>
  </outline>
</glyph>
<glyph name="si_DdI" format="1">
  <advance width="632"/>
  <outline>
    <contour>
      <point x="251" y="-8" type="curve" smooth="yes"/>
      <point x="145.768" y="-8"/>
      <point x="72" y="58"/>
      <point x="72" y="160" type="curve" smooth="yes"/>
      <point x="72" y="219" type="line"/>
      <point x="72" y="226"/>
      <point x="72" y="246"/>
      <point x="80" y="251" type="curve"/>
      <point x="30" y="251" type="line"/>
      <point x="30" y="353" type="line"/>
      <point x="281" y="353" type="line"/>
      <point x="281" y="386.103"/>
      <point x="263.519" y="399"/>
      <point x="239" y="399" type="curve" smooth="yes"/>
      <point x="229.146" y="399"/>
      <point x="203.972" y="396"/>
      <point x="199" y="375" type="curve"/>
      <point x="100" y="401" type="line"/>
      <point x="126.404" y="488.737"/>
      <point x="202.592" y="502"/>
      <point x="239" y="502" type="curve" smooth="yes"/>
      <point x="332.835" y="502"/>
      <point x="384" y="449.128"/>
      <point x="384" y="349" type="curve" smooth="yes"/>
      <point x="384" y="251" type="line"/>
      <point x="242" y="251" type="line"/>
      <point x="211.475" y="251"/>
      <point x="207" y="231"/>
      <point x="207" y="219" type="curve"/>
      <point x="207" y="166" type="line" smooth="yes"/>
      <point x="207" y="154"/>
      <point x="216" y="132"/>
      <point x="246" y="132" type="curve" smooth="yes"/>
      <point x="276" y="132"/>
      <point x="284" y="152.875"/>
      <point x="284" y="166" type="curve" smooth="yes"/>
      <point x="284" y="202" type="line"/>
      <point x="384" y="202" type="line"/>
      <point x="384" y="166" type="line" smooth="yes"/>
      <point x="384" y="152.875"/>
      <point x="392" y="132"/>
      <point x="422" y="132" type="curve" smooth="yes"/>
      <point x="452" y="132"/>
      <point x="461" y="154"/>
      <point x="461" y="166" type="curve" smooth="yes"/>
      <point x="461" y="202" type="line"/>
      <point x="602" y="202" type="line"/>
      <point x="602" y="160" type="line" smooth="yes"/>
      <point x="602" y="58"/>
      <point x="535.381" y="-8"/>
      <point x="443" y="-8" type="curve" smooth="yes"/>
      <point x="409.151" y="-8"/>
      <point x="367.925" y="3.4668"/>
      <point x="339" y="35" type="curve"/>
      <point x="315.108" y="3.4668"/>
      <point x="278.959" y="-8"/>
    </contour>
    <contour>
      <point x="247.667" y="512" type="line"/>
      <point x="129.542" y="512"/>
      <point x="70.292" y="570.065"/>
      <point x="70.292" y="670.735" type="curve" smooth="yes"/>
      <point x="70.292" y="744.907"/>
      <point x="129.292" y="819"/>
      <point x="247.667" y="819" type="curve"/>
      <point x="292.667" y="819" type="line"/>
      <point x="292.667" y="703" type="line"/>
      <point x="226.667" y="703" type="line"/>
      <point x="206.167" y="703"/>
      <point x="195.917" y="690.25"/>
      <point x="195.917" y="677.5" type="curve" smooth="yes"/>
      <point x="195.917" y="664.75"/>
      <point x="206.167" y="652"/>
      <point x="226.667" y="652" type="curve"/>
      <point x="370.667" y="652" type="line"/>
      <point x="370.667" y="512" type="line"/>
    </contour>
    <contour>
      <point x="461" y="202" type="line"/>
      <point x="461" y="445" type="line" smooth="yes"/>
      <point x="461" y="504"/>
      <point x="420.403" y="512"/>
      <point x="370.667" y="512" type="curve"/>
      <point x="370.667" y="652" type="line"/>
      <point x="530.305" y="652"/>
      <point x="602" y="590"/>
      <point x="602" y="474" type="curve" smooth="yes"/>
      <point x="602" y="202" type="line"/>
    </contour>
    <contour>
      <point x="453.667" y="673" type="line"/>
      <point x="453.667" y="700"/>
      <point x="429" y="703"/>
      <point x="383.667" y="703" type="curve" smooth="yes"/>
      <point x="348.167" y="703" type="line"/>
      <point x="348.167" y="819" type="line"/>
      <point x="415.667" y="819" type="line" smooth="yes"/>
      <point x="544.026" y="819"/>
      <point x="589" y="756"/>
      <point x="589" y="673" type="curve"/>
    </contour>
  </outline>
</glyph>
<glyph name="si_DdIi" format="1">
  <advance width="632"/>
  <outline>
    <contour>
      <point x="350" y="829" type="line" smooth="yes"/>
      <point x="463" y="829" type="line" smooth="yes"/>
      <point x="545.357" y="829"/>
      <point x="603" y="780.531"/>
      <point x="603" y="711" type="curve" smooth="yes"/>
      <point x="603" y="648"/>
      <point x="568" y="605"/>
      <point x="514" y="605" type="curve" smooth="yes"/>
      <point x="468.918" y="605"/>
      <point x="418" y="632.629"/>
      <point x="418" y="679" type="curve" smooth="yes"/>
      <point x="418" y="709.41"/>
      <point x="443" y="731"/>
      <point x="457" y="731" type="curve"/>
      <point x="457" y="713" type="line"/>
      <point x="421" y="713" type="line" smooth="yes"/>
      <point x="350" y="713" type="line" smooth="yes"/>
    </contour>
    <contour>
      <point x="30" y="353" type="line"/>
      <point x="281" y="353" type="line"/>
      <point x="281" y="386.103"/>
      <point x="263.519" y="399"/>
      <point x="239" y="399" type="curve" smooth="yes"/>
      <point x="229.146" y="399"/>
      <point x="203.972" y="396"/>
      <point x="199" y="375" type="curve"/>
      <point x="100" y="401" type="line"/>
      <point x="126.404" y="488.737"/>
      <point x="202.592" y="502"/>
      <point x="239" y="502" type="curve" smooth="yes"/>
      <point x="331.688" y="502"/>
      <point x="384" y="451.489"/>
      <point x="384" y="349" type="curve" smooth="yes"/>
      <point x="384" y="251" type="line"/>
      <point x="242" y="251" type="line" smooth="yes"/>
      <point x="211.475" y="251"/>
      <point x="207" y="231"/>
      <point x="207" y="219" type="curve" smooth="yes"/>
      <point x="207" y="166" type="line" smooth="yes"/>
      <point x="207" y="154"/>
      <point x="216" y="132"/>
      <point x="246" y="132" type="curve" smooth="yes"/>
      <point x="276" y="132"/>
      <point x="284" y="152.875"/>
      <point x="284" y="166" type="curve" smooth="yes"/>
      <point x="284" y="202" type="line"/>
      <point x="384" y="202" type="line"/>
      <point x="384" y="166" type="line" smooth="yes"/>
      <point x="384" y="152.875"/>
      <point x="392" y="132"/>
      <point x="422" y="132" type="curve" smooth="yes"/>
      <point x="452" y="132"/>
      <point x="461" y="154"/>
      <point x="461" y="166" type="curve" smooth="yes"/>
      <point x="461" y="455" type="line" smooth="yes"/>
      <point x="461" y="514"/>
      <point x="420.403" y="522"/>
      <point x="370.667" y="522" type="curve" smooth="yes"/>
      <point x="247" y="522" type="line" smooth="yes"/>
      <point x="128.849" y="522"/>
      <point x="79.625" y="601.374"/>
      <point x="79.625" y="675.686" type="curve" smooth="yes"/>
      <point x="79.625" y="749.874"/>
      <point x="138.651" y="829"/>
      <point x="257" y="829" type="curve" smooth="yes"/>
      <point x="294" y="829" type="line"/>
      <point x="294" y="713" type="line"/>
      <point x="246" y="713" type="line" smooth="yes"/>
      <point x="218.558" y="713"/>
      <point x="209.36" y="693.518"/>
      <point x="209.36" y="679.028" type="curve" smooth="yes"/>
      <point x="209.36" y="664.518"/>
      <point x="218.589" y="644"/>
      <point x="246" y="644" type="curve" smooth="yes"/>
      <point x="371" y="644" type="line" smooth="yes"/>
      <point x="530.404" y="643.925"/>
      <point x="602" y="589.919"/>
      <point x="602" y="474" type="curve" smooth="yes"/>
      <point x="602" y="160" type="line" smooth="yes"/>
      <point x="602" y="58"/>
      <point x="535.381" y="-8"/>
      <point x="443" y="-8" type="curve" smooth="yes"/>
      <point x="409.151" y="-8"/>
      <point x="367.925" y="3.4668"/>
      <point x="339" y="35" type="curve"/>
      <point x="315.108" y="3.4668"/>
      <point x="278.959" y="-8"/>
      <point x="251" y="-8" type="curve" smooth="yes"/>
      <point x="145.768" y="-8"/>
      <point x="72" y="58"/>
      <point x="72" y="160" type="curve" smooth="yes"/>
      <point x="72" y="219" type="line" smooth="yes"/>
      <point x="72" y="226"/>
      <point x="72" y="246"/>
      <point x="80" y="251" type="curve"/>
      <point x="30" y="251" type="line"/>
    </contour>
  </outline>
</glyph>
<glyph name="si_DdRIi" format="1">
  <advance width="632"/>
  <outline>
    <contour>
      <point x="366" y="-103" type="line"/>
      <point x="518.188" y="-103"/>
      <point x="481.877" y="0"/>
      <point x="456" y="0" type="curve"/>
      <point x="589" y="89" type="line"/>
      <point x="672.554" y="-53.5439"/>
      <point x="598" y="-234"/>
      <point x="366.115" y="-233.947" type="curve"/>
    </contour>
    <contour>
      <point x="311.115" y="-233.947" type="line"/>
      <point x="177" y="-234"/>
      <point x="62.833" y="-167.027"/>
      <point x="62.833" y="-37.0908" type="curve"/>
      <point x="203.833" y="-37.0908" type="line"/>
      <point x="203.833" y="-72.625"/>
      <point x="242.901" y="-103"/>
      <point x="311" y="-103" type="curve"/>
    </contour>
    <component base="si_DdIi"/>
  </outline>
</glyph>
<glyph name="si_DdUu" format="1">
  <advance width="632"/>
  <outline>
    <contour>
      <point x="95" y="-39" type="line"/>
      <point x="121.334" y="-58.333"/>
      <point x="164.444" y="-64.7773"/>
      <point x="185.741" y="-64.7773" type="curve" smooth="yes"/>
      <point x="228.334" y="-64.7773"/>
      <point x="273.667" y="-42"/>
      <point x="313" y="-42" type="curve"/>
      <point x="313" y="-182" type="line"/>
      <point x="273.667" y="-182"/>
      <point x="228.334" y="-204.777"/>
      <point x="185.741" y="-204.777" type="curve" smooth="yes"/>
      <point x="164.444" y="-204.777"/>
      <point x="121.334" y="-198.333"/>
      <point x="95" y="-179" type="curve"/>
    </contour>
    <contour>
      <point x="369" y="-42" type="line"/>
      <point x="386" y="-42"/>
      <point x="426.148" y="-46.167"/>
      <point x="449" y="-61" type="curve"/>
      <point x="449" y="-205" type="line"/>
      <point x="423.106" y="-186.639"/>
      <point x="390" y="-182"/>
      <point x="369" y="-182" type="curve"/>
    </contour>
    <contour>
      <point x="449" y="123" type="line"/>
      <point x="589" y="123" type="line"/>
      <point x="589" y="-205" type="line"/>
      <point x="449" y="-205" type="line"/>
    </contour>
    <component base="si_Dda"/>
  </outline>
</glyph>
<glyph name="si_DdhI" format="1">
  <advance width="632"/>
  <outline>
    <contour>
      <point x="247" y="922" type="curve" smooth="yes"/>
      <point x="433" y="922" type="line" smooth="yes"/>
      <point x="539" y="922"/>
      <point x="582.333" y="853.602"/>
      <point x="582.333" y="776" type="curve"/>
      <point x="447" y="776" type="line"/>
      <point x="447" y="804.182"/>
      <point x="427" y="806"/>
      <point x="388.849" y="806" type="curve" smooth="yes"/>
      <point x="247" y="806" type="line" smooth="yes"/>
      <point x="227" y="806"/>
      <point x="216.348" y="793.325"/>
      <point x="216.348" y="780.613" type="curve" smooth="yes"/>
      <point x="216.348" y="767.825"/>
      <point x="226.626" y="755"/>
      <point x="247" y="755" type="curve"/>
      <point x="247" y="639" type="line"/>
      <point x="144.586" y="639"/>
      <point x="93.6025" y="709.544"/>
      <point x="93.6025" y="780.19" type="curve" smooth="yes"/>
      <point x="93.6025" y="851.043"/>
      <point x="145" y="922"/>
    </contour>
    <component base="si_Ddha"/>
  </outline>
</glyph>
<glyph name="si_Dh.halant" format="1">
  <advance width="593"/>
  <outline>
    <contour>
      <point x="212" y="-8" type="curve" smooth="yes"/>
      <point x="105.004" y="-8"/>
      <point x="30" y="58"/>
      <point x="30" y="160" type="curve" smooth="yes"/>
      <point x="29.999" y="261.926" type="line" smooth="yes"/>
      <point x="29.999" y="343.692"/>
      <point x="44.667" y="474"/>
      <point x="240.667" y="474" type="curve"/>
      <point x="263" y="474" type="line"/>
      <point x="263" y="336" type="line"/>
      <point x="240.667" y="336" type="line"/>
      <point x="200.667" y="336"/>
      <point x="168" y="322"/>
      <point x="168" y="262" type="curve" smooth="yes"/>
      <point x="168" y="166" type="line" smooth="yes"/>
      <point x="168" y="154"/>
      <point x="177" y="132"/>
      <point x="207" y="132" type="curve" smooth="yes"/>
      <point x="237" y="132"/>
      <point x="245" y="152.875"/>
      <point x="245" y="166" type="curve" smooth="yes"/>
      <point x="245" y="202" type="line"/>
      <point x="345" y="202" type="line"/>
      <point x="345" y="166" type="line" smooth="yes"/>
      <point x="345" y="152.875"/>
      <point x="353" y="132"/>
      <point x="383" y="132" type="curve" smooth="yes"/>
      <point x="413" y="132"/>
      <point x="422" y="154"/>
      <point x="422" y="166" type="curve" smooth="yes"/>
      <point x="422" y="202" type="line"/>
      <point x="563" y="202" type="line"/>
      <point x="563" y="160" type="line" smooth="yes"/>
      <point x="563" y="58"/>
      <point x="496.381" y="-8"/>
      <point x="404" y="-8" type="curve" smooth="yes"/>
      <point x="370.151" y="-8"/>
      <point x="328.925" y="3.4668"/>
      <point x="300" y="35" type="curve"/>
      <point x="276.108" y="3.4668"/>
      <point x="239.959" y="-8"/>
    </contour>
    <contour>
      <point x="42" y="522" type="line"/>
      <point x="42" y="652" type="line"/>
      <point x="89" y="652" type="line" smooth="yes"/>
      <point x="72.7076" y="652"/>
      <point x="56.543" y="678.371"/>
      <point x="56.543" y="710.154" type="curve" smooth="yes"/>
      <point x="56.543" y="758.353"/>
      <point x="93.7184" y="819"/>
      <point x="224" y="819" type="curve" smooth="yes"/>
      <point x="271.667" y="819" type="line"/>
      <point x="271.667" y="703" type="line"/>
      <point x="232.667" y="703" type="line" smooth="yes"/>
      <point x="203.729" y="703"/>
      <point x="197.409" y="688.847"/>
      <point x="197.409" y="676.362" type="curve" smooth="yes"/>
      <point x="197.409" y="661.503"/>
      <point x="210.732" y="652"/>
      <point x="232.667" y="652" type="curve" smooth="yes"/>
      <point x="331.667" y="652" type="line"/>
      <point x="331.667" y="522" type="line"/>
    </contour>
    <contour>
      <point x="422" y="202" type="line"/>
      <point x="422" y="454" type="line" smooth="yes"/>
      <point x="422" y="513.999"/>
      <point x="381.403" y="522"/>
      <point x="331.667" y="522" type="curve"/>
      <point x="331.667" y="652" type="line"/>
      <point x="491.305" y="652"/>
      <point x="563" y="588.998"/>
      <point x="563" y="474" type="curve" smooth="yes"/>
      <point x="563" y="202" type="line"/>
    </contour>
    <contour>
      <point x="327.167" y="703" type="line"/>
      <point x="327.167" y="819" type="line"/>
      <point x="376.667" y="819" type="line" smooth="yes"/>
      <point x="525.026" y="819"/>
      <point x="550" y="756"/>
      <point x="550" y="673" type="curve"/>
      <point x="414.667" y="673" type="line"/>
      <point x="414.667" y="700"/>
      <point x="390" y="703"/>
      <point x="344.667" y="703" type="curve" smooth="yes"/>
    </contour>
  </outline>
</glyph>
<glyph name="si_DhI" format="1">
  <advance width="593"/>
  <outline>
    <contour>
      <point x="31.292" y="670.735" type="curve" smooth="yes"/>
      <point x="31.292" y="744.907"/>
      <point x="90.292" y="819"/>
      <point x="208.667" y="819" type="curve"/>
      <point x="253.667" y="819" type="line"/>
      <point x="253.667" y="703" type="line"/>
      <point x="187.667" y="703" type="line"/>
      <point x="167.167" y="703"/>
      <point x="156.917" y="690.25"/>
      <point x="156.917" y="677.5" type="curve" smooth="yes"/>
      <point x="156.917" y="664.75"/>
      <point x="167.167" y="652"/>
      <point x="187.667" y="652" type="curve"/>
      <point x="253.667" y="652" type="line"/>
      <point x="253.667" y="512" type="line"/>
      <point x="208.667" y="512" type="line"/>
      <point x="90.542" y="512"/>
      <point x="31.292" y="570.065"/>
    </contour>
    <contour>
      <point x="309.167" y="703" type="line"/>
      <point x="309.167" y="819" type="line"/>
      <point x="376.667" y="819" type="line" smooth="yes"/>
      <point x="505.026" y="819"/>
      <point x="550" y="756"/>
      <point x="550" y="673" type="curve"/>
      <point x="414.667" y="673" type="line"/>
      <point x="414.667" y="700"/>
      <point x="390" y="703"/>
      <point x="344.667" y="703" type="curve" smooth="yes"/>
    </contour>
    <contour>
      <point x="29.999" y="261.926" type="line" smooth="yes"/>
      <point x="29.999" y="343.692"/>
      <point x="44.667" y="474"/>
      <point x="240.667" y="474" type="curve"/>
      <point x="263" y="474" type="line"/>
      <point x="263" y="336" type="line"/>
      <point x="240.667" y="336" type="line"/>
      <point x="200.667" y="336"/>
      <point x="168" y="322"/>
      <point x="168" y="262" type="curve" smooth="yes"/>
      <point x="168" y="166" type="line" smooth="yes"/>
      <point x="168" y="154"/>
      <point x="177" y="132"/>
      <point x="207" y="132" type="curve" smooth="yes"/>
      <point x="237" y="132"/>
      <point x="245" y="152.875"/>
      <point x="245" y="166" type="curve" smooth="yes"/>
      <point x="245" y="202" type="line"/>
      <point x="345" y="202" type="line"/>
      <point x="345" y="166" type="line" smooth="yes"/>
      <point x="345" y="152.875"/>
      <point x="353" y="132"/>
      <point x="383" y="132" type="curve" smooth="yes"/>
      <point x="413" y="132"/>
      <point x="422" y="154"/>
      <point x="422" y="166" type="curve" smooth="yes"/>
      <point x="422" y="202" type="line"/>
      <point x="563" y="202" type="line"/>
      <point x="563" y="160" type="line" smooth="yes"/>
      <point x="563" y="58"/>
      <point x="496.381" y="-8"/>
      <point x="404" y="-8" type="curve" smooth="yes"/>
      <point x="370.151" y="-8"/>
      <point x="328.925" y="3.4668"/>
      <point x="300" y="35" type="curve"/>
      <point x="276.108" y="3.4668"/>
      <point x="239.959" y="-8"/>
      <point x="212" y="-8" type="curve" smooth="yes"/>
      <point x="105.004" y="-8"/>
      <point x="30" y="58"/>
      <point x="30" y="160" type="curve" smooth="yes"/>
    </contour>
    <contour>
      <point x="253.667" y="512" type="line"/>
      <point x="253.667" y="652" type="line"/>
      <point x="331.667" y="652" type="line"/>
      <point x="491.305" y="652"/>
      <point x="563" y="590"/>
      <point x="563" y="473" type="curve" smooth="yes"/>
      <point x="563" y="200" type="line"/>
      <point x="422" y="200" type="line"/>
      <point x="422" y="446" type="line" smooth="yes"/>
      <point x="422" y="504"/>
      <point x="381.403" y="512"/>
      <point x="331.667" y="512" type="curve"/>
    </contour>
  </outline>
</glyph>
<glyph name="si_DhIi" format="1">
  <advance width="593"/>
  <outline>
    <contour>
      <point x="310" y="829" type="line" smooth="yes"/>
      <point x="423" y="829" type="line" smooth="yes"/>
      <point x="505.357" y="829"/>
      <point x="563" y="780.531"/>
      <point x="563" y="711" type="curve" smooth="yes"/>
      <point x="563" y="648"/>
      <point x="528" y="605"/>
      <point x="474" y="605" type="curve" smooth="yes"/>
      <point x="428.918" y="605"/>
      <point x="378" y="632.629"/>
      <point x="378" y="679" type="curve" smooth="yes"/>
      <point x="378" y="709.41"/>
      <point x="403" y="731"/>
      <point x="417" y="731" type="curve"/>
      <point x="417" y="713" type="line"/>
      <point x="382" y="713" type="line"/>
      <point x="310" y="713" type="line" smooth="yes"/>
    </contour>
    <contour>
      <point x="212" y="-8" type="curve" smooth="yes"/>
      <point x="105.004" y="-8"/>
      <point x="30" y="58"/>
      <point x="30" y="160" type="curve" smooth="yes"/>
      <point x="29.999" y="261.926" type="line" smooth="yes"/>
      <point x="29.999" y="343.692"/>
      <point x="44.667" y="474"/>
      <point x="240.667" y="474" type="curve" smooth="yes"/>
      <point x="263" y="474" type="line"/>
      <point x="263" y="336" type="line"/>
      <point x="240.667" y="336" type="line" smooth="yes"/>
      <point x="200.667" y="336"/>
      <point x="168" y="322"/>
      <point x="168" y="262" type="curve" smooth="yes"/>
      <point x="168" y="166" type="line" smooth="yes"/>
      <point x="168" y="154"/>
      <point x="177" y="132"/>
      <point x="207" y="132" type="curve" smooth="yes"/>
      <point x="237" y="132"/>
      <point x="245" y="152.875"/>
      <point x="245" y="166" type="curve" smooth="yes"/>
      <point x="245" y="202" type="line"/>
      <point x="345" y="202" type="line"/>
      <point x="345" y="166" type="line" smooth="yes"/>
      <point x="345" y="152.875"/>
      <point x="353" y="132"/>
      <point x="383" y="132" type="curve" smooth="yes"/>
      <point x="413" y="132"/>
      <point x="422" y="154"/>
      <point x="422" y="166" type="curve" smooth="yes"/>
      <point x="422" y="456" type="line" smooth="yes"/>
      <point x="422" y="514"/>
      <point x="381.403" y="522"/>
      <point x="331.667" y="522" type="curve" smooth="yes"/>
      <point x="207" y="522" type="line" smooth="yes"/>
      <point x="88.8486" y="522"/>
      <point x="39.625" y="601.374"/>
      <point x="39.625" y="675.686" type="curve" smooth="yes"/>
      <point x="39.625" y="749.874"/>
      <point x="98.6514" y="829"/>
      <point x="217" y="829" type="curve" smooth="yes"/>
      <point x="254" y="829" type="line"/>
      <point x="254" y="713" type="line"/>
      <point x="206" y="713" type="line" smooth="yes"/>
      <point x="178.558" y="713"/>
      <point x="169.36" y="693.518"/>
      <point x="169.36" y="679.028" type="curve" smooth="yes"/>
      <point x="169.36" y="664.518"/>
      <point x="178.589" y="644"/>
      <point x="206" y="644" type="curve" smooth="yes"/>
      <point x="376.269" y="644" type="line" smooth="yes"/>
      <point x="509.128" y="644"/>
      <point x="563" y="595.229"/>
      <point x="563" y="474" type="curve" smooth="yes"/>
      <point x="563" y="160" type="line" smooth="yes"/>
      <point x="563" y="58"/>
      <point x="496.381" y="-8"/>
      <point x="404" y="-8" type="curve" smooth="yes"/>
      <point x="370.151" y="-8"/>
      <point x="328.925" y="3.4668"/>
      <point x="300" y="35" type="curve"/>
      <point x="276.108" y="3.4668"/>
      <point x="239.959" y="-8"/>
    </contour>
  </outline>
</glyph>
<glyph name="si_DhR.halant" format="1">
  <advance width="593"/>
  <outline>
    <contour>
      <point x="327.115" y="-233.947" type="curve"/>
      <point x="327" y="-103" type="line"/>
      <point x="415.74" y="-103"/>
      <point x="440.39" y="-67.9805"/>
      <point x="440.39" y="-38.7807" type="curve" smooth="yes"/>
      <point x="440.39" y="-17.9028"/>
      <point x="427.788" y="-3.55271e-15"/>
      <point x="417" y="0" type="curve"/>
      <point x="550" y="89" type="line"/>
      <point x="572.092" y="51.311"/>
      <point x="583.131" y="10.9717"/>
      <point x="583.131" y="-27.9808" type="curve" smooth="yes"/>
      <point x="583.131" y="-136.329"/>
      <point x="497.723" y="-233.947"/>
    </contour>
    <contour>
      <point x="272.115" y="-233.947" type="line"/>
      <point x="138" y="-234"/>
      <point x="23.833" y="-167.027"/>
      <point x="23.833" y="-37.0908" type="curve"/>
      <point x="164.833" y="-37.0908" type="line"/>
      <point x="164.833" y="-72.625"/>
      <point x="203.901" y="-103"/>
      <point x="272" y="-103" type="curve"/>
    </contour>
    <component base="si_Dh.halant"/>
  </outline>
</glyph>
<glyph name="si_DhRI" format="1">
  <advance width="593"/>
  <outline>
    <contour>
      <point x="327" y="-103" type="line"/>
      <point x="479.188" y="-103"/>
      <point x="442.877" y="0"/>
      <point x="417" y="0" type="curve"/>
      <point x="550" y="89" type="line"/>
      <point x="633.554" y="-53.5439"/>
      <point x="559" y="-234"/>
      <point x="327.115" y="-233.947" type="curve"/>
    </contour>
    <contour>
      <point x="272.115" y="-233.947" type="line"/>
      <point x="138" y="-234"/>
      <point x="23.833" y="-167.027"/>
      <point x="23.833" y="-37.0908" type="curve"/>
      <point x="164.833" y="-37.0908" type="line"/>
      <point x="164.833" y="-72.625"/>
      <point x="203.901" y="-103"/>
      <point x="272" y="-103" type="curve"/>
    </contour>
    <component base="si_DhI"/>
  </outline>
</glyph>
<glyph name="si_FR.halant" format="1">
  <advance width="650"/>
  <outline>
    <contour>
      <point x="356" y="-103" type="line"/>
      <point x="508.188" y="-103"/>
      <point x="475.877" y="1"/>
      <point x="450" y="1" type="curve"/>
      <point x="583" y="89" type="line"/>
      <point x="665.554" y="-56.5439"/>
      <point x="588" y="-234"/>
      <point x="356.115" y="-233.947" type="curve"/>
    </contour>
    <contour>
      <point x="301.115" y="-233.947" type="line"/>
      <point x="167" y="-234"/>
      <point x="52.833" y="-167.027"/>
      <point x="52.833" y="-37.0908" type="curve"/>
      <point x="193.833" y="-37.0908" type="line"/>
      <point x="193.833" y="-72.625"/>
      <point x="232.901" y="-103"/>
      <point x="301" y="-103" type="curve"/>
    </contour>
    <component base="si_F.halant"/>
  </outline>
</glyph>
<glyph name="si_FRa" format="1">
  <advance width="650"/>
  <outline>
    <contour>
      <point x="356" y="-103" type="curve"/>
      <point x="356.115" y="-233.947" type="line"/>
      <point x="588" y="-234"/>
      <point x="665.554" y="-56.5439"/>
      <point x="583" y="89" type="curve"/>
      <point x="450" y="1" type="line"/>
      <point x="475.877" y="1"/>
      <point x="508.188" y="-103"/>
    </contour>
    <contour>
      <point x="301.115" y="-233.947" type="curve"/>
      <point x="301" y="-103" type="line"/>
      <point x="232.901" y="-103"/>
      <point x="193.833" y="-72.625"/>
      <point x="193.833" y="-37.0908" type="curve"/>
      <point x="52.833" y="-37.0908" type="line"/>
      <point x="52.833" y="-167.027"/>
      <point x="167" y="-234"/>
    </contour>
    <component base="si_Fa"/>
  </outline>
</glyph>
<glyph name="si_FU" format="1">
  <advance width="650"/>
  <outline>
    <contour>
      <point x="58" y="-65" type="line"/>
      <point x="58" y="-205" type="line"/>
      <point x="300" y="-205" type="line"/>
      <point x="300" y="-65" type="line"/>
    </contour>
    <contour>
      <point x="356" y="-65" type="line"/>
      <point x="356" y="-205" type="line"/>
      <point x="472" y="-205" type="line"/>
      <point x="472" y="-65" type="line"/>
    </contour>
    <contour>
      <point x="462" y="131" type="line"/>
      <point x="462" y="-205" type="line"/>
      <point x="602" y="-205" type="line"/>
      <point x="602" y="131" type="line"/>
    </contour>
    <component base="si_Fa"/>
  </outline>
</glyph>
<glyph name="si_FUu" format="1">
  <advance width="650"/>
  <outline>
    <contour>
      <point x="58" y="-34" type="curve"/>
      <point x="58" y="-174" type="line"/>
      <point x="98.4785" y="-197.083"/>
      <point x="130.005" y="-204.777"/>
      <point x="162.741" y="-204.777" type="curve" smooth="yes"/>
      <point x="214.051" y="-204.777"/>
      <point x="252.616" y="-174"/>
      <point x="300" y="-174" type="curve"/>
      <point x="300" y="-34" type="line"/>
      <point x="252.616" y="-34"/>
      <point x="214.051" y="-67.7773"/>
      <point x="162.741" y="-67.7773" type="curve" smooth="yes"/>
      <point x="130.005" y="-67.7773"/>
      <point x="98.4785" y="-59.333"/>
    </contour>
    <contour>
      <point x="356" y="-34" type="curve"/>
      <point x="356" y="-174" type="line"/>
      <point x="392" y="-174"/>
      <point x="417.611" y="-180.252"/>
      <point x="462" y="-205" type="curve"/>
      <point x="462" y="-61" type="line"/>
      <point x="422.826" y="-39.9219"/>
      <point x="385.143" y="-34"/>
    </contour>
    <contour>
      <point x="462" y="131" type="line"/>
      <point x="462" y="-205" type="line"/>
      <point x="602" y="-205" type="line"/>
      <point x="602" y="131" type="line"/>
    </contour>
    <component base="si_Fa"/>
  </outline>
</glyph>
<glyph name="si_GDha" format="1">
  <advance width="1069"/>
  <outline>
    <contour>
      <point x="688" y="-8" type="curve" smooth="yes"/>
      <point x="581.004" y="-8"/>
      <point x="506" y="58"/>
      <point x="506" y="160" type="curve" smooth="yes"/>
      <point x="505.999" y="261.926" type="line" smooth="yes"/>
      <point x="505.999" y="323.069"/>
      <point x="514.201" y="411.354"/>
      <point x="600.291" y="452" type="curve" smooth="yes"/>
      <point x="633" y="464" type="line"/>
      <point x="739" y="336" type="line"/>
      <point x="716.667" y="336" type="line"/>
      <point x="676.667" y="336"/>
      <point x="644" y="322"/>
      <point x="644" y="262" type="curve" smooth="yes"/>
      <point x="644" y="166" type="line" smooth="yes"/>
      <point x="644" y="154"/>
      <point x="653" y="132"/>
      <point x="683" y="132" type="curve" smooth="yes"/>
      <point x="713" y="132"/>
      <point x="721" y="152.875"/>
      <point x="721" y="166" type="curve" smooth="yes"/>
      <point x="721" y="202" type="line"/>
      <point x="821" y="202" type="line"/>
      <point x="821" y="166" type="line" smooth="yes"/>
      <point x="821" y="152.875"/>
      <point x="829" y="132"/>
      <point x="859" y="132" type="curve" smooth="yes"/>
      <point x="889" y="132"/>
      <point x="898" y="154"/>
      <point x="898" y="166" type="curve" smooth="yes"/>
      <point x="898" y="202" type="line"/>
      <point x="1039" y="202" type="line"/>
      <point x="1039" y="160" type="line" smooth="yes"/>
      <point x="1039" y="58"/>
      <point x="972.381" y="-8"/>
      <point x="880" y="-8" type="curve" smooth="yes"/>
      <point x="846.151" y="-8"/>
      <point x="804.925" y="3.4668"/>
      <point x="776" y="35" type="curve"/>
      <point x="752.108" y="3.4668"/>
      <point x="715.959" y="-8"/>
    </contour>
    <contour>
      <point x="283" y="-8" type="curve"/>
      <point x="283" y="135" type="line" smooth="yes"/>
      <point x="335.527" y="135"/>
      <point x="337" y="170.963"/>
      <point x="337" y="188" type="curve" smooth="yes"/>
      <point x="337" y="205.037"/>
      <point x="335.527" y="241"/>
      <point x="283" y="241" type="curve" smooth="yes"/>
      <point x="271" y="241" type="line"/>
      <point x="271" y="347" type="line"/>
      <point x="371" y="347" type="line"/>
      <point x="407.086" y="347"/>
      <point x="461" y="325.407"/>
      <point x="460.85" y="216" type="curve" smooth="yes"/>
      <point x="461" y="166" type="line" smooth="yes"/>
      <point x="461" y="45.3371"/>
      <point x="399.69" y="-8"/>
    </contour>
    <contour>
      <point x="227" y="-8" type="line"/>
      <point x="87.704" y="-8"/>
      <point x="30.4201" y="81.7376"/>
      <point x="30.0791" y="198" type="curve" smooth="yes"/>
      <point x="30.0791" y="358" type="line" smooth="yes"/>
      <point x="30.4201" y="474.262"/>
      <point x="87.704" y="564"/>
      <point x="227" y="564" type="curve"/>
      <point x="227" y="421" type="line"/>
      <point x="174.887" y="421"/>
      <point x="171" y="375.857"/>
      <point x="171" y="348" type="curve" smooth="yes"/>
      <point x="171" y="198" type="line" smooth="yes"/>
      <point x="171" y="173.959"/>
      <point x="174.887" y="135"/>
      <point x="227" y="135" type="curve"/>
    </contour>
    <contour>
      <point x="254" y="241" type="line" smooth="yes"/>
      <point x="254" y="350" type="line" smooth="yes"/>
      <point x="254" y="513.629"/>
      <point x="383.018" y="575.647"/>
      <point x="509.029" y="575.647" type="curve" smooth="yes"/>
      <point x="610.915" y="575.647"/>
      <point x="740" y="500"/>
      <point x="739" y="336" type="curve"/>
      <point x="591" y="360" type="line"/>
      <point x="591" y="418.552"/>
      <point x="538.677" y="450.504"/>
      <point x="487.803" y="450.504" type="curve" smooth="yes"/>
      <point x="439.671" y="450.504"/>
      <point x="392.835" y="421.903"/>
      <point x="392.835" y="360" type="curve" smooth="yes"/>
      <point x="393" y="240.5" type="line"/>
    </contour>
    <contour>
      <point x="898" y="202" type="line"/>
      <point x="898" y="498" type="line" smooth="yes"/>
      <point x="898" y="583.358"/>
      <point x="878.933" y="616"/>
      <point x="795" y="616" type="curve"/>
      <point x="795" y="755" type="line"/>
      <point x="935.563" y="755"/>
      <point x="1039" y="705.513"/>
      <point x="1039" y="520" type="curve" smooth="yes"/>
      <point x="1039" y="202" type="line"/>
    </contour>
    <contour>
      <point x="664.934" y="588.211" type="curve"/>
      <point x="528.939" y="636.534" type="line"/>
      <point x="566.15" y="711.315"/>
      <point x="649.861" y="755"/>
      <point x="739" y="755" type="curve"/>
      <point x="739" y="616.5" type="line"/>
      <point x="707.4" y="616.5"/>
      <point x="682.676" y="612.385"/>
    </contour>
  </outline>
</glyph>
